<svg id="Group_152" data-name="Group 152" xmlns="http://www.w3.org/2000/svg" xmlns:xlink="http://www.w3.org/1999/xlink" width="78.07" height="110.85" viewBox="0 0 78.07 110.85">
  <defs>
    <clipPath id="clip-path">
      <rect id="Rectangle_758" data-name="Rectangle 758" width="78.07" height="110.85" fill="none"/>
    </clipPath>
  </defs>
  <g id="Group_151" data-name="Group 151" clip-path="url(#clip-path)">
    <path id="Path_207" data-name="Path 207" d="M84.739,32.324c-.086-.035-.177-.067-.271-.095.093.03.183.063.271.1l.3.156ZM73.862,113.186a5.556,5.556,0,0,0,.348-.6,6.406,6.406,0,0,1-.348.6M73.25,114c.134-.155.255-.308.365-.459-.112.151-.234.3-.365.459m-2.223-3.961c-.193.1-.39.2-.59.286q.3-.137.59-.285l.081-.042-.081.04m-14.312,1.311c.033.146.074.288.118.427-.044-.139-.083-.281-.118-.427M45.164,75.264c.016.012.032.023.047.033v0l-.047-.032M30.522,132.078c0,.155.005.3.01.441,0-.141-.007-.286-.01-.441m3.731-14.484q.25-.33.513-.666-.266.337-.513.666m-1.362,1.986c.139-.227.283-.452.434-.678q-.229.34-.434.678m-.4.678c.127-.227.258-.453.4-.678-.139.225-.271.452-.4.678m-.606,1.2c-.019.042-.037.084-.055.127l.095-.213c-.016.03-.028.058-.04.086m-.192.443q-.071.171-.137.348c.079-.206.164-.409.251-.612.007-.018.014-.035.023-.053-.019.04-.037.081-.055.121-.028.065-.056.13-.083.2" transform="translate(-26.626 -28.115)" fill="#483a4b" fill-rule="evenodd"/>
    <path id="Path_208" data-name="Path 208" d="M207.911,287.058a55.833,55.833,0,0,1-5.792,12.421c-2.012,3.2-5.316,7.567-10.365,7.941-7.667-.3-12.769-10.932-15.22-17.2-1.527-3.9-1.578-4.441-1.59-9.029-.005-3.079-.253-7.514.561-10.284,2.691-9.18,13.315-10.931,22.012-9.117,4.915,1.165,8.456,4.005,9.992,8.3,1.01,2.821,1.329,13.987.4,16.962" transform="translate(-152.578 -227.818)" fill="#6c4022" fill-rule="evenodd"/>
    <path id="Path_209" data-name="Path 209" d="M154.851,676.857v.021l-3.776.014-48.014-.01v-22.4l3.69-1.244a13.252,13.252,0,0,1,3.71-.344c0,2.8-.009,5.594,0,8.389a9.691,9.691,0,0,0,.629,3.785c.633,1.488,1.281,1.727,1.708,2.5,2.8,1.977,3.569,1.91,7.713,1.91q4.879,0,9.758,0c6.518,0,13.113.1,19.623-.012a10.472,10.472,0,0,1,2.079.218c.095.023.188.046.279.07,2.81.775,2.745,3.1,2.6,7.1" transform="translate(-89.905 -569.522)" fill="#f44235" fill-rule="evenodd"/>
    <path id="Path_210" data-name="Path 210" d="M239.655,671.984v0a6.429,6.429,0,0,1-5.544,4.342c0-.065-.005-.128-.005-.193-.011-.25-.018-.5-.023-.754-.074-2.954,0-6.042.012-8.977.005-1.52-.177-2.966-1.854-2.968-1.6,0-1.812,1.306-1.868,2.749a14.932,14.932,0,0,0-6.154-.912H203.834c-15.772,0-14.159,1.757-14.154-12.957h2.063c2.23,12.512,23.473,12.291,25.483,0,2.977,0,6.541-.223,9.321.415,5.425.87,9.481,5.116,11.437,9.027a17.6,17.6,0,0,1,1.664,8.558c0,.617,0,1.17.007,1.668" transform="translate(-165.425 -569.016)" fill="#6c4022" fill-rule="evenodd"/>
    <path id="Path_211" data-name="Path 211" d="M171.991,154.372c-2.935-3.583-6.811-6.884-11.681-7.985a22.055,22.055,0,0,0-20.2,4.218c-4.827,4.033-8.07,9.641-8.07,18.693.167.51,1.174.58,2.283.877,1.488-8.089,8.655-12.619,16.675-13.4,5.871-.571,14.2.59,18.113,4.6a15.152,15.152,0,0,1,3.316,4.235,16.476,16.476,0,0,1,1.74,4.566c.431-.114.766-.206,1.227-.336.924-.262.594.09,1.056-.541,0-6.026-1.441-11.24-4.46-14.925m-9.78.026a22.174,22.174,0,0,0-5.987-1.4c-7.446-.661-10.7,2.661-12.388,1.346a1.9,1.9,0,0,1-.223-2.617,6.781,6.781,0,0,1,2.494-1.193,26.513,26.513,0,0,1,6.272-1.241c3.163-.253,10.182.5,12.272,2.227,1.508,1.244.5,3.966-2.439,2.882" transform="translate(-115.186 -126.981)" fill="#1a1a1a" fill-rule="evenodd"/>
    <path id="Path_212" data-name="Path 212" d="M252.01,620.676c0,.221,0,.436,0,.641,0,.722-.017,1.351-.063,1.917-.005.081-.012.16-.021.239-.012.135-.028.269-.046.4-.016.111-.032.218-.051.325s-.033.193-.055.288c-.009.047-.019.095-.032.141s-.021.093-.033.139c-.021.083-.044.163-.069.244s-.051.16-.077.239-.054.156-.088.234a1.028,1.028,0,0,1-.048.114c-.014.039-.032.077-.049.116-.032.068-.063.137-.1.2a5.577,5.577,0,0,1-.348.6c-.044.067-.09.133-.137.2-.035.051-.072.1-.109.151-.111.151-.232.3-.365.459-.051.062-.105.123-.162.186s-.111.125-.17.188-.119.127-.181.192c-1.608,1.666-4.031,2.4-7.05,2.4h-.01c-.149,0-.3,0-.439-.005s-.293-.009-.436-.016c-.3-.014-.59-.037-.872-.067-.091-.009-.183-.019-.272-.032-.139-.017-.276-.037-.409-.06-.084-.012-.169-.028-.251-.044-.062-.011-.123-.023-.185-.035-.018,0-.033-.007-.049-.009l-.19-.042c-.069-.016-.137-.032-.206-.049s-.137-.033-.2-.053c-.22-.058-.434-.125-.641-.2-.067-.023-.132-.047-.2-.072s-.105-.039-.156-.06-.1-.041-.151-.063-.083-.035-.123-.053c-.06-.026-.118-.053-.176-.081-.079-.037-.156-.076-.232-.114s-.167-.088-.249-.135c-.053-.028-.1-.058-.155-.09s-.118-.07-.176-.107c-.125-.079-.248-.162-.367-.248-.062-.044-.119-.088-.179-.134a7.835,7.835,0,0,1-.678-.583c-.053-.053-.105-.105-.158-.16a9.2,9.2,0,0,1-.638-.721q-.071-.09-.137-.179c-.088-.118-.17-.235-.246-.355l-.088-.141c-.028-.046-.056-.093-.081-.139s-.054-.1-.081-.146c-.06-.109-.114-.218-.163-.329-.021-.044-.039-.088-.058-.132-.028-.065-.054-.132-.079-.2-.009-.021-.016-.04-.023-.061-.035-.095-.069-.19-.1-.285-.044-.139-.084-.281-.118-.427-.019-.072-.035-.144-.049-.218-.012-.056-.023-.114-.033-.172-.017-.093-.033-.19-.047-.286-.012-.076-.023-.151-.032-.229a.119.119,0,0,1,0-.025c-.009-.074-.018-.149-.025-.227s-.016-.142-.021-.216c-.014-.163-.026-.328-.035-.5-.007-.114-.011-.23-.016-.35,0-.021,0-.042,0-.063-.005-.132-.009-.269-.01-.409,0-.026,0-.053,0-.079q-.005-.3-.005-.611c0-.2,0-.406,0-.619q.163.106.327.216c.749.5,1.464,1.067,2.226,1.6.09.063.181.126.272.188.327.221.662.437,1.016.64.088.051.177.1.269.149.183.1.371.2.564.286.093.042.186.086.281.128l.018.007c.141.062.286.12.434.176s.311.114.471.167q.161.053.327.1c.056.016.111.032.167.046l.2.053c.1.026.209.049.316.072q.132.029.269.053c.054.012.111.021.169.03s.114.019.171.028l.158.023.16.021q.169.021.343.037c.216.019.438.033.666.042.141.005.283.009.429.009h.047c.1,0,.2,0,.3-.005a.408.408,0,0,0,.046,0l.1,0c.072,0,.144-.005.214-.011l.069-.005.081-.005c.1-.007.2-.018.3-.028s.223-.025.334-.041l.021,0c.116-.018.234-.035.348-.056a.114.114,0,0,1,.023,0c.095-.017.186-.035.279-.054s.2-.042.3-.067c.125-.03.251-.061.374-.1s.246-.068.367-.107c.216-.067.429-.141.638-.218.313-.118.62-.246.919-.383.2-.091.4-.188.59-.286l.081-.04c.107-.056.213-.112.313-.169.076-.042.148-.083.22-.125.1-.056.19-.114.281-.17,1.014-.633,1.727-1.288,2.576-1.891l.183-.126c.084-.058.171-.116.258-.172" transform="translate(-203.698 -541.448)" fill="#6c4022" fill-rule="evenodd"/>
    <path id="Path_213" data-name="Path 213" d="M30.532,814.888c-.005-.141-.009-.286-.011-.441,0,.155.007.3.011.441" transform="translate(-26.625 -710.485)" fill="#90552c" fill-rule="evenodd"/>
    <path id="Path_214" data-name="Path 214" d="M36.044,687.612l-.023,19.545A6.429,6.429,0,0,1,30.48,703q0-.511,0-1.109c0-.269,0-.55,0-.847,0-.246,0-.5,0-.766,0-.139,0-.276,0-.411,0-.105,0-.209.007-.313,0-.042,0-.084,0-.125,0-.063,0-.127.007-.188l.016-.337c.009-.146.018-.292.03-.434.009-.118.019-.234.03-.35,0-.041.007-.079.012-.12.012-.125.026-.25.04-.371.033-.274.072-.541.116-.8.021-.13.046-.26.07-.388.049-.257.1-.506.165-.754q.055-.222.116-.438c.019-.07.039-.137.06-.206s.033-.114.051-.171a.035.035,0,0,1,0-.014c.026-.084.053-.169.081-.251.035-.107.072-.214.111-.32.011-.035.023-.069.037-.1.023-.069.049-.135.076-.2q.066-.177.137-.348c.026-.065.055-.13.083-.2.018-.04.035-.081.055-.121s.035-.084.055-.126.025-.056.04-.086.023-.053.037-.081a.084.084,0,0,0,.005-.012c.025-.051.049-.1.076-.156s.056-.121.088-.181c.056-.116.114-.232.176-.346.03-.056.06-.114.091-.17s.06-.114.093-.17c.125-.227.257-.453.4-.678s.281-.452.434-.678c.062-.095.126-.19.192-.285s.13-.19.2-.285c.084-.123.174-.244.264-.367s.181-.246.274-.369v0q.248-.329.513-.666v0a2.2,2.2,0,0,1,1.315-1.039" transform="translate(-26.589 -599.84)" fill="#90552c" fill-rule="evenodd"/>
    <path id="Path_215" data-name="Path 215" d="M238.43,179.554a22.15,22.15,0,0,0-5.989-1.4c-7.446-.662-10.7,2.659-12.386,1.345a1.9,1.9,0,0,1-.223-2.617,6.755,6.755,0,0,1,2.493-1.192,26.422,26.422,0,0,1,6.271-1.242c3.163-.253,10.182.5,12.273,2.227,1.506,1.243.5,3.965-2.439,2.881" transform="translate(-191.405 -152.136)" fill="#483a4b" fill-rule="evenodd"/>
    <path id="Path_216" data-name="Path 216" d="M369.618,29.906c-.083.156-.169.311-.257.462s-.176.3-.267.45c-.074.119-.149.236-.225.352s-.137.207-.209.309l-.023.033c-.063.091-.128.181-.193.271q-.327.446-.68.856c-.088.1-.178.2-.267.3a12.411,12.411,0,0,1-.919.905c-.063.056-.128.112-.193.167s-.123.1-.185.155-.141.112-.211.167c-.046.037-.093.072-.141.107s-.077.058-.116.086c-.105.077-.211.153-.32.227l-.007,0c-.105.072-.213.142-.32.211l0,0c-.111.069-.22.135-.332.2-.065.037-.128.074-.193.109s-.116.065-.176.095c-.132.07-.267.139-.4.2-.091.044-.184.086-.278.128l-.067.028c-.1.042-.2.083-.3.123l-.112.044-.139.051c-.058.021-.114.042-.172.062-.04.014-.079.028-.12.04l-.112.037c-.095.03-.19.06-.286.088-.081.023-.162.046-.243.067-.269.07-.545.132-.824.183-.091.016-.183.032-.274.046s-.17.026-.257.037c-.025,0-.051.007-.077.009-.077.01-.156.019-.236.026s-.155.016-.234.021c-.134.012-.269.019-.4.026-.062,0-.125.005-.186.007-.116,0-.232.005-.35.005-.083,0-.165,0-.25,0s-.149,0-.225-.007c-.123,0-.246-.011-.373-.021-.09,0-.181-.012-.272-.019l-.074-.007c-.118-.011-.236-.025-.355-.039-.007-.019-.012-.037-.019-.058-.019-.06-.039-.127-.062-.2-.011-.033-.019-.065-.03-.1s-.021-.07-.032-.107c-.033-.109-.069-.228-.105-.353-.081-.269-.167-.566-.253-.866-.018-.058-.033-.114-.049-.172-.065-.23-.13-.459-.188-.673-.016-.055-.03-.107-.044-.158s-.023-.083-.033-.123c-.016-.06-.032-.118-.046-.174-.009-.035-.017-.069-.026-.1-.014-.056-.028-.109-.04-.158s-.019-.079-.028-.116-.018-.07-.025-.1c-.014-.065-.026-.119-.035-.165,2.882-2.494,4.631-3.7,9.359-3.6.311.007.652.019,1,.044q.211.016.422.037c.107.01.213.023.318.037.053.005.105.012.158.021s.125.019.186.03c.185.03.366.067.54.111.061.016.121.032.181.049s.095.026.141.042c.093.028.185.06.271.095Z" transform="translate(-311.209 -25.538)" fill="#c71e1e" fill-rule="evenodd"/>
    <path id="Path_217" data-name="Path 217" d="M167.285,32.9c-.014.072-.037.171-.067.29-.007.03-.014.061-.023.093-.032.128-.07.276-.114.438l-.067.248c-.141.513-.313,1.111-.464,1.624-.025.084-.049.169-.074.248s-.047.158-.069.23q-.024.082-.047.158c-.037.116-.069.22-.095.3-6.056.747-9.934-2.947-11.853-6.6l.78-.332.111-.026c.083-.018.172-.035.265-.049.072-.012.148-.025.221-.035a.153.153,0,0,0,.028,0l.193-.025c.063-.007.123-.016.178-.023.119-.016.237-.028.357-.04l.148-.016q.192-.018.385-.032c.134-.011.265-.019.4-.025a.167.167,0,0,1,.03,0c.134-.007.265-.012.4-.014.2-.005.394-.005.59,0,.051,0,.1,0,.153,0,.079,0,.158,0,.239.007a0,0,0,0,1,0,0,.049.049,0,0,1,.023,0c.09,0,.179.007.267.012s.153.009.228.014c.234.014.466.033.7.06.056.005.112.011.169.019.1.011.2.023.306.039.067.009.135.017.2.03s.151.021.227.035c.207.032.415.069.62.111.137.026.274.056.41.086s.276.067.409.1c.067.018.132.037.2.058.13.039.258.083.383.128q.084.029.169.063c.067.025.132.051.2.079.081.033.162.069.241.105.037.016.074.033.109.051.086.04.17.081.251.125s.165.086.244.13c.039.019.076.042.112.063.1.058.2.119.3.181s.2.123.288.186c.179.121.35.244.517.371q.1.074.2.153c.45.351.858.713,1.244,1.051.128.114.255.223.38.329" transform="translate(-134.702 -25.564)" fill="#c71e1e" fill-rule="evenodd"/>
    <path id="Path_218" data-name="Path 218" d="M284.546,62.02c0,.019,0,.04,0,.062a.131.131,0,0,1,0,.025c0,.042-.005.083-.009.123l-.011.1c-.005.044-.01.086-.017.128a3.221,3.221,0,0,1-.07.343c-.014.053-.028.105-.044.158s-.026.084-.039.125c-.021.062-.044.123-.069.183s-.04.1-.063.149-.037.083-.056.121c-.028.056-.056.113-.088.165s-.051.091-.079.135c0,0,0,0,0,.005q-.039.066-.084.132c-.028.042-.058.084-.088.125s-.058.079-.09.118-.063.081-.1.12a3.62,3.62,0,0,1-.453.444c-.021.018-.042.035-.065.051-.069.056-.137.107-.209.156s-.169.109-.255.158a3.327,3.327,0,0,1-.515.237c-.033.012-.067.025-.1.035l-.1.03c-.035.011-.072.021-.109.03s-.095.023-.142.033a4.28,4.28,0,0,1-1.077.088c-.032,0-.063,0-.095-.007-.051,0-.1-.009-.155-.014-.033,0-.065-.009-.1-.014a1.376,1.376,0,0,1-.146-.025c-.09-.016-.177-.035-.265-.06-.03-.007-.06-.016-.088-.025h0c-.086-.026-.172-.055-.255-.088h0a.959.959,0,0,1-.1-.04,1.8,1.8,0,0,1-.177-.083.525.525,0,0,1-.063-.032c-.049-.025-.1-.051-.144-.079l-.03-.016c-.03-.018-.06-.037-.088-.056a.061.061,0,0,1-.014-.009c-.039-.023-.076-.049-.112-.076-.072-.051-.141-.1-.207-.16-.035-.028-.069-.058-.1-.088-.069-.06-.135-.125-.2-.19-.083-.086-.16-.176-.234-.269a3.716,3.716,0,0,1-.362-.555c-.016-.028-.032-.06-.046-.088a3.6,3.6,0,0,1-.186-.425c-.019-.047-.035-.1-.051-.146s-.026-.083-.039-.125-.032-.109-.044-.164-.021-.086-.03-.128-.019-.093-.028-.141a3.782,3.782,0,0,1-.058-.506q-.005-.084-.005-.169v-.044c0-.044,0-.09,0-.134a.876.876,0,0,1,.005-.095c0-.021,0-.04,0-.061a2.433,2.433,0,0,1,.032-.276,1.345,1.345,0,0,1,.024-.142c.011-.058.023-.118.039-.176s.023-.091.037-.137c.019-.074.042-.146.069-.218.018-.049.037-.1.056-.148s.042-.1.065-.146.055-.112.084-.167a.3.3,0,0,1,.018-.033.045.045,0,0,1,.01-.018,1.1,1.1,0,0,1,.067-.114c.035-.06.074-.118.114-.176s.074-.1.112-.149.055-.069.083-.1.04-.047.063-.07.053-.058.081-.086l.074-.074c.028-.028.06-.056.091-.084a3.013,3.013,0,0,1,.244-.2c.042-.032.088-.062.132-.091s.079-.053.119-.077c.063-.039.13-.077.2-.112.039-.021.077-.042.118-.062.1-.049.211-.1.322-.141.056-.021.114-.042.172-.062s.118-.039.178-.056.121-.035.184-.051.127-.03.192-.044c.135-.028.267-.049.4-.063a3.675,3.675,0,0,1,.388-.021c.065,0,.128,0,.191.005s.125.009.186.016a.776.776,0,0,1,.091.011c.03,0,.06.009.09.014.072.01.144.025.214.04q.071.016.142.037c.06.016.118.033.176.053a.393.393,0,0,1,.06.021c.023.007.044.016.067.025.06.023.12.047.178.072s.119.055.177.084.1.055.153.084.1.058.148.09.1.063.142.1.091.067.137.1.088.072.132.109.084.076.125.114.081.077.121.119c.07.072.137.146.2.225s.123.156.179.237a3.679,3.679,0,0,1,.292.492c.019.039.037.077.055.116s.039.084.055.126.026.063.037.095c.028.072.053.144.076.218.012.04.023.079.033.119s.028.1.039.156a3.916,3.916,0,0,1,.088.947" transform="translate(-241.804 -50.766)" fill="#f44235" fill-rule="evenodd"/>
    <path id="Path_219" data-name="Path 219" d="M121.318,373.037q-.1-.09-.2-.185c-.065-.061-.13-.128-.2-.2v0c-.084-.088-.171-.179-.257-.274v0c-.084-.095-.169-.192-.253-.292-.042-.051-.084-.1-.125-.153v0c-.22-.274-.434-.568-.64-.879-.039-.062-.081-.125-.12-.19-.021-.032-.04-.063-.06-.095-.04-.065-.081-.13-.119-.2s-.1-.165-.142-.25-.093-.169-.139-.255-.091-.172-.134-.262-.084-.169-.125-.255c-.086-.183-.167-.371-.246-.562s-.148-.376-.216-.569c-.033-.1-.067-.2-.1-.3-.063-.2-.123-.4-.176-.6-.077-.292-.144-.59-.2-.9-.009-.044-.016-.09-.023-.135q-.026-.15-.047-.306c-.014-.095-.026-.19-.037-.286s-.021-.192-.03-.288-.019-.221-.025-.332c-.007-.093-.011-.188-.014-.283a11.263,11.263,0,0,1,.077-1.761c.083-.032.163-.058.242-.081.032-.011.065-.019.1-.028s.074-.019.111-.028.091-.019.137-.028a2.5,2.5,0,0,1,.249-.035c.035,0,.07-.007.106-.009a1.032,1.032,0,0,1,.1-.005,2.347,2.347,0,0,1,.248,0c.033,0,.069,0,.1.007a.486.486,0,0,1,.051,0c.044,0,.086.009.128.016s.09.012.134.021a.027.027,0,0,1,.012,0c.044.007.088.016.13.026s.09.021.134.033a1.151,1.151,0,0,1,.112.032c.03.009.062.019.091.03a.571.571,0,0,1,.06.019c.074.026.146.055.218.084s.142.061.213.095a0,0,0,0,1,0,0c.093.042.185.091.274.141,0,0,0,0,0,0,.065.037.128.074.191.112s.114.069.171.107a.637.637,0,0,1,.063.042.378.378,0,0,1,.047.032l.047.032v0a67.751,67.751,0,0,1,.058,9.173" transform="translate(-102.674 -316.681)" fill="#6c4022" fill-rule="evenodd"/>
    <path id="Path_220" data-name="Path 220" d="M465.487,373.179l-.049-.814v-7.59c0-.039,0-.076.005-.112a.379.379,0,0,1,.007-.065.431.431,0,0,1,.007-.051v0c0-.021.007-.042.012-.063a1.194,1.194,0,0,1,.081-.243.628.628,0,0,1,.03-.062.638.638,0,0,1,.033-.06,1.333,1.333,0,0,1,.183-.241.543.543,0,0,1,.046-.046,1.4,1.4,0,0,1,.163-.139c.026-.021.055-.04.084-.06s.088-.056.135-.083.081-.044.123-.063.083-.039.125-.056h0c.063-.026.128-.049.2-.072.046-.016.091-.03.139-.042.032-.009.062-.017.093-.025a.881.881,0,0,1,.091-.021c.063-.014.127-.026.192-.037s.142-.023.214-.03c.047-.005.095-.009.141-.012s.1-.005.149-.007a3.839,3.839,0,0,1,.933.076c.037.007.072.016.109.025a2.8,2.8,0,0,1,.3.1,11.7,11.7,0,0,1-3.548,9.8" transform="translate(-406.026 -316.821)" fill="#6c4022" fill-rule="evenodd"/>
    <path id="Path_221" data-name="Path 221" d="M30.532,814.888c-.005-.141-.009-.286-.011-.441,0,.155.007.3.011.441" transform="translate(-26.625 -710.485)"/>
    <rect id="Rectangle_757" data-name="Rectangle 757" width="0.002" height="0.042" transform="translate(9.432 107.317)"/>
    <path id="Path_222" data-name="Path 222" d="M154.851,840.867v.021l-3.776.014-48.014-.01v-.025Z" transform="translate(-89.905 -733.532)"/>
    <path id="Path_223" data-name="Path 223" d="M40.379,732.393a.581.581,0,0,1,.032-.069c.007-.018.014-.035.023-.053-.019.041-.037.081-.055.121" transform="translate(-35.225 -638.799)"/>
    <path id="Path_224" data-name="Path 224" d="M77.884,98.217a20.311,20.311,0,0,0-.9-4.481c-2.587-7.671-9.829-14.12-18.19-14.12H52.072c0-7.413-.436-3.265,3.829-11.783.671-1.341,1.077-2.329,1.654-3.77.768-1.917.5-2.61,2.323-3.1,3.622,6.845,12.577,3.9,12.577-2.6,0-3.357-2.826-6.506-6.072-6.506.039-1.743,1.239-5.564-.4-7.627-.886-1.118-.935-.309-.914-2.337.086-8.766-3.828-17.55-10.787-22.178L50.193,17.3a15.174,15.174,0,0,0-5.061-1.661c.214-.8.218-.281.434-1.084,2.46,1.179,8.8-.448,11.432-2.662,2.024-1.708,6.133-6.734,6.133-9.048,0-1.634-1.8-1.91-3.23-2.191-4.307-.847-8.873-1.174-12.821.887A13.547,13.547,0,0,0,42.963,4.8a7.381,7.381,0,0,0-7.806,0C33.53,2.374,28.868.029,25.181.029,22.828.029,14.99.052,14.99,2.848c0,1.3,1.782,4.024,2.513,5.077a14.5,14.5,0,0,0,8.405,6.34c1.3.424,5.179,1,6.646.293.214.8.218.279.434,1.084-2.61.058-7.3,2.75-9.019,3.994A26.2,26.2,0,0,0,13.043,41.673c.03,2.019.142,1.346-.81,2.441-1.42,1.634-1.107,6.021-.281,7.745a6.5,6.5,0,0,0-6.286,6.506,6.578,6.578,0,0,0,12.576,2.6c2.156.5,1.836,2.624,3.975,6.868.641,1.272,1.121,2.4,1.836,3.587,2.548,4.212,2,2.211,2,8.2-6.144,0-9.332-.538-14.893,2.239A20.37,20.37,0,0,0,1.19,93.574,25.984,25.984,0,0,0,.3,98.01C.149,99.156.04,100.4,0,101.628a9.941,9.941,0,0,0,9.9,9.221H68.15a9.943,9.943,0,0,0,9.92-9.446c-.028-1.1-.083-2.163-.186-3.186M54.9,3.743c.311.007.652.019,1,.044.139.011.281.021.422.037.107.011.213.023.318.037q.079.008.158.021c.063.009.125.019.186.03.185.03.366.067.54.111.061.016.121.032.181.049s.095.026.141.042c.093.028.185.06.271.095l.3.158c-.083.156-.169.311-.257.462s-.176.3-.267.45c-.074.12-.148.236-.225.352s-.137.207-.209.309l-.023.033c-.063.091-.128.181-.193.271q-.327.446-.68.856c-.088.1-.178.2-.267.3a12.379,12.379,0,0,1-.919.905c-.063.056-.128.112-.193.167s-.123.1-.185.155-.141.112-.211.167c-.046.037-.093.072-.141.107s-.077.058-.116.086c-.105.077-.211.153-.32.227l-.007,0c-.105.074-.213.142-.32.211l0,0c-.111.069-.22.135-.332.2-.065.037-.128.074-.193.109s-.116.065-.176.095c-.132.07-.267.139-.4.2-.091.044-.184.086-.278.128l-.067.028c-.1.042-.2.084-.3.123l-.112.044-.139.051c-.058.021-.114.042-.172.062-.04.014-.079.028-.12.04l-.112.037c-.095.03-.19.06-.286.088-.081.023-.162.046-.243.067-.269.07-.545.132-.824.183-.091.016-.183.032-.274.046s-.171.026-.257.037c-.025,0-.051.007-.077.009-.077.01-.156.019-.236.026s-.155.016-.234.021c-.134.012-.269.019-.4.026-.062,0-.125.005-.186.007-.116,0-.232.005-.35.005-.083,0-.165,0-.25,0s-.149,0-.225-.007c-.123,0-.246-.011-.373-.021-.09,0-.181-.011-.272-.019l-.074-.007c-.118-.011-.236-.025-.355-.039h0c-.005-.019-.012-.037-.017-.058-.019-.06-.039-.127-.062-.2-.011-.033-.019-.065-.03-.1s-.021-.07-.032-.107c-.033-.111-.07-.228-.105-.353-.081-.269-.167-.566-.253-.866-.018-.058-.033-.114-.049-.172-.065-.23-.13-.459-.188-.673-.016-.054-.03-.107-.044-.158s-.023-.083-.033-.123c-.016-.06-.032-.118-.046-.174-.009-.035-.017-.069-.026-.1-.014-.056-.028-.109-.04-.158s-.019-.079-.028-.116-.018-.07-.025-.1c-.014-.065-.026-.119-.035-.165,2.882-2.494,4.631-3.7,9.36-3.6M32.583,7.335c-.014.072-.037.17-.067.29-.007.03-.014.062-.023.093-.032.128-.07.276-.114.438-.021.079-.042.162-.067.248-.141.513-.313,1.111-.464,1.624-.025.084-.049.169-.074.248s-.047.158-.069.23q-.024.082-.047.158c-.037.116-.069.22-.095.3-6.056.747-9.934-2.947-11.853-6.6l.78-.332c.033-.009.072-.019.111-.026.083-.018.172-.035.265-.049.072-.012.148-.025.221-.035a.15.15,0,0,0,.028,0L21.31,3.9l.177-.023c.12-.016.237-.03.357-.04l.148-.016q.192-.018.385-.032c.134-.01.265-.019.4-.025a.167.167,0,0,1,.03,0c.134-.007.265-.012.4-.014.2-.005.394-.005.59,0,.051,0,.1,0,.153,0,.081,0,.16,0,.239.007a0,0,0,0,1,0,0,.049.049,0,0,1,.023,0c.09,0,.179.007.267.012s.153.007.228.014c.234.014.466.033.7.06.056.005.112.011.169.019.1.01.2.023.306.039.069.007.137.017.2.03s.151.021.227.035c.207.032.415.069.62.111.137.026.274.056.409.086s.276.067.409.1c.067.018.132.037.2.058.13.039.258.083.383.128.058.019.112.04.169.063s.132.051.2.079c.083.033.162.069.241.105.037.016.074.033.109.051.086.04.17.081.251.125s.165.084.244.13c.039.019.076.042.112.063.1.058.2.118.3.181s.2.123.288.186c.179.121.35.244.517.371q.1.074.2.153c.45.351.858.713,1.244,1.051.128.111.255.221.38.327ZM3.9,103.962c0,.155.007.3.01.441-.005-.141-.009-.286-.01-.441m5.537,3.355v.042h0v-.042a6.429,6.429,0,0,1-5.541-4.161q0-.511,0-1.109c0-.269,0-.55,0-.847,0-.246,0-.5,0-.766,0-.139,0-.276,0-.411,0-.106,0-.209.007-.313,0-.042,0-.084,0-.125,0-.063,0-.127.007-.188.005-.114.01-.225.016-.337.009-.146.018-.292.03-.434.009-.118.018-.236.03-.35,0-.04.007-.079.012-.119.012-.125.026-.25.04-.371.033-.274.072-.541.116-.8.021-.13.046-.26.07-.388.049-.257.1-.506.165-.754q.055-.222.116-.438c.019-.07.039-.137.06-.206s.033-.114.051-.17a.034.034,0,0,1,0-.014c.026-.084.053-.169.081-.251.035-.107.072-.214.111-.32.011-.035.023-.069.037-.1.023-.069.049-.135.076-.2q.066-.177.137-.348c.026-.065.055-.13.083-.2.018-.04.035-.081.055-.121s.035-.084.055-.127.025-.056.04-.086.023-.053.037-.081a.083.083,0,0,0,.005-.012c.023-.053.047-.1.076-.156s.056-.121.088-.181c.056-.116.114-.232.176-.346.028-.058.058-.114.091-.171s.06-.114.093-.17c.125-.227.257-.453.4-.678s.281-.452.434-.678c.062-.095.127-.19.192-.285s.13-.19.2-.285c.084-.123.174-.244.264-.367s.179-.246.274-.369v0q.248-.33.513-.666v0a2.2,2.2,0,0,1,1.315-1.039h0ZM64.161,56.574c1.346-1.933,4.392-.96,4.392,2.007,0,3.2-5.421,3.335-5.421-.436,0,0,.961-1.473,1.03-1.571m-2.647-10.2c.051,0,.1-.007.149-.007a3.851,3.851,0,0,1,.933.076c.037.007.072.016.109.025a2.475,2.475,0,0,1,.3.095v0a11.7,11.7,0,0,1-3.548,9.8l-.049-.814v-7.59c0-.039,0-.076.005-.112a.394.394,0,0,1,.007-.065.258.258,0,0,1,.007-.051v0c0-.021.007-.042.012-.063a1.189,1.189,0,0,1,.081-.243c.009-.021.019-.042.03-.062a.639.639,0,0,1,.033-.06,1.337,1.337,0,0,1,.183-.241.57.57,0,0,1,.046-.046,1.389,1.389,0,0,1,.164-.139.992.992,0,0,1,.084-.06c.044-.03.088-.056.135-.083s.081-.044.123-.063.083-.039.125-.056h0c.063-.026.128-.051.2-.072.046-.016.091-.03.139-.042.032-.009.062-.018.093-.025a.844.844,0,0,1,.091-.021c.063-.014.126-.026.191-.037s.142-.023.214-.03c.047-.005.095-.009.141-.012M35.382,11.011c0-.044,0-.09,0-.134a.844.844,0,0,1,.005-.095c0-.021,0-.04,0-.062a2.444,2.444,0,0,1,.032-.276,1.318,1.318,0,0,1,.025-.142c.01-.058.023-.118.039-.176s.023-.091.037-.137c.019-.074.042-.146.069-.218.017-.049.037-.1.056-.148s.042-.1.065-.146.055-.113.084-.167a.156.156,0,0,1,.018-.033.046.046,0,0,1,.011-.017,1.056,1.056,0,0,1,.067-.114c.035-.06.074-.118.114-.176s.074-.1.112-.149.054-.069.083-.1.04-.047.063-.07.053-.058.081-.086l.074-.074c.028-.028.06-.056.091-.084a3.025,3.025,0,0,1,.244-.2c.042-.032.088-.062.132-.091s.079-.053.119-.077c.063-.039.13-.077.2-.112.039-.023.077-.042.118-.061a3.338,3.338,0,0,1,.322-.141c.056-.023.114-.044.172-.062s.118-.04.177-.056.121-.037.185-.051.126-.032.191-.046a3.6,3.6,0,0,1,.4-.062,3.639,3.639,0,0,1,.388-.021c.065,0,.128,0,.192.005s.125.009.186.016a.752.752,0,0,1,.091.01c.03,0,.06.009.09.014.072.011.144.025.214.04q.071.016.142.037c.06.016.118.033.176.053a.4.4,0,0,1,.06.021c.023.007.044.016.067.025.06.021.119.046.177.072s.119.054.178.084.1.055.153.084.1.058.148.09.1.063.142.1.093.067.137.1.088.07.132.109.084.074.125.114.081.077.121.12a3,3,0,0,1,.2.225q.095.116.179.237a3.7,3.7,0,0,1,.292.492c.019.039.037.077.055.116s.039.084.054.126.026.063.037.095c.028.072.053.144.076.218.012.04.023.079.033.12s.028.1.039.156a3.913,3.913,0,0,1,.088.947c0,.019,0,.04,0,.062a.123.123,0,0,1,0,.025c0,.042-.005.083-.009.123l-.01.1c0,.042-.011.086-.018.128a3.216,3.216,0,0,1-.07.343,1.487,1.487,0,0,1-.044.158c-.011.042-.025.084-.039.125-.021.062-.044.123-.069.183s-.04.1-.063.149-.037.083-.056.121c-.028.056-.056.112-.088.165s-.051.091-.079.135c0,0,0,0,0,.005-.025.044-.055.088-.084.132a1.491,1.491,0,0,1-.088.125c-.028.04-.058.079-.09.118a1.537,1.537,0,0,1-.1.119,3.61,3.61,0,0,1-.453.445c-.021.018-.042.035-.065.051-.069.056-.137.107-.209.156s-.169.109-.255.158a3.328,3.328,0,0,1-.515.237c-.033.012-.067.025-.1.035s-.065.021-.1.03-.072.021-.109.03-.095.023-.142.033a4.275,4.275,0,0,1-1.077.088c-.032,0-.063,0-.095-.007a1.466,1.466,0,0,1-.155-.014.936.936,0,0,1-.1-.014,1.305,1.305,0,0,1-.146-.025,2.709,2.709,0,0,1-.265-.06.835.835,0,0,1-.088-.025h0A2.553,2.553,0,0,1,37.7,14.6h0a.906.906,0,0,1-.1-.04,1.8,1.8,0,0,1-.178-.083.269.269,0,0,1-.063-.032,1.285,1.285,0,0,1-.144-.079l-.03-.016c-.03-.017-.06-.037-.088-.056a.065.065,0,0,1-.014-.009c-.039-.023-.076-.049-.112-.076-.072-.051-.141-.1-.207-.16a1.173,1.173,0,0,1-.1-.088c-.069-.06-.135-.125-.2-.19-.083-.086-.16-.176-.234-.269a3.717,3.717,0,0,1-.362-.555.722.722,0,0,1-.046-.088,3.641,3.641,0,0,1-.186-.425c-.019-.047-.035-.1-.051-.146s-.028-.083-.039-.125-.032-.109-.044-.163-.021-.086-.03-.128-.021-.093-.028-.141a3.782,3.782,0,0,1-.058-.506q-.005-.084-.005-.169ZM12.6,60.965c-5.205,0-2.94-6.82.573-5.126a7.118,7.118,0,0,1,1.813,2.306c0,1.315-1.061,2.821-2.386,2.821m6.04-4.609v0c-.065-.06-.13-.121-.2-.186s-.13-.128-.2-.2v0c-.088-.09-.172-.181-.257-.274v0c-.086-.095-.17-.192-.253-.292-.042-.051-.084-.1-.125-.153v0c-.221-.274-.436-.568-.64-.879-.039-.062-.081-.125-.119-.19-.021-.032-.04-.063-.06-.095-.04-.065-.081-.13-.119-.2s-.1-.165-.142-.25-.095-.169-.139-.255-.091-.172-.134-.262-.084-.169-.125-.255c-.086-.183-.167-.371-.246-.562s-.149-.376-.216-.569c-.033-.1-.067-.2-.1-.3-.065-.2-.123-.4-.176-.6q-.116-.438-.2-.9c-.009-.044-.016-.09-.023-.135q-.026-.15-.047-.306c-.014-.095-.026-.19-.037-.286s-.021-.192-.03-.288-.019-.221-.025-.332c-.007-.093-.01-.188-.014-.283a11.293,11.293,0,0,1,.077-1.761c.083-.032.163-.058.243-.081.033-.011.067-.021.1-.028s.074-.019.111-.028.091-.021.137-.028a2.5,2.5,0,0,1,.25-.035.714.714,0,0,1,.105-.009c.035,0,.07-.005.1-.005a2.35,2.35,0,0,1,.248,0,.654.654,0,0,1,.1.007.491.491,0,0,1,.051,0,1.03,1.03,0,0,1,.128.016.846.846,0,0,1,.134.021.028.028,0,0,1,.012,0c.044.007.088.016.13.026a1.149,1.149,0,0,1,.134.033c.039.009.076.019.112.032l.091.03a.628.628,0,0,1,.06.019c.074.025.146.053.218.084s.142.06.213.095c0,0,0,0,0,0,.093.042.185.091.274.141,0,0,0,0,0,0,.065.035.128.074.191.112s.114.069.171.107a.666.666,0,0,1,.063.042.387.387,0,0,1,.047.032l.047.032v0a67.752,67.752,0,0,1,.058,9.173m.494-13.163c-1.109-.3-2.116-.367-2.283-.877,0-9.052,3.242-14.66,8.07-18.693a22.055,22.055,0,0,1,20.2-4.218c4.87,1.1,8.746,4.4,11.681,7.985,3.019,3.685,4.46,8.9,4.46,14.925-.462.631-.132.279-1.056.541-.46.13-.8.221-1.227.336a16.477,16.477,0,0,0-1.74-4.566,15.154,15.154,0,0,0-3.316-4.235c-3.914-4.007-12.242-5.168-18.113-4.6-8.021.779-15.187,5.309-16.675,13.4M23.956,62.4c-1.527-3.9-1.578-4.441-1.59-9.029-.005-3.079-.253-7.514.561-10.284,2.69-9.18,13.315-10.931,22.012-9.117,4.915,1.165,8.456,4,9.992,8.3,1.01,2.821,1.329,13.987.4,16.962A55.83,55.83,0,0,1,49.541,71.66c-2.012,3.2-5.316,7.567-10.365,7.941-7.667-.3-12.769-10.932-15.22-17.2M48.313,79.227c0,.221,0,.436,0,.641,0,.722-.017,1.351-.063,1.917-.005.081-.012.16-.021.239-.012.135-.028.269-.046.4-.014.111-.032.22-.051.325s-.033.193-.055.288c-.009.047-.019.095-.032.141s-.021.093-.033.139c-.021.083-.044.163-.069.244s-.049.16-.077.239-.054.156-.088.234a1.041,1.041,0,0,1-.047.114c-.014.039-.032.077-.049.116-.03.069-.062.137-.1.2a5.554,5.554,0,0,1-.348.6c-.042.067-.088.135-.137.2-.033.051-.07.1-.109.151-.111.151-.232.3-.365.459-.051.061-.105.123-.162.186s-.111.125-.17.188-.119.126-.181.192c-1.608,1.666-4.031,2.4-7.05,2.4h-.01c-.149,0-.3,0-.439-.005s-.293-.009-.436-.016c-.3-.014-.59-.037-.872-.067-.091-.009-.183-.019-.272-.032-.139-.018-.276-.037-.409-.06-.084-.012-.169-.028-.251-.044-.062-.01-.123-.023-.185-.035-.017,0-.033-.007-.049-.009l-.19-.042c-.069-.016-.137-.032-.206-.049s-.137-.033-.2-.053c-.22-.058-.434-.125-.641-.2-.067-.023-.132-.047-.2-.072s-.105-.039-.156-.06-.1-.04-.151-.063-.083-.035-.123-.053c-.06-.026-.118-.053-.176-.081-.079-.037-.156-.076-.232-.114s-.167-.088-.249-.135c-.053-.028-.1-.058-.155-.09s-.118-.07-.176-.107c-.125-.079-.248-.162-.367-.248-.06-.042-.121-.086-.179-.134a7.8,7.8,0,0,1-.678-.583c-.053-.053-.107-.105-.16-.16a9.155,9.155,0,0,1-.636-.72q-.071-.09-.137-.179c-.088-.118-.17-.235-.246-.355l-.088-.141c-.028-.046-.056-.093-.081-.139s-.056-.1-.081-.146c-.06-.109-.114-.218-.163-.329-.021-.044-.039-.088-.058-.132-.028-.065-.054-.132-.079-.2-.009-.021-.016-.04-.023-.062-.035-.095-.069-.19-.1-.285-.044-.139-.084-.281-.118-.427-.019-.072-.035-.144-.049-.218-.012-.056-.023-.114-.033-.172-.017-.093-.033-.19-.047-.286-.012-.076-.023-.151-.032-.228a.117.117,0,0,1,0-.025c-.009-.074-.018-.149-.025-.227s-.016-.142-.021-.216c-.014-.164-.026-.329-.035-.5-.007-.114-.011-.23-.016-.35,0-.021,0-.042,0-.063-.005-.132-.009-.269-.01-.41,0-.026,0-.053,0-.079q-.005-.3-.005-.611c0-.2,0-.406,0-.619q.163.106.327.216c.749.5,1.464,1.067,2.227,1.6.09.063.181.127.272.188.327.221.662.438,1.016.64.088.051.177.1.269.149.183.1.371.2.564.286.093.042.186.086.281.128a.188.188,0,0,1,.018.007c.141.061.286.119.434.176s.311.114.471.167q.161.053.327.1c.056.016.111.032.167.046l.2.053c.1.026.209.049.316.072q.132.029.269.053c.054.011.111.021.169.03s.114.019.171.028l.158.023.16.021q.169.021.343.037c.216.019.438.033.666.042.141.005.283.009.429.009h.047c.1,0,.2,0,.3-.005a.393.393,0,0,0,.046,0l.1,0c.072,0,.144-.005.214-.011l.069-.005.081-.005c.1-.007.2-.017.3-.028s.223-.025.334-.04l.021,0c.116-.018.234-.035.348-.056a.116.116,0,0,1,.023,0c.095-.018.186-.035.279-.055s.2-.042.3-.067c.125-.03.251-.062.374-.1s.246-.07.367-.107c.216-.067.429-.141.638-.218.313-.118.62-.246.919-.383.2-.091.4-.188.59-.286l.081-.04c.107-.056.213-.112.313-.169.076-.042.148-.083.22-.125.1-.056.19-.114.281-.171,1.014-.633,1.727-1.288,2.576-1.891l.183-.126c.084-.058.171-.116.258-.172m16.633,28.107v.021l-3.777.014-48.014-.011V84.96l3.69-1.244a13.252,13.252,0,0,1,3.71-.345c0,2.8-.009,5.594,0,8.39a9.694,9.694,0,0,0,.629,3.785c.633,1.488,1.281,1.727,1.708,2.5,2.8,1.977,3.569,1.91,7.713,1.91q4.879,0,9.759,0c6.518,0,13.113.1,19.622-.012a10.472,10.472,0,0,1,2.079.218c.095.023.188.046.279.07,2.81.775,2.745,3.1,2.6,7.1m9.284-4.365a6.429,6.429,0,0,1-5.544,4.342c0-.065-.005-.128-.005-.193-.011-.25-.018-.5-.023-.754-.074-2.954,0-6.042.012-8.976.005-1.52-.177-2.966-1.854-2.968-1.6,0-1.812,1.306-1.868,2.749a14.932,14.932,0,0,0-6.154-.912H38.408c-15.772,0-14.159,1.757-14.154-12.957h2.063c2.23,12.512,23.473,12.291,25.483,0,2.977,0,6.541-.223,9.321.415,5.425.87,9.481,5.116,11.437,9.027a17.6,17.6,0,0,1,1.664,8.558c0,.617,0,1.17.007,1.668Z" transform="translate(0 0)" fill="#483a4b"/>
    <path id="Path_225" data-name="Path 225" d="M154.851,840.867v.021l-3.776.014-48.014-.01v-.025Z" transform="translate(-89.905 -733.532)"/>
  </g>
</svg>
