<svg id="Group_148" data-name="Group 148" xmlns="http://www.w3.org/2000/svg" xmlns:xlink="http://www.w3.org/1999/xlink" width="118.294" height="118.447" viewBox="0 0 118.294 118.447">
  <defs>
    <clipPath id="clip-path">
      <rect id="Rectangle_755" data-name="Rectangle 755" width="118.294" height="118.447" fill="none"/>
    </clipPath>
  </defs>
  <g id="Group_147" data-name="Group 147" clip-path="url(#clip-path)">
    <path id="Path_169" data-name="Path 169" d="M156.317,149.9a27.665,27.665,0,0,0,.631,23.524c1.155,2.243,2.345,2.3.875,4.982-10.881,19.838-38.672,13.5-41.524-7.1-1.121-8.093-3.882-3.309-6.135-8.112-.81-1.727-3.23-11.522-.09-11.9,2.343-.282,2.19,2.737,2.6,4.295.572,2.155,3.568,2.075,3.836-.48.915-8.667-2.272-11.1,3.193-11.5a73.052,73.052,0,0,0,23.1-5.69c4.765-2.222,4.8-4.038,10.189-.572,2.535,1.629,6.874,6.464,5.892,8.227a17.12,17.12,0,0,0-2.568,4.328" transform="translate(-90.952 -113.499)" fill="#9e725c" fill-rule="evenodd"/>
    <path id="Path_170" data-name="Path 170" d="M166.87,46.2c-1.814.906-2.712,2.468-4.385,3.14-1.107-3.36-6.043-7.4-9.845-8.989-5.951-2.481-5.707.157-13.839,3.266-18.151,6.936-25.409.205-25.488,11.906l-3.875-.01c-.677-8.156,3.629-15.412,7.227-19.78,9.135-11.089,26.84-13.382,38.773-5.159,4.548,3.134,10.707,10.137,11.43,15.625" transform="translate(-91.672 -21.495)" fill="#5a473f" fill-rule="evenodd"/>
    <path id="Path_171" data-name="Path 171" d="M492.9,198.01a15.828,15.828,0,0,0-11.589-10.862c-2.535-.562-4.719.278-5.431-2.023-2-.382-4.422.77-5.84,1.449-.246.839.081,1.215-.474,2.013-.368.937-11.82,8.212-6.053,20.636,2.765,5.955,10.722,11.588,19.928,8.064A15.711,15.711,0,0,0,492.9,198.01m-22.659-2.4a11.775,11.775,0,0,1,3.067-2.794,1.927,1.927,0,0,1,2.061,3.042c-4.069,5.164-6.166,1.537-5.128-.248m16.961,2.4-7.772,7.678c-1.3,1.3-2.589,2.771-3.94,3.951-2.2,1.923-4.579-.263-3.126-2.51l7.721-7.765c1.286-1.286,2.6-2.792,3.938-3.95,2.387-2.071,4.5.72,3.18,2.595" transform="translate(-387.154 -155.108)" fill="#729ab0" fill-rule="evenodd"/>
    <path id="Path_172" data-name="Path 172" d="M53.9,564.084l-23.352.1a7.018,7.018,0,0,1-5.88-6.68,22.036,22.036,0,0,1,4.775-13.01c2.41-3.172,10.256-8.83,16.85-7.817.973,12.223,1.965,18.945,7.607,27.409" transform="translate(-20.678 -449.739)" fill="#5a5a5a" fill-rule="evenodd"/>
    <path id="Path_173" data-name="Path 173" d="M440.447,147.1a23.652,23.652,0,1,0,20.629,26.209A23.665,23.665,0,0,0,440.447,147.1m2.445,42.462c-11.73,3.268-21.21-4.393-24-12.737-5.166-15.435,11.369-28.564,10.467-20.189.555-.8.228-1.175.474-2.013,1.418-.679,3.84-1.831,5.84-1.449.161-1.957.758-2.33,2.8-2.284a17.312,17.312,0,0,1,4.2.649A19.749,19.749,0,0,1,456.8,166.263c2.675,11.683-5.26,20.885-13.912,23.3" transform="translate(-346.949 -123.156)" fill="#5a5a5a" fill-rule="evenodd"/>
    <path id="Path_174" data-name="Path 174" d="M116.823,38.516A27.673,27.673,0,0,0,81.715,21.223c-1.1.363-1.977.81-2.913,1.029-1.428-2.975-.578-2.055-3.046-6.356A25.72,25.72,0,0,0,71.6,10.65C67.833,6.906,65.827,5.12,60.613,2.834A33.03,33.03,0,0,0,30.1,4.785c-10.645,6.414-16.5,17.2-16.5,30.508,0,5.579-.71,15.086,4.33,19.325a6.157,6.157,0,0,0,3.253,1.6c0,7.673,5.5,17.111,12.131,20.623v2.122a11.122,11.122,0,0,0-5.118,2.161c-2.243,1.716-1.259,1.533-5.491,1.789a22.565,22.565,0,0,0-4.059.793A24.929,24.929,0,0,0,6.663,91.137C4.616,93.6,4.3,93.582,2.677,96.856a22.908,22.908,0,0,0-2.562,7.832c-.05.426-.088.856-.115,1.293l.152,1.637a10.856,10.856,0,0,0,10.843,10.753H81.673a1.92,1.92,0,0,0,1.915-1.8c0-.038,0-.078,0-.119a1.919,1.919,0,0,0-1.919-1.919H79.086c-1.338-.359-3.508-.069-6.957-.069-3.746,0-7.571.077-11.307-.025a49.226,49.226,0,0,0,3.347-5.521,46.431,46.431,0,0,0,2.339-6.421c1.531-5.163,1.921-10.049,2.4-15.57,5.433-.818,10.434,2.69,13.789,4.784.2,3.888-.175,18.078.178,20.135.432,2.516,1.5,3.121,2.428,4.725,5.98,4.333,13.184.639,13.221-5.748l-.015-22.761c0-2.082.539-5.705-.409-7.172-.844-1.307-1.322-.472-1.434-2.51-.063-1.19.023-2.733.023-3.967,5.794-.482,14.059-6.761,17.276-12.142a27.516,27.516,0,0,0,2.854-23.757M24.994,14.239C34.129,3.151,51.835.857,63.768,9.08c4.548,3.134,10.707,10.137,11.43,15.625-1.814.906-2.712,2.468-4.385,3.14-1.107-3.36-6.043-7.4-9.845-8.989-5.951-2.481-5.707.158-13.839,3.266-18.151,6.936-25.409.205-25.488,11.906l-3.875-.009c-.677-8.156,3.629-15.412,7.227-19.78M25.348,57.8c-1.121-8.093-3.882-3.309-6.135-8.112-.81-1.727-3.23-11.522-.09-11.9,2.343-.282,2.19,2.737,2.6,4.3.572,2.155,3.568,2.074,3.836-.48.915-8.667-2.272-11.1,3.194-11.5a73.058,73.058,0,0,0,23.1-5.69c4.765-2.222,4.8-4.038,10.189-.572,2.535,1.629,6.874,6.464,5.892,8.227A17.123,17.123,0,0,0,65.365,36.4,27.665,27.665,0,0,0,66,59.925c1.155,2.243,2.345,2.3.875,4.982C55.99,84.745,28.2,78.406,25.348,57.8m31.78,21.269c-.061,4.667-7.436,7.567-9.872,7.584-2.057.013-9.837-2.794-9.862-7.567,10.9,2.5,8.694,2.593,19.734-.017M30.184,84.645A6.36,6.36,0,0,1,34.22,83.09c3.2,3.241.706,1.942,6.341,5.579a1.687,1.687,0,0,1-.391.5c-1.5,1.593-2.148,1.368-3.813,4.627-2.946-.94-8.411-6.77-6.172-9.148m-20.312,29.8a7.018,7.018,0,0,1-5.88-6.68,22.037,22.037,0,0,1,4.775-13.01c2.41-3.172,10.256-8.83,16.85-7.817.973,12.223,1.965,18.945,7.607,27.409Zm30.084-9.753c-.472,2.151-1.246,7.112-2.1,8.509-2.134-1.251-4.005-4.763-5.118-7.888-.758-2.134-2.537-8.407-2.349-10.741a25.116,25.116,0,0,0,4.149,2.875c2.648,1.445,2.806,1.641,4.834.108,2.716,2.094,1.409,3.341.58,7.137m1.915,9.755,3.026-13.81,4.662-.029,3.122,13.756ZM51.2,95.939c-1.257,1.151-6.629,1.149-7.876.006a7.951,7.951,0,0,1-2.051-2.424c2.675-3.418,9.4-3.451,11.991,0A7.51,7.51,0,0,1,51.2,95.939m5.5,16.965c-1.128-1.376-1.347-4.782-1.779-6.7-.438-1.944-1.432-5.452-1.4-7.327l1.595-1.38c3.362,2.819,5.155-1.015,8.958-2.639-.716,6.7-3.852,14.944-7.373,18.049m1.476-19.087c-1.737-3.585-3.155-3.587-4.27-5.235,3.441-1.543,4.213-3.1,6.4-5.5a6.232,6.232,0,0,1,4,1.593c2.34,2.307-3.193,8.1-6.135,9.139M83.581,80.408c-1.28,1.345-.837,3.654-.837,6.139-1.754-.409-6.011-3.4-10.923-3.635-4.443-.213-3.393-.182-5.491-1.787a11.251,11.251,0,0,0-5.118-2.161V76.842l3.972-3c1.555-1.3,4.665-5.285,5.126-7l1.716,1.013c3.2,2.855,8.513,6.233,12.537,6.567,0,4.646.541,4.391-.982,5.993m11,28.894c0,2.9-1.017,5.109-3.957,5.122-5.279.027-3.946-7.538-3.946-13.624,0-5.592-.347-12.39.058-17.836l7.782-.056c.393,5.79.069,19.275.063,26.393M88.639,74.936l3.963.04-.029,3.992h-3.84Zm25.488-24.784A23.656,23.656,0,1,1,93.5,23.944a23.67,23.67,0,0,1,20.628,26.209" transform="translate(0 0)" fill="#483a4b" fill-rule="evenodd"/>
    <path id="Path_175" data-name="Path 175" d="M398.668,566.253c0-.038,0-.079,0-.119a1.919,1.919,0,0,0-1.919-1.919h-2.587c-1.338-.359-3.508-.069-6.957-.069-3.746,0-7.571.077-11.307-.025a49.216,49.216,0,0,0,3.347-5.521,46.39,46.39,0,0,0,2.339-6.421c1.531-5.162,1.921-10.048,2.4-15.57,5.433-.818,10.434,2.691,13.788,4.784.2,3.888-.175,18.078.178,20.135.432,2.516,1.5,3.12,2.428,4.725Z" transform="translate(-315.08 -449.682)" fill="#5a5a5a" fill-rule="evenodd"/>
    <path id="Path_176" data-name="Path 176" d="M456.214,173.67c.712,2.3,2.9,1.46,5.431,2.023a15.8,15.8,0,0,1,2.131,30.138c-9.206,3.524-17.162-2.109-19.928-8.064-5.768-12.423,5.683-19.7,6.051-20.636.9-8.376-15.632,4.755-10.466,20.189,2.792,8.344,12.273,16.005,24,12.737,8.652-2.411,16.586-11.614,13.911-23.3a19.74,19.74,0,0,0-14.137-14.725,17.252,17.252,0,0,0-4.194-.649c-2.044-.047-2.64.327-2.8,2.284" transform="translate(-367.492 -143.652)" fill="#483a4b" fill-rule="evenodd"/>
    <path id="Path_177" data-name="Path 177" d="M542.85,538.793c0,2.9-1.017,5.109-3.957,5.122-5.279.027-3.946-7.538-3.946-13.624,0-5.592-.347-12.39.058-17.836l7.782-.056c.393,5.79.069,19.276.063,26.393" transform="translate(-448.266 -429.492)" fill="#8a624c" fill-rule="evenodd"/>
    <path id="Path_178" data-name="Path 178" d="M269.588,635.536l-10.81.083,3.027-13.81,4.662-.029Z" transform="translate(-216.906 -521.174)" fill="#d74c57" fill-rule="evenodd"/>
    <path id="Path_179" data-name="Path 179" d="M197.33,594.6c-.472,2.151-1.246,7.112-2.1,8.509-2.134-1.251-4.005-4.763-5.118-7.887-.758-2.134-2.537-8.408-2.349-10.741a25.125,25.125,0,0,0,4.149,2.875c2.648,1.445,2.806,1.641,4.834.107,2.716,2.094,1.409,3.341.58,7.137" transform="translate(-157.375 -489.908)" fill="#fdfdfd" fill-rule="evenodd"/>
    <path id="Path_180" data-name="Path 180" d="M341.274,586.234c-.716,6.7-3.852,14.944-7.373,18.049-1.128-1.376-1.347-4.782-1.779-6.7-.437-1.944-1.432-5.452-1.4-7.327l1.595-1.38c3.362,2.819,5.155-1.015,8.958-2.639" transform="translate(-277.209 -491.38)" fill="#fdfdfd" fill-rule="evenodd"/>
    <path id="Path_181" data-name="Path 181" d="M250.841,488.7c-.061,4.667-7.436,7.567-9.872,7.584-2.057.013-9.837-2.794-9.862-7.567,10.9,2.5,8.693,2.593,19.734-.017" transform="translate(-193.713 -409.63)" fill="#88624b" fill-rule="evenodd"/>
    <path id="Path_182" data-name="Path 182" d="M539.132,247.943c1.317-1.874-.792-4.664-3.179-2.6-1.335,1.157-2.652,2.664-3.939,3.951l-7.72,7.764c-1.453,2.247.923,4.434,3.126,2.51,1.351-1.18,2.638-2.649,3.94-3.951Z" transform="translate(-439.088 -205.037)" fill="#483a4b" fill-rule="evenodd"/>
    <path id="Path_183" data-name="Path 183" d="M194.2,519.107a1.685,1.685,0,0,1-.392.5c-1.5,1.593-2.147,1.368-3.813,4.627-2.946-.94-8.411-6.771-6.172-9.148a6.36,6.36,0,0,1,4.036-1.554c3.2,3.241.706,1.942,6.341,5.579" transform="translate(-153.641 -430.438)" fill="#eff0f3" fill-rule="evenodd"/>
    <path id="Path_184" data-name="Path 184" d="M337.379,524.224c-1.737-3.585-3.155-3.587-4.27-5.235,3.441-1.543,4.212-3.1,6.4-5.5a6.233,6.233,0,0,1,4,1.593c2.339,2.307-3.193,8.1-6.135,9.139" transform="translate(-279.211 -430.408)" fill="#eff0f3" fill-rule="evenodd"/>
    <path id="Path_185" data-name="Path 185" d="M267.044,564.648a7.509,7.509,0,0,1-2.063,2.418c-1.257,1.151-6.629,1.149-7.876.006a7.955,7.955,0,0,1-2.051-2.424c2.675-3.418,9.4-3.451,11.991,0" transform="translate(-213.785 -471.127)" fill="#eb5e69" fill-rule="evenodd"/>
    <path id="Path_186" data-name="Path 186" d="M517.25,235.752a1.926,1.926,0,0,0-2.061-3.042,11.8,11.8,0,0,0-3.067,2.794c-1.037,1.784,1.06,5.412,5.128.248" transform="translate(-429.039 -195.001)" fill="#483a4b" fill-rule="evenodd"/>
    <path id="Path_187" data-name="Path 187" d="M551.787,463.171l-.029,3.992h-3.84l-.094-4.032Z" transform="translate(-459.185 -388.195)" fill="#7c818d" fill-rule="evenodd"/>
  </g>
</svg>
