<svg id="Group_142" data-name="Group 142" xmlns="http://www.w3.org/2000/svg" xmlns:xlink="http://www.w3.org/1999/xlink" width="97.934" height="114.139" viewBox="0 0 97.934 114.139">
  <defs>
    <clipPath id="clip-path">
      <rect id="Rectangle_749" data-name="Rectangle 749" width="97.934" height="114.139" fill="none"/>
    </clipPath>
  </defs>
  <g id="Group_141" data-name="Group 141" clip-path="url(#clip-path)">
    <path id="Path_101" data-name="Path 101" d="M93.962,85.453A20.308,20.308,0,0,0,88.9,80.332c-3.378-2.5-5.174-2.948-9.338-3.751-1.445-.28-.979-.449-1.7-1.447C76.841,73.734,71.627,73,69.814,73a3.025,3.025,0,0,0-2.422,1.455l-4.357-.737c-1.5-.394-1.219-3.142-1.219-4.6,0-.745.813-1.023,1.7-1.695.558-.425,1.341-1.015,1.879-1.514a20.079,20.079,0,0,0,3.26-3.77,22.029,22.029,0,0,0,3.2-7.225c1.095-4.761-.194-2.293,2.664-3.639,3.774-1.777,3.3-4.943,3.3-7.853A5.77,5.77,0,0,0,76.525,40.1c-1.082-1.377-.649-1.367-.649-5.41,3.338,0,5.212-.069,7.866-2.072,3.679-2.775,5.656-9.984.876-10.064-2.805-.048-5.686.015-8.5.015-.206-2.476-.7-5.246-1.072-7.9-.7-5.035-1.708-9.12-6.242-12.18C62.077-2.044,57.768,1,51.634,1H46.3C40.283,1,35.869-2,29.278,2.4a13.564,13.564,0,0,0-4.4,4.816c-1.847,3.654-1.889,7.05-2.506,11.31-.2,1.344-.457,2.833-.558,4.048-2.752,0-5.505-.017-8.255-.013-1.586,0-2.19.267-2.744,1.385C9.455,26.7,12.471,34.693,20.362,34.693h1.7v4.365c0,.606-.249.548-.537.916-1.763,2.262-1.4,3.5-1.4,6.6,0,4.359,5.33,5.33,5.334,5.334l1.358,5.427c2.94,8.468,9.308,10.426,9.308,11.784,0,5.372-.611,4.471-3.325,4.917-.6.1-1.586.261-2.251.417-1.607-2.4-4.4-1.3-7.9-.63-3.374.647-2.26,2.186-3.868,2.677-1.527.467-3.277.272-5.284,1.261A25.932,25.932,0,0,0,9.173,80.23,21.546,21.546,0,0,0,0,97.72v6.711a10.773,10.773,0,0,0,10.708,9.708H87.289a10.778,10.778,0,0,0,10.645-9.2V97.72a20.733,20.733,0,0,0-3.972-12.267M65.21,77.844l-3.2,5.042c-1.07,1.613-2.443,3.441-5.042,3.441-2.676,0-2.481-.349-4.123-.484.571-.853,1.112-.975,2.245-2.121L59.6,79.5c4.553-3.633.663-1.771,5.612-1.661m-16.241,6.3c-1.183-.79-4.111-3.854-4.951-4.5l-4.989-4.707c.465-1.992.727-.634.727-4.363l3.5,1.1a25.785,25.785,0,0,0,11.429.008c1.466-.32,2.352-.847,3.494-1.112,0,3.721.24,2.272.727,4.363ZM19.635,30.814c-2.394,0-5.037-2.253-5.09-4.6h15.03c1.678,0,2.342-3.637-.244-3.637H25.7a56.094,56.094,0,0,1,.865-6.65c.358-2.43.419-4.4,1.31-6.2a9.313,9.313,0,0,1,3.4-4.121,11.625,11.625,0,0,1,5.581-1.933,41.675,41.675,0,0,1,5.5.8,54.42,54.42,0,0,0,17.009-.6A9.916,9.916,0,0,1,67.34,6.141c3.776,3.1,3.614,6.981,4.309,11.688a38.754,38.754,0,0,1,.59,4.744H37.331c-1.931,0-1.931,3.637,0,3.637H83.389c-.051,2.352-2.7,4.6-5.09,4.6ZM72,34.693v4.121a11.9,11.9,0,0,0-2.908.727V34.693Zm-43.149,0v4.848a11.91,11.91,0,0,0-2.91-.727V34.693ZM29.39,52.33c-.278-2.169.145-3.883-1.8-4.256-.63-.12-3.831.455-3.831-2.23,0-2.925-.082-3.949,2.268-3.252,2.813.834,1.493,1.8,4.279,1.8a2.189,2.189,0,0,0,2.18-2.18V34.693H65.451v7.516c0,2.112,1.914,2.18,3.152,2.18.729,0,5.576-4.635,5.576,0,0,1.31.208,2.552-1.047,3.317-.891.543-1.424.2-2.571.337-3.658.448.147,5.081-5.522,12.659-10.416,13.93-33.526,8.1-35.648-8.373M40.424,81.538l4.665,4.305c-1.691.139-.891.484-4.365.484-2.957,0-4.894-3.382-6.442-5.92-.585-.958-1.076-1.655-1.556-2.563,5.2-.116,1.053-2.157,7.7,3.694m-8.91,1.638L33.208,85.6a8.029,8.029,0,0,0,2.039,2.325c5.8,4.538,10.492.958,13.743.861,2.123-.061,10.55,4.7,15.638-3.039l1.792-2.573V96.023H31.514ZM23.03,77.6c1.527-.126,3.033-.726,4.6-.726V96.023H24.241a3.939,3.939,0,0,0-1.211.244ZM10.708,110.33a6.962,6.962,0,0,1-6.829-5.654V96.509c0-7.689,7.335-15.581,15.272-16.241,0,3.892.2,16.344-.008,19.144-.339,4.524-4.384,6.1-5.518,10.919Zm6.909,0c1.045-2.771,3.113-3.8,4.345-6.89.465-1.165.7-3.538,2.038-3.538H73.937c1.744,0,1.3,3.612,3.949,6.716a13.471,13.471,0,0,1,2.373,3.711Zm76.441-5.37a6.962,6.962,0,0,1-6.768,5.37h-3.1a12.14,12.14,0,0,0-1.114-3.079c-2.11-3.961-4.29-2.889-4.286-10.742,0-1.1.086-2.588,0-3.639-.091-1.112-.666-2.119-1.839-2.175a.935.935,0,0,0-.1,0c-2.559,0-1.939,3.014-1.939,5.576a16.352,16.352,0,0,0-4.606-.244V76.874c1.571,0,3.079.6,4.606.726,0,2.871-.514,7.107.927,8.061a1.845,1.845,0,0,0,1.114.328,1.873,1.873,0,0,0,1.647-1.3,19.722,19.722,0,0,0,.191-4.416,16.918,16.918,0,0,1,8.278,3.357c3.483,2.738,6.994,7.6,6.994,12.884Z" transform="translate(0 0)" fill="#483a4b" fill-rule="evenodd"/>
    <path id="Path_102" data-name="Path 102" d="M169.131,549.188v19.149h-3.393a3.942,3.942,0,0,0-1.211.244V549.913c1.527-.126,3.034-.725,4.6-.725" transform="translate(-141.496 -472.314)" fill="#729ab0" fill-rule="evenodd"/>
    <path id="Path_103" data-name="Path 103" d="M42.976,592.575c-.339,4.525-4.384,6.1-5.518,10.919H34.54a6.962,6.962,0,0,1-6.829-5.654v-8.167c0-7.689,7.335-15.581,15.272-16.242,0,3.892.2,16.344-.008,19.144" transform="translate(-23.832 -493.163)" fill="#88a80d" fill-rule="evenodd"/>
    <path id="Path_104" data-name="Path 104" d="M186.12,720.417c-2.649-3.1-2.205-6.716-3.949-6.716H132.233c-1.341,0-1.573,2.373-2.038,3.538-1.232,3.089-3.3,4.119-4.346,6.89h62.643a13.47,13.47,0,0,0-2.373-3.711m-48.311.07c-1.293,0-1.941-.682-1.941-2.18a1.862,1.862,0,0,1,1.455-1.455c3.386,0,2.66,3.635.486,3.635m38.786,0c-2.331,0-2.59-3.635,0-3.635a1.822,1.822,0,1,1,0,3.635" transform="translate(-108.234 -613.799)" fill="#729ab0" fill-rule="evenodd"/>
    <path id="Path_105" data-name="Path 105" d="M566.821,589.671v8.451a6.962,6.962,0,0,1-6.768,5.37h-3.1a12.141,12.141,0,0,0-1.114-3.079c-2.11-3.961-4.29-2.889-4.286-10.742,0-1.1.086-2.588,0-3.639-.091-1.112-.666-2.12-1.839-2.175V579.15a1.873,1.873,0,0,0,1.647-1.3,19.725,19.725,0,0,0,.19-4.416,16.92,16.92,0,0,1,8.278,3.357c3.483,2.738,6.994,7.6,6.994,12.884" transform="translate(-472.764 -493.162)" fill="#88a80d" fill-rule="evenodd"/>
    <path id="Path_106" data-name="Path 106" d="M508.867,558.3v4.707a.935.935,0,0,0-.1,0c-2.559,0-1.938,3.014-1.938,5.576a16.358,16.358,0,0,0-4.607-.244V549.188c1.571,0,3.079.6,4.607.725,0,2.872-.514,7.107.927,8.061a1.847,1.847,0,0,0,1.114.328" transform="translate(-431.919 -472.314)" fill="#729ab0" fill-rule="evenodd"/>
    <path id="Path_107" data-name="Path 107" d="M389.889,552.582l-3.2,5.042c-1.07,1.613-2.443,3.441-5.042,3.441-2.676,0-2.481-.348-4.123-.484.571-.853,1.112-.975,2.245-2.121l4.507-4.218c4.553-3.633.663-1.771,5.612-1.661" transform="translate(-324.68 -474.739)" fill="#88a80d" fill-rule="evenodd"/>
    <path id="Path_108" data-name="Path 108" d="M260.04,594.2v12.848H225.133V594.2l1.695,2.426a8.031,8.031,0,0,0,2.039,2.325c5.8,4.538,10.492.958,13.743.861,2.123-.061,10.55,4.7,15.638-3.039Z" transform="translate(-193.619 -511.029)" fill="#88a80d" fill-rule="evenodd"/>
    <path id="Path_109" data-name="Path 109" d="M246.161,561.423c-1.691.139-.891.484-4.365.484-2.957,0-4.894-3.382-6.442-5.92-.585-.958-1.076-1.655-1.556-2.563,5.2-.116,1.053-2.158,7.7,3.694Z" transform="translate(-201.072 -475.58)" fill="#88a80d" fill-rule="evenodd"/>
    <path id="Path_110" data-name="Path 110" d="M298.694,508.522l-9.938,9.211c-1.183-.79-4.111-3.854-4.951-4.5l-4.989-4.707c.465-1.992.727-.634.727-4.363l3.5,1.1a25.785,25.785,0,0,0,11.429.008c1.466-.32,2.352-.847,3.494-1.112,0,3.721.24,2.272.728,4.363" transform="translate(-239.787 -433.588)" fill="#f8c484" fill-rule="evenodd"/>
    <path id="Path_111" data-name="Path 111" d="M496.476,247.846v4.121a11.889,11.889,0,0,0-2.908.727v-4.848Z" transform="translate(-424.479 -213.153)" fill="#754c24" fill-rule="evenodd"/>
    <path id="Path_112" data-name="Path 112" d="M188.21,247.846v4.848a11.91,11.91,0,0,0-2.91-.727v-4.121Z" transform="translate(-159.362 -213.153)" fill="#754c24" fill-rule="evenodd"/>
    <path id="Path_113" data-name="Path 113" d="M219.083,260.86c-.891.543-1.424.2-2.571.337-3.658.447.147,5.081-5.522,12.659-10.416,13.93-33.526,8.1-35.648-8.373-.278-2.169.145-3.883-1.8-4.256-.63-.12-3.831.455-3.831-2.23,0-2.925-.082-3.949,2.268-3.252,2.813.834,1.493,1.8,4.279,1.8a2.189,2.189,0,0,0,2.18-2.18v-7.516H211.4v7.516c0,2.112,1.914,2.18,3.152,2.18.729,0,5.576-4.635,5.576,0,0,1.31.208,2.552-1.047,3.317" transform="translate(-145.952 -213.153)" fill="#f8c484" fill-rule="evenodd"/>
    <path id="Path_114" data-name="Path 114" d="M172.752,48.727c-.051,2.352-2.7,4.6-5.09,4.6H109c-2.394,0-5.037-2.253-5.09-4.6h15.03c1.678,0,2.342-3.637-.244-3.637h-3.635a56.1,56.1,0,0,1,.864-6.65c.358-2.43.419-4.4,1.31-6.2a9.314,9.314,0,0,1,3.4-4.121,11.626,11.626,0,0,1,5.581-1.933,41.653,41.653,0,0,1,5.5.8,54.419,54.419,0,0,0,17.009-.6,9.916,9.916,0,0,1,7.985,2.272c3.776,3.1,3.614,6.981,4.309,11.688a38.755,38.755,0,0,1,.59,4.743H126.693c-1.931,0-1.931,3.637,0,3.637Z" transform="translate(-89.362 -22.517)" fill="#a67c52" fill-rule="evenodd"/>
    <path id="Path_115" data-name="Path 115" d="M477.025,739.851c-2.331,0-2.59-3.635,0-3.635a1.822,1.822,0,1,1,0,3.635" transform="translate(-408.664 -633.162)" fill="#483a4b" fill-rule="evenodd"/>
    <path id="Path_116" data-name="Path 116" d="M199.362,739.851c-1.293,0-1.94-.682-1.94-2.18a1.862,1.862,0,0,1,1.455-1.455c3.386,0,2.66,3.635.486,3.635" transform="translate(-169.787 -633.162)" fill="#483a4b" fill-rule="evenodd"/>
  </g>
</svg>
