<svg id="Group_140" data-name="Group 140" xmlns="http://www.w3.org/2000/svg" xmlns:xlink="http://www.w3.org/1999/xlink" width="130.333" height="119.038" viewBox="0 0 130.333 119.038">
  <defs>
    <clipPath id="clip-path">
      <rect id="Rectangle_748" data-name="Rectangle 748" width="130.333" height="119.038" fill="none"/>
    </clipPath>
  </defs>
  <g id="Group_139" data-name="Group 139" clip-path="url(#clip-path)">
    <path id="Path_71" data-name="Path 71" d="M281.287,251.5c-.086-.6-.177-1.167-.277-1.707-.058-.317-.12-.622-.186-.919v0c-1.309-6.059-3.837-8.406-8.939-11.808a5.785,5.785,0,0,0-4.567-1.358,4.394,4.394,0,0,0-3.249,2.763c-.339-.029-4.367-1.189-7.457-2.106-1.906-.568-3.455-1.041-3.558-1.1a.733.733,0,0,1-.095-.067,9.952,9.952,0,0,1-1.307-1.937,8.093,8.093,0,0,0-.757-1.045c-.011-.013-.024-.026-.035-.04-.55-.641-1.392-1.971-2.679-1.667a2.156,2.156,0,0,0-.623.262c-.038.024-.076.049-.113.076a3.3,3.3,0,0,0-1,2.417,3.53,3.53,0,0,1-1.4-.4c0-.207-.007-.511-.018-.879l-.1.047c-1.808.868-1.973.557-1.984,2.263v.6q0,.759,0,1.518c.089-.007.178-.013.268-.013s.155,0,.231.009a.339.339,0,0,1,.062.006c.062.005.122.013.182.024a2.65,2.65,0,0,1,.342.078c.038.011.076.024.115.036a3.484,3.484,0,0,1,.613.279,5.044,5.044,0,0,1-.32.515c-.029.042-.058.084-.089.124a.089.089,0,0,1-.011.015c-.033.046-.066.089-.1.133l-.107.135c-.036.044-.073.089-.111.133-.075.089-.155.178-.238.268-.064.071-.131.14-.2.211-.015.015-.027.029-.042.042q-.117.12-.246.24c-.111.105-.226.211-.344.315q0,2.31,0,4.62c.419-.273.828-.562,1.223-.866l.186-.146q.265-.208.519-.426c.1-.085.2-.175.3-.264.071-.064.144-.127.213-.195.029-.024.056-.049.084-.075s.031-.029.047-.045a.349.349,0,0,0,.036-.035q.115-.106.229-.219a17.363,17.363,0,0,0,1.725-1.957q.131-.172.257-.349a17.094,17.094,0,0,1,1.478-2.3q.1.126.186.268c.024.036.046.073.067.111.066.107.127.222.186.34.022.046.044.091.064.137.04.084.076.169.111.259a.2.2,0,0,1,.009.02c.086.215.162.44.229.675.015.049.029.1.044.151.025.1.051.195.073.293s.044.189.064.286c.027.135.053.27.075.408.006.033.011.067.017.1q.084.549.12,1.118c0,.055.007.109.009.164.005.1.009.2.011.3,0,.053,0,.106,0,.158a10.928,10.928,0,0,1-.444,3.407q-.137.42-.308.821c-.036.084-.073.167-.111.249s-.065.142-.1.211c-.013.029-.027.06-.044.089-.035.071-.071.142-.109.211s-.089.167-.136.251-.095.16-.144.24v.007c-.056.091-.113.182-.171.271s-.116.178-.178.268a10.742,10.742,0,0,1-.834,1.063c-.06.067-.12.135-.182.2a12.392,12.392,0,0,1-1.174,1.114c-.062.053-.124.1-.186.155-.3.24-.612.473-.936.7q-.328.224-.672.437c-.075.047-.151.093-.227.138q-.579.347-1.2.655c-.069.035-.138.069-.208.1s-.142.069-.213.1l-.34.158c.115-.051.228-.1.34-.156v1.52q0,1.253.056,2.45v0a.2.2,0,0,0,.029-.013c.206-.086.411-.171.619-.262.109-.046.217-.095.326-.144s.217-.1.324-.148.217-.1.324-.153.215-.1.32-.157.215-.106.32-.16.213-.107.317-.164q.38-.2.746-.408c.082-.045.164-.093.244-.14s.162-.093.24-.142a18.13,18.13,0,0,0,1.676-1.127c.084-.064.167-.128.249-.193.142-.113.279-.228.41-.342,0,0,.005,0,.007-.007.051-.044.1-.089.153-.137s.111-.1.164-.153.12-.113.176-.171c.076-.077.151-.155.222-.231l.259-.284c.36-.4.69-.774.992-1.139.126-.149.246-.3.36-.446,0,0,0,0,0-.006.067-.084.131-.167.193-.249v-.007a.688.688,0,0,0,.047-.058c.031-.04.06-.08.089-.118.124-.168.24-.333.351-.5.051-.075.1-.148.147-.222.106-.164.2-.326.3-.49.036-.064.073-.129.107-.193l.022-.038c.035-.062.067-.125.1-.189s.08-.153.117-.231a.077.077,0,0,0,.009-.018c.035-.071.069-.142.1-.215s.071-.155.1-.233.069-.166.1-.251.06-.153.087-.231c.073-.2.138-.4.2-.611.016-.053.033-.109.047-.164.062-.224.117-.453.167-.692.011-.051.022-.1.033-.155.025-.133.049-.269.073-.41.009-.047.016-.1.024-.145.02-.127.038-.257.056-.388.015-.113.027-.228.04-.344.027-.249.049-.508.069-.777.007-.1.015-.207.02-.313.024-.44.04-.9.046-1.4,0-.084,0-.167,0-.251,0-.5,0-1.038-.016-1.607l8.116,2.377c-.5,1.492-6.443,13.069-7.663,15.515-.113.226-.213.433-.3.621-.053.113-.1.218-.151.317-.127.269-.231.5-.322.684-.024.045-.044.087-.064.129a3.543,3.543,0,0,1-.284.493l-.055.069q-.027.033-.055.06a.83.83,0,0,1-.176.137.607.607,0,0,1-.058.031l-.049.022-.013.005a.639.639,0,0,1-.064.024l-.075.022-.055.015c-.045.011-.095.022-.146.031-.035.007-.071.013-.109.02q-.118.019-.257.038l-.373.053-.156.022-.211.033c-.295.047-.592.1-.886.147l-.965.166c-.526.093-1.05.184-1.576.266-.133.022-.264.042-.4.062-.218.035-.439.066-.659.095-.175.023-.348.047-.522.067-.144.016-.28.035-.411.051-.16.02-.311.042-.453.06l-.169.024-.253.036-.184.027-.284.04-.105.015a4.789,4.789,0,0,1-1.167.075c.049.288.1.57.162.85a23.567,23.567,0,0,0,.777,2.851c.866-.106,1.751-.222,2.636-.344,1.252-.173,2.5-.358,3.7-.551.923-.147,1.815-.3,2.652-.452,1.562-.282,2.936-.564,3.97-.823,3.548-.887,6.529-1.718,9.481-2.661,2-.639,3.984-1.327,6.123-2.117.812-.3,1.645-.613,2.51-.945,4.66-1.789,5.863-1.837,5.925-3.5v-.3c-.016-.484-.1-1.09-.211-1.877m-18.768,6.088-4.432,1.254,2.337-4.927.089-.177.714-1.425.854-1.715s0,0,0,0l.3-.6.639-1.418,1-1.893.8-1.669,1.234-2.262.666-1.42c1.11-2.181,1.145-2.448,3.3-1l1.931,1.338a3.777,3.777,0,0,1,1.7,1.456,3.143,3.143,0,0,1,1.276,1.447c.011.022.022.045.035.069l.923,1.523a6.24,6.24,0,0,1,1.074,2.443v0c.031.1.058.191.087.28l.209,1.285.382,2.334-2.017.535a9.027,9.027,0,0,1-2.179.98c-.624.22-1.223.408-1.562.5l-.178.013a34.147,34.147,0,0,1-5.064,1.769c-.2.064-.391.122-.557.176l-1.724.472-.526.182Zm-12.4-51.493c0,.044,0,.089,0,.133,0,.1,0,.2,0,.3,0-.156,0-.313,0-.47a.115.115,0,0,0,0,.035m-.211-4.165a4.878,4.878,0,0,1,.6-.2,4.321,4.321,0,0,0-.6.2m-7.636,34.587c.144-.036.284-.066.424-.087a3.758,3.758,0,0,0-.424.087m-1.088,16.4q.543-.2,1.065-.426c-.348.149-.7.291-1.065.426m-3.417,1.008c.79-.177,1.564-.386,2.312-.626q-1.125.358-2.312.626m-2.008.384-.41.062-.409.056c-.137.018-.275.035-.413.051l-.171.022c.058-.006.115-.013.171-.02.035,0,.067-.007.1-.013.089-.009.176-.02.264-.033.069-.007.138-.016.206-.027l.253-.034.155-.024.255-.038.06-.011c-.02,0-.04.007-.06.009m-1.853.238c.069-.005.138-.013.208-.02l.044-.005a.363.363,0,0,1-.044,0c-.069.009-.138.016-.208.022m-1.16.1c-.111.009-.222.015-.333.022a.983.983,0,0,0,.1-.005l.1-.005.066-.006c.033,0,.067,0,.1-.007a.236.236,0,0,1-.035,0m-19.094-60.454c0,.26.005.517.009.766,0-.249-.005-.506-.009-.766m-.047,2.792c.013-.126.024-.253.031-.388-.009.133-.018.262-.031.388m-.224,1.089a2.967,2.967,0,0,0,.138-.5,3.42,3.42,0,0,1-.138.5m-.206.419a1.705,1.705,0,0,0,.169-.324,2.018,2.018,0,0,1-.169.324m-2.792,7.628c.009.167.013.357.015.566h0c0-.209-.005-.4-.016-.566m-.34-1.309a1.078,1.078,0,0,1,.171.306.993.993,0,0,0-.171-.306m-3.082-9.012a3.163,3.163,0,0,1,.3-.118,2.748,2.748,0,0,0-.3.118" transform="translate(-178.803 -167.762)" fill="#483a4b" fill-rule="evenodd"/>
    <path id="Path_72" data-name="Path 72" d="M75.651,24.227c0-4.483-.16-7.394-1.371-10.648a17.974,17.974,0,0,0-2-4.008,22.5,22.5,0,0,0-2.887-3.324C62.97-.233,50.469-1.509,41.067,1.662c-5.384,1.817-10.586,6.365-12.419,11.82-1.336,3.972-1.274,5.788-1.274,10.945-2.4.2-4.006,2.927-4.2,5.422-.311,3.935,2.719,8.42,2.8,9.4.32,3.673-1.12,8.107,1.649,10.37a4.245,4.245,0,0,0,3.957.652,5.877,5.877,0,0,0,1,2c1.682.111,1.988.761,1.509,2.4.659.677.936,1.159,1.544,1.755.892.872.981.561.965,2.241-.022,2.208-.011,4.416-.011,6.622a11.228,11.228,0,0,0-1.4.2c-.066-2.894-2.39-4.811-5.694.917l-.763,1.041L17.758,70.7a4.747,4.747,0,0,0-3.12-2.69c-2.232-.6-3.391.413-4.629,1.15C4.094,72.679,1.5,76.312.413,83.409c-.084.55-.24,1.347-.284,2.015v.486H0v15.867a10.3,10.3,0,0,0,10.284,10.286H77.322v-.606A39.1,39.1,0,0,1,74,108.913c-.186-.156-.375-.32-.566-.491H10.284a6.653,6.653,0,0,1-6.644-6.646v-13.2l.036.015,10.95,3.872,11.631,3.193L34,96.929c2.965.333,8.111,1.017,11,1.017,3.329,6.294,11.875,3.538,12.82,0a74.49,74.49,0,0,0,7.876-.635,23.567,23.567,0,0,1-.777-2.85c-.058-.28-.113-.562-.162-.85a1.675,1.675,0,0,1-.2-.036c-.035-.007-.069-.018-.1-.029s-.051-.016-.076-.025-.049-.02-.075-.031a2.4,2.4,0,0,1-.466-.271c-.027-.02-.058-.04-.087-.064-.18-.133-.384-.3-.628-.5a25,25,0,0,0-3.386-2.641l.743-.426c.16-.058.593-.149.8-.2.249-.067.508-.142.772-.224.091-.027.184-.056.277-.087.178-.056.359-.118.542-.182l.333-.118c.324-.118.653-.246.987-.379v0q-.057-1.2-.056-2.45v-1.52c-.113.055-.226.106-.34.156s-.229.1-.346.151q-.522.227-1.065.426c-.12.047-.242.091-.364.133-.246.086-.491.169-.741.249-.748.24-1.522.449-2.312.626-.395.091-.8.173-1.2.246-.249.045-.5.089-.75.129-.02,0-.04.007-.06.009v0l-.255.038c-.051.009-.1.016-.155.022v0l-.253.035c-.053.007-.1.015-.156.02l-.049.007c-.087.013-.175.024-.264.033a.932.932,0,0,1-.1.011v0c-.056.007-.113.015-.171.02s-.131.016-.2.022a.339.339,0,0,1-.044,0v0c-.069.007-.138.015-.208.02-.208.022-.415.042-.624.058a.367.367,0,0,1-.062.005c-.1.007-.2.016-.295.022l-.085.005a.132.132,0,0,1-.027,0l-.031,0a.213.213,0,0,1-.035,0c-.022,0-.044,0-.066.005l-.066.005-.1.005a.948.948,0,0,1-.1.005q-.1.008-.2.011c-.2.013-.406.02-.608.027s-.422.013-.633.016c-.239,0-.475.005-.714,0-.162,0-.326,0-.488,0,0,0,0,0-.007,0a0,0,0,0,1,0,0,.182.182,0,0,1-.045,0c-.557-.009-1.114-.031-1.669-.069q-.164-.008-.328-.022c-.126-.007-.249-.018-.373-.029-.1-.007-.193-.016-.288-.025-.237-.022-.472-.045-.7-.073-.095-.009-.188-.02-.28-.033-.16-.018-.319-.038-.477-.06-.093-.011-.186-.025-.279-.038q-.42-.06-.835-.131c-.062-.011-.122-.02-.182-.033-.284-.047-.566-.1-.846-.16a27.9,27.9,0,0,1-4.068-1.141q-.47-.172-.923-.36a18.732,18.732,0,0,1-3.706-2.026,11.742,11.742,0,0,1-4.285-5.539c-1.252-3.637-.149-5.4.673-8.371l.77,1.132c.255.435.415.7.7,1.1C37.742,76.6,44.631,79.37,51.506,79.37c.14,0,.282,0,.422,0s.28-.005.42-.011.286-.009.43-.016.275-.016.411-.025.28-.018.42-.031.275-.024.411-.038a.124.124,0,0,0,.025,0c.133-.013.268-.027.4-.044.1-.011.2-.022.3-.036.076-.009.151-.02.226-.031.4-.053.794-.118,1.189-.193.1-.018.193-.036.288-.056.319-.062.635-.133.95-.209.113-.027.228-.056.34-.085.217-.055.433-.115.65-.178.1-.029.2-.058.3-.089s.229-.069.342-.106.2-.066.3-.1.189-.064.284-.1.16-.056.24-.087c.5-.18.987-.377,1.467-.593q.284-.126.562-.262.142-.066.279-.136c.191-.095.382-.195.57-.3q.172-.093.344-.191c.184-.1.366-.209.546-.318.113-.069.226-.14.337-.211.06-.036.12-.076.18-.115q0-2.31,0-4.62c-.2.173-.406.346-.622.517-.051.038-.1.078-.153.116-.169.131-.344.258-.524.386-.226.158-.459.315-.7.468-.144.091-.289.182-.439.271-.133.08-.266.158-.4.235q-.366.207-.748.4c-.1.051-.2.1-.3.151l-.217.1-.215.1c-.106.049-.211.1-.319.144q-.123.057-.251.109c-.109.047-.22.095-.333.138s-.224.091-.337.133-.215.082-.324.122c-.457.166-.921.313-1.387.439-.1.029-.206.056-.308.08-.253.064-.5.12-.757.171-.1.02-.209.04-.315.058h-.005c-.106.02-.211.036-.317.053l-.047.005q-.161.024-.322.044h0c-.115.015-.229.027-.342.036s-.228.02-.34.027a17.426,17.426,0,0,1-5.264.027c-4.86-.375-10.368-3.622-11.864-6.427,2.951-1.938,4.791,2.546,14.423,2.557.149,0,.3,0,.442,0,.209,0,.415-.007.617-.015a.221.221,0,0,0,.036,0c.115,0,.229-.009.342-.015q.464-.022.9-.06c.093-.007.184-.015.273-.024.513-.049,1-.111,1.458-.186.086-.013.169-.027.253-.042.187-.031.369-.066.548-.1l.238-.049c.184-.038.364-.078.539-.12q.213-.049.415-.1l.226-.06c.3-.08.584-.166.857-.253l.2-.065c.737-.242,1.389-.5,1.975-.746.106-.044.211-.089.313-.133.566-.242,1.072-.466,1.542-.643.042-.016.084-.033.126-.047.08-.031.16-.06.24-.085l.136-.046c.08-.025.158-.049.235-.069.049-.015.1-.027.144-.038a3.732,3.732,0,0,1,.424-.087q.123-.019.24-.027,0-.759,0-1.518v-.6c.011-1.705.176-1.394,1.984-2.262l.1-.047c-.064-2.053-.229-6.127.266-6.886l2.355-2.652-.188-1.671a2.105,2.105,0,0,1,1.791-.733,14.26,14.26,0,0,1,1-2,4.147,4.147,0,0,0,5.42-3.8c.033-1.58-.011-3.231-.011-4.82,0-2.81-.209-2.25.866-4.141,2.039-3.582,4.088-11.853-2.069-13.287M55.063,93.545a3.685,3.685,0,0,1-7.2,1.6c-1.087-5.053,6.363-5.97,7.2-1.6m-36-3.8L17.113,89.2l-1.554-.468C12.5,87.723,9.17,86.7,6.251,85.566l-2.19-.8L4.7,80.815a6.725,6.725,0,0,1,1.076-2.277,3.4,3.4,0,0,1,.885-1.64,5.129,5.129,0,0,1,1.485-1.782,4.975,4.975,0,0,1,1.768-1.351A10.088,10.088,0,0,1,11.738,72.5c.8-.5,1.048-.948,2.273-.8l.966,1.818.8,1.62,1.05,2.17.8,1.62,1.016,1.929.77,1.618,1.021,2.071.8,1.609,2.5,4.907Zm13.506-5a23.733,23.733,0,0,0,12.714,5.393c-.521,1.647-.939,1.631-1.189,3.9-1.665.277-10.821-.828-12.516-1.329-4.074-.388-2.821.047-7.03-8.371-.828-1.655-4.8-9.247-5.069-10.248l2.346-.615,5.779-1.724c-.593,6.449,1.778,10.226,4.964,12.994M52.214,3.757a24.4,24.4,0,0,1,12.1,3.2c.2.122.4.248.588.377.289.195.573.4.846.613.176.133.349.273.519.415.269.226.532.462.783.71.053.047.1.1.155.149a14.81,14.81,0,0,1,3.6,5.834c.033.1.066.2.1.3a19.842,19.842,0,0,1,.874,6.036c0,.189,0,.38-.007.572s-.011.377-.02.566a.032.032,0,0,1,0,.018,7.071,7.071,0,0,0-.242-1.411c-.013-.051-.027-.1-.042-.155-.025-.095-.055-.191-.084-.288-.02-.065-.04-.133-.062-.2-.178-.559-.393-1.121-.613-1.631-.042-.1-.084-.195-.126-.288a11.814,11.814,0,0,0-.715-1.378c-4.024-6.32-11.7-5.359-17.681-4.4-1.276.2-5.258-.708-7.175-.776-5.531-.193-10.7,1.768-12.871,6.96a17.312,17.312,0,0,0-.761,2.45c-.016.051-.047.124-.062.164l-.144.326C30.454,10.04,40.4,3.4,52.214,3.757M71.747,22.545a2.743,2.743,0,0,1-.033.6c.009-.146.018-.289.024-.433.005-.056.007-.113.009-.169M28.976,41.856c.653.752.278.941.653,2.952.175.934.533,1.929.748,2.858-1.951-.455-1.4-1.64-1.4-5.81M52.642,68.874l-2.69-.042c-5.16-.244-7.4-2.059-9.607-2.7l.06-5.446a42.183,42.183,0,0,0,4.65,2.565c3.726,1.505,3.8.925,5.47,1.429l1.948,0c.761-.244,2.009-.273,2.956-.553a22.781,22.781,0,0,0,2.508-.9c1.809-.77,3.113-1.809,4.545-2.477l.044,5.431c-3.577.963-3.016,1.982-9.884,2.7m20-21.209a4.472,4.472,0,0,1,.309-1.494l.539-3.067c.091-.677.067-.89.555-1.249,0,5,.49,4.9-1.4,5.81m-1.325-8.841v-.06c0-.1,0-.2,0-.3,0-.056,0-.111,0-.167,0-.033,0-.064,0-.1,0,0,0,0,0,0a.019.019,0,0,1,0-.015c0-.056.005-.113.011-.167s.005-.078.011-.116a1.727,1.727,0,0,1,.026-.171,1.662,1.662,0,0,1,.067-.253,1.147,1.147,0,0,1,.1-.215c.013-.024.027-.046.042-.067.029-.042.056-.082.084-.116s.053-.066.078-.093a.993.993,0,0,1,.222-.193l.04-.022a.4.4,0,0,1,.038-.02.785.785,0,0,1,.26-.056l.051-.005h.009a.457.457,0,0,0,.053-.011.312.312,0,0,0,.036-.015.184.184,0,0,0,.035-.022.1.1,0,0,0,.016-.015.5.5,0,0,0,.111-.257c.005-.029.011-.058.016-.093.018-.116.033-.268.046-.462,0-.033,0-.066.005-.1s0-.08.005-.122.005-.116.007-.178,0-.124.005-.189,0-.131,0-.2c0-.031,0-.06,0-.091,0-.051,0-.106,0-.16,0-.277.005-.593.005-.956l-.176.013q-.262.025-.508.071c-.109.022-.217.046-.32.071a4.9,4.9,0,0,0-.6.2c-.055.022-.109.046-.162.071-.031.013-.06.025-.087.04-.055.026-.109.053-.16.08-.087.047-.173.1-.255.147a3.969,3.969,0,0,0-.572.433c-.035.033-.069.064-.1.1s-.067.067-.1.1a.29.29,0,0,0-.046.049c-.038.04-.075.082-.111.126a3.705,3.705,0,0,0-.388.544c-.056.1-.109.195-.16.295,0,.009-.009.016-.013.026L68.9,36.3a2.611,2.611,0,0,0-.107.295c-.013.04-.024.082-.035.126s-.024.089-.033.135-.02.093-.029.142-.02.1-.027.149c-.016.1-.033.209-.047.319-.007.056-.015.113-.02.169s-.013.116-.018.176l-.011.12c-.005.062-.011.122-.015.186s-.009.126-.013.191c0,.042-.005.086-.007.129,0,.065-.007.133-.009.2-.005.111-.011.226-.013.34v0c0,.093-.005.186-.007.28q-.006.18-.005.366c-.022,2.313.171,5.153.12,6.9,0,.1-.005.2-.011.293a4.258,4.258,0,0,1-.149,1.068c-1.751,4.993-9.785,13.131-17.05,13.1-3.205-.016-7-2.009-8.913-3.406-.058-.042-.118-.087-.178-.133l-.184-.14c-.062-.047-.126-.1-.188-.147-.271-.213-.555-.448-.848-.7-.1-.086-.2-.173-.3-.264s-.2-.182-.306-.277-.178-.162-.268-.246c-.532-.5-1.076-1.037-1.609-1.605-.1-.111-.208-.222-.309-.333-.411-.45-.812-.912-1.192-1.378l-.28-.351c-.045-.06-.091-.118-.136-.177s-.091-.118-.135-.176q-.268-.352-.513-.7c-.082-.118-.162-.235-.238-.351q-.262-.393-.486-.781c-.038-.064-.075-.127-.111-.193s-.071-.127-.1-.191-.069-.127-.1-.189a7.3,7.3,0,0,1-.628-1.615c-.451-1.9.577-9.361-.475-11.5-.029-.06-.06-.12-.093-.178-.053-.1-.109-.195-.167-.288l-.04-.062c-.035-.053-.069-.105-.108-.156s-.078-.107-.12-.158-.082-.1-.126-.151a3.678,3.678,0,0,0-.277-.282c-.066-.06-.133-.116-.2-.173-.04-.031-.08-.06-.12-.089s-.051-.036-.076-.053a2.876,2.876,0,0,0-.268-.168l-.076-.042c-.051-.029-.1-.055-.158-.08a3.457,3.457,0,0,0-.406-.16c-.046-.016-.093-.031-.14-.046-.1-.031-.206-.056-.313-.078-.044-.011-.086-.018-.129-.025a5.022,5.022,0,0,0-.872-.084v2.4a1.087,1.087,0,0,0,.1.166.507.507,0,0,0,.051.067.826.826,0,0,0,.164.149.615.615,0,0,0,.056.036l.006,0,.051.027a.03.03,0,0,1,.013.007.354.354,0,0,0,.045.02,1.709,1.709,0,0,1,.472.244.324.324,0,0,1,.024.024.1.1,0,0,1,.024.024l.026.027a.994.994,0,0,1,.171.306,1.653,1.653,0,0,1,.055.175c.005.02.011.044.016.066s.011.047.016.075.009.049.015.075c.009.051.018.106.025.164l.011.091c.007.062.015.127.02.2,0,.053.007.106.011.162.011.168.016.357.016.566h0a3.731,3.731,0,0,1-1.411-.883c-.055-.051-.107-.1-.162-.157-.071-.073-.14-.147-.209-.224s-.138-.156-.2-.238-.135-.166-.2-.251c-.2-.26-.384-.539-.564-.832-.06-.1-.118-.2-.175-.3s-.128-.228-.189-.344c-.031-.058-.062-.118-.091-.176-.062-.118-.12-.238-.177-.359-.029-.058-.056-.118-.084-.18-.056-.122-.111-.244-.162-.368s-.1-.248-.151-.373l-.071-.186c-.024-.062-.047-.124-.069-.187s-.045-.126-.065-.189a13.406,13.406,0,0,1-.379-1.305L27.2,32.2c-.015-.067-.029-.135-.042-.2-.011-.051-.02-.1-.029-.151,0-.02-.009-.04-.011-.06-.018-.095-.033-.188-.047-.279-.018-.113-.033-.222-.045-.331-.005-.051-.011-.1-.016-.151C27,31,27,30.978,27,30.953c-.005-.055-.009-.109-.013-.162a3.406,3.406,0,0,1,.384-2.159,1.118,1.118,0,0,1,.129-.151.376.376,0,0,1,.046-.047q.049-.046.1-.093a1.093,1.093,0,0,1,.093-.069,2.413,2.413,0,0,1,.42-.24,2.721,2.721,0,0,1,.3-.118,3.582,3.582,0,0,1,.43-.113q.06-.014.12-.022c.042-.009.085-.015.127-.02s.082-.011.122-.015.071-.007.107-.009.084-.005.126-.007a3.505,3.505,0,0,1,.885.073c1.26.275.4,1.593,1.072,2.77a.985.985,0,0,0,.069.107.807.807,0,0,0,.069.091,1.655,1.655,0,0,0,.348.315.7.7,0,0,0,.065.044.183.183,0,0,0,.035.022.891.891,0,0,0,.089.049,1.217,1.217,0,0,0,.155.075,1.825,1.825,0,0,0,.226.078.708.708,0,0,0,.107.025.032.032,0,0,0,.013,0,2.035,2.035,0,0,0,.24.035,1.788,1.788,0,0,0,1.158-.328c.031-.022.062-.046.091-.069L34.134,31a1.155,1.155,0,0,0,.084-.08c.02-.02.04-.044.06-.066l.049-.064c.018-.024.035-.047.051-.071a2.007,2.007,0,0,0,.169-.324c.013-.031.024-.062.036-.095a3.415,3.415,0,0,0,.138-.5l.022-.109s0,0,0,0c.005-.038.013-.076.018-.115s.011-.078.016-.118c.011-.078.02-.16.029-.242.013-.126.022-.255.031-.388,0-.044.005-.089.007-.135,0-.089.007-.182.011-.275.011-.386.011-.8.007-1.229,0-.249-.007-.506-.009-.766,0-.176,0-.355,0-.535,0-.324,0-.655.006-.99v-.024c0-.2.011-.4.02-.606,0-.107.009-.217.016-.326.009-.146.02-.289.031-.435l.005-.067c.015-.153.029-.308.047-.46.036-.32.084-.639.146-.956.011-.062.024-.122.036-.182.005-.024.009-.049.016-.075.015-.073.033-.149.049-.222.029-.12.06-.24.095-.36.013-.045.024-.089.036-.133.04-.133.084-.266.129-.4.015-.042.029-.084.046-.126a7.3,7.3,0,0,1,.362-.832c.038-.073.076-.146.116-.217s.067-.122.1-.182a.341.341,0,0,1,.02-.033c.082-.135.169-.269.262-.4.018-.026.036-.051.056-.076.033-.045.067-.093.106-.138a6.414,6.414,0,0,1,1.991-1.682A12.369,12.369,0,0,1,45,15.694c2.122.08,5.095.983,6.6.937,1.216-.036,3.509-.9,6.82-.93.24,0,.475,0,.7.005.12,0,.238.007.355.013.038,0,.075,0,.111,0l.257.015c.122.007.24.016.357.025.087.007.173.015.257.024s.162.016.242.025c.064.007.127.015.191.024s.126.016.187.025c.124.016.246.035.364.056.06.009.12.02.178.031.118.02.233.044.346.069.053.011.106.022.156.035.148.033.289.069.428.107.076.02.151.042.224.064.053.016.106.031.155.047s.091.031.136.045c.1.035.206.071.3.108l.14.056A6.855,6.855,0,0,1,64.571,17c.058.035.115.069.169.106s.1.062.144.095.12.084.178.127l.14.106c.1.08.2.166.3.253s.184.169.269.257c.029.029.058.06.087.091.073.076.142.153.208.233s.133.158.195.24.124.166.18.251.116.171.169.26.106.176.157.268c.093.168.18.34.26.52.1.217.188.442.268.675q.046.128.087.262c.033.1.064.209.093.315.024.082.045.164.066.248.053.2.1.406.14.617.016.084.033.167.047.253s.029.169.044.255c.036.228.069.46.1.7.013.095.024.191.033.288.015.124.025.251.036.379s.02.244.029.366c.027.368.047.744.062,1.125,0,.128.009.255.013.384q.011.382.016.775.006.2.005.393c.006.342.007.688.009,1.036,0,.107,0,.215,0,.322,0,.215,0,.429,0,.646,0,.08,0,.158.007.235a.2.2,0,0,0,0,.033c0,.066.007.129.013.191s.013.133.022.2c0,.036.009.069.015.1.007.051.016.1.027.151.013.067.027.131.044.193s.031.116.047.171a.042.042,0,0,1,.005.016c.018.053.036.105.055.155,0,0,0,0,0,.007.022.053.044.106.067.155s.047.1.073.142c0,0,0,0,0,.007.025.044.051.085.076.124s.056.082.085.12a1.7,1.7,0,0,0,.3.3c.031.024.062.046.093.066,0,0,0,0,0,0,.035.022.069.042.106.062a1.353,1.353,0,0,0,.155.073c.044.016.085.031.129.044l.031.009c.04.011.078.02.118.027,0,0,.005,0,.007,0a.9.9,0,0,0,.122.018.091.091,0,0,0,.022,0,1.272,1.272,0,0,0,.144.007A1.393,1.393,0,0,0,70,31.444c.044,0,.087-.009.131-.016.016,0,.035-.005.053-.009a.913.913,0,0,0,.095-.022,1.054,1.054,0,0,0,.129-.036.352.352,0,0,0,.062-.022.893.893,0,0,0,.116-.045,1.914,1.914,0,0,0,.257-.133c.027-.016.055-.035.08-.053s.053-.036.078-.055.071-.056.105-.085.076-.069.113-.106a1.84,1.84,0,0,0,.359-.5,1.74,1.74,0,0,0,.109-.291c.024-.087.044-.173.06-.255s.027-.164.038-.242.016-.155.022-.229c.011-.14.015-.271.02-.393,0-.058,0-.113.007-.167s.005-.089.009-.133a.28.28,0,0,0,0-.038c.006-.044.011-.085.018-.126s.011-.055.018-.08a.464.464,0,0,1,.022-.076c.007-.02.015-.04.024-.06a.245.245,0,0,1,.015-.031c.007-.016.016-.031.026-.047A.381.381,0,0,1,72,28.146a.607.607,0,0,1,.073-.082.625.625,0,0,1,.053-.045.931.931,0,0,1,.308-.148.319.319,0,0,1,.046-.013.944.944,0,0,1,.12-.027l.058-.011c.046-.009.1-.015.149-.02s.1-.011.157-.015c.084-.006.171-.009.268-.011,1.241-.018,2.193-.024,2.6,1.074.881,2.365-1.858,9.634-4.512,9.976" transform="translate(0 0.001)" fill="#483a4b" fill-rule="evenodd"/>
    <path id="Path_73" data-name="Path 73" d="M168.953,545.651c-.521,1.647-.939,1.631-1.189,3.9-1.666.277-10.821-.828-12.516-1.329-4.074-.388-2.821.047-7.03-8.371-.828-1.655-4.8-9.247-5.069-10.248l2.346-.615,5.779-1.724c-.593,6.449,1.778,10.226,4.964,12.994a23.732,23.732,0,0,0,12.714,5.393" transform="translate(-123.67 -455.514)" fill="#a57d63" fill-rule="evenodd"/>
    <path id="Path_74" data-name="Path 74" d="M49.517,546.072l-4.674-1.318-1.949-.544-1.554-.468c-3.054-1.008-6.389-2.031-9.308-3.165l-2.19-.8.643-3.946a6.73,6.73,0,0,1,1.076-2.277,3.4,3.4,0,0,1,.885-1.64,5.13,5.13,0,0,1,1.485-1.782,4.974,4.974,0,0,1,1.767-1.351,10.085,10.085,0,0,1,1.822-1.267c.8-.5,1.048-.948,2.273-.8l.967,1.818.8,1.62,1.05,2.17.8,1.62,1.016,1.929.77,1.618,1.021,2.072.8,1.609Z" transform="translate(-25.78 -455.01)" fill="#aa3061" fill-rule="evenodd"/>
    <path id="Path_75" data-name="Path 75" d="M242.546,138.383v-.06a5.551,5.551,0,0,1,.051-1.038,1.66,1.66,0,0,1,.067-.253,1.146,1.146,0,0,1,.1-.215c.013-.024.027-.046.042-.067.029-.042.056-.082.084-.116s.053-.066.078-.093a.993.993,0,0,1,.222-.193l.04-.022a.387.387,0,0,1,.038-.02.784.784,0,0,1,.26-.056l.051-.005h.009a.46.46,0,0,0,.053-.011.31.31,0,0,0,.036-.015.186.186,0,0,0,.035-.022.105.105,0,0,0,.016-.015.5.5,0,0,0,.111-.257c.005-.029.011-.058.016-.093.018-.116.033-.268.046-.462,0-.033,0-.066.005-.1s0-.08.005-.122.005-.116.007-.178,0-.124.005-.189,0-.131,0-.2c0-.031,0-.06,0-.091,0-.051,0-.106,0-.16,0-.277.005-.593.005-.956v0c-.06,0-.118.009-.176.015q-.262.025-.508.071c-.109.02-.217.046-.32.071a4.895,4.895,0,0,0-.6.2c-.055.022-.109.046-.162.071-.031.013-.06.025-.087.04-.055.026-.109.053-.16.08-.087.045-.173.095-.255.147a3.966,3.966,0,0,0-.572.433c-.035.033-.069.064-.1.1s-.067.067-.1.1a.288.288,0,0,0-.046.049c-.04.04-.076.084-.111.126a3.706,3.706,0,0,0-.388.544c-.058.1-.111.193-.16.295,0,.009-.009.016-.013.026-.02.042-.04.085-.06.129a2.313,2.313,0,0,0-.106.295c-.013.04-.024.082-.035.126s-.024.089-.033.135-.02.093-.029.142-.02.1-.027.149c-.018.1-.033.208-.047.319-.007.056-.015.113-.02.169s-.013.116-.018.176l-.011.12c-.005.062-.011.122-.015.186s-.009.126-.013.191c0,.042-.005.086-.007.129,0,.065-.007.133-.009.2-.005.111-.011.226-.013.34v0c0,.093-.005.186-.007.28q-.006.18-.005.366c-.022,2.313.171,5.153.12,6.9,0,.1-.005.2-.011.293a4.258,4.258,0,0,1-.149,1.068c-1.751,4.993-9.785,13.131-17.05,13.1-3.205-.016-7-2.009-8.913-3.406-.058-.042-.118-.087-.178-.133l-.184-.14c-.062-.047-.126-.1-.188-.147-.271-.213-.555-.448-.848-.7-.1-.086-.2-.175-.3-.264s-.2-.182-.306-.277-.178-.162-.268-.246c-.532-.5-1.076-1.037-1.609-1.605-.1-.111-.208-.222-.309-.333-.411-.45-.812-.912-1.192-1.378l-.28-.351c-.045-.06-.091-.118-.136-.177s-.091-.118-.135-.176q-.268-.352-.513-.7c-.082-.118-.16-.235-.238-.351q-.262-.393-.486-.781c-.038-.064-.075-.127-.111-.193s-.071-.127-.1-.191-.067-.126-.1-.189a7.3,7.3,0,0,1-.628-1.615c-.451-1.9.577-9.361-.475-11.5-.029-.06-.06-.12-.093-.178-.051-.1-.107-.193-.167-.288l-.04-.062c-.035-.053-.069-.105-.108-.156s-.078-.107-.12-.158-.082-.1-.126-.151a3.676,3.676,0,0,0-.277-.282c-.066-.06-.133-.118-.2-.173-.04-.031-.08-.06-.12-.089s-.051-.036-.076-.053a2.874,2.874,0,0,0-.268-.168l-.076-.042c-.051-.027-.106-.055-.158-.08a3.458,3.458,0,0,0-.406-.16c-.046-.016-.093-.031-.14-.046-.1-.031-.206-.056-.313-.078-.044-.011-.086-.018-.129-.025a5.022,5.022,0,0,0-.872-.084v2.4a1.086,1.086,0,0,0,.1.166.505.505,0,0,0,.051.067.825.825,0,0,0,.164.149.616.616,0,0,0,.056.036l.006,0,.051.027a.031.031,0,0,1,.013.007.351.351,0,0,0,.045.02,1.709,1.709,0,0,1,.472.244.32.32,0,0,1,.024.024.1.1,0,0,1,.024.024l.026.027a.994.994,0,0,1,.171.306,1.653,1.653,0,0,1,.055.175c.005.02.011.044.016.066s.011.047.016.075a3.273,3.273,0,0,1,.051.329c.007.062.015.127.02.2.016.208.027.448.027.728h0a3.731,3.731,0,0,1-1.411-.883c-.055-.051-.107-.1-.162-.157-.071-.073-.14-.147-.209-.224s-.136-.156-.2-.238-.135-.166-.2-.251c-.2-.26-.384-.539-.564-.832-.058-.1-.118-.2-.175-.3s-.128-.228-.189-.344c-.031-.058-.062-.118-.091-.176-.06-.118-.12-.237-.177-.359-.029-.058-.056-.118-.084-.18-.056-.122-.109-.246-.162-.368s-.1-.248-.151-.373l-.071-.186c-.024-.062-.047-.124-.069-.187s-.045-.126-.065-.189a13.411,13.411,0,0,1-.379-1.305l-.038-.164c-.015-.067-.029-.135-.042-.2-.011-.051-.02-.1-.029-.151,0-.02-.009-.04-.011-.06-.018-.095-.033-.188-.047-.279-.018-.113-.033-.222-.045-.331-.005-.051-.011-.1-.016-.151,0-.026-.005-.051-.007-.076-.005-.055-.009-.109-.013-.162a3.406,3.406,0,0,1,.384-2.159,1.117,1.117,0,0,1,.129-.151.376.376,0,0,1,.046-.047q.049-.046.1-.093c.031-.024.06-.047.093-.069a2.411,2.411,0,0,1,.42-.24,2.715,2.715,0,0,1,.3-.118,3.582,3.582,0,0,1,.43-.113q.06-.014.12-.022c.042-.009.085-.015.127-.02s.082-.011.122-.015.071-.007.107-.009.084-.005.126-.007a3.5,3.5,0,0,1,.885.073c1.26.275.4,1.593,1.072,2.77a.984.984,0,0,0,.069.107.805.805,0,0,0,.069.091,1.654,1.654,0,0,0,.348.315.7.7,0,0,0,.065.044.183.183,0,0,0,.035.022.9.9,0,0,0,.089.049,1.222,1.222,0,0,0,.155.075,1.576,1.576,0,0,0,.226.078.706.706,0,0,0,.107.025.032.032,0,0,0,.013,0,2.03,2.03,0,0,0,.24.035,1.788,1.788,0,0,0,1.158-.328c.031-.022.062-.046.091-.069l.016-.015a1.157,1.157,0,0,0,.084-.08c.02-.02.04-.044.06-.066l.049-.064c.018-.024.035-.047.051-.071a2.006,2.006,0,0,0,.169-.324c.013-.031.024-.062.036-.095a3.419,3.419,0,0,0,.138-.5l.022-.109s0,0,0,0c.005-.038.013-.076.018-.115s.011-.078.016-.118c.011-.078.02-.16.029-.242.013-.126.022-.255.031-.388,0-.044.005-.089.007-.135.005-.089.009-.18.011-.275.011-.386.011-.8.007-1.229,0-.249-.007-.506-.009-.766,0-.176,0-.355,0-.535,0-.324,0-.655.006-.99v-.024c.005-.2.011-.4.02-.606,0-.107.009-.217.016-.326.009-.146.02-.289.031-.435l.005-.067c.015-.153.029-.308.047-.46.036-.32.084-.639.146-.956.011-.062.024-.122.036-.182.005-.024.009-.049.016-.075.015-.073.033-.149.049-.222.029-.12.06-.24.095-.36.013-.045.024-.089.036-.133.04-.133.084-.266.129-.4.015-.042.029-.084.046-.126a7.3,7.3,0,0,1,.362-.832c.038-.073.076-.146.116-.217s.067-.122.1-.182a.346.346,0,0,1,.02-.033c.082-.135.169-.269.262-.4.018-.026.036-.051.056-.076.035-.045.069-.093.106-.138a6.414,6.414,0,0,1,1.991-1.682,12.369,12.369,0,0,1,6.454-1.274c2.122.08,5.095.983,6.6.937,1.216-.036,3.509-.9,6.82-.93.24,0,.475,0,.7.005.12,0,.238.007.355.013.038,0,.075,0,.111,0l.257.015c.122.007.24.016.357.025.087.007.171.015.257.024s.162.016.242.025c.064.007.127.015.191.024s.126.016.187.025c.124.016.246.035.364.056.06.009.12.02.178.031.118.02.233.044.346.069.053.011.106.022.156.035.148.033.289.069.428.107.076.02.151.042.224.064.053.016.106.031.155.047s.091.031.136.045c.1.035.206.071.3.108l.14.056a6.854,6.854,0,0,1,1.056.521c.058.035.115.069.169.106s.1.062.144.095.12.084.178.127l.14.106c.1.08.2.166.3.253s.184.169.269.257c.029.029.058.06.087.091.071.076.14.153.208.233s.131.158.195.24.122.166.18.251.115.171.169.26.106.176.157.268c.093.168.18.34.26.521.1.217.188.442.268.675.031.086.06.175.087.262.033.1.064.209.093.315.024.082.045.164.066.248.053.2.1.406.14.617.016.084.033.167.047.253s.029.169.044.255c.036.228.069.46.1.7.013.095.024.191.033.288.015.124.025.251.036.379s.02.244.029.366c.027.368.047.744.062,1.125,0,.128.009.255.013.384q.011.382.016.775.006.2.005.393c.006.342.007.688.009,1.036,0,.107,0,.215,0,.322,0,.215,0,.429,0,.646,0,.08,0,.158.007.235a.2.2,0,0,0,0,.033c0,.066.007.129.013.191s.013.133.022.2c0,.036.009.069.015.1.007.051.016.1.027.151.013.067.027.131.044.193s.031.116.047.171a.042.042,0,0,1,.005.016c.018.053.036.105.055.155,0,0,0,0,0,.007.022.053.044.106.067.155s.047.1.073.142c0,0,0,0,0,.007a1.389,1.389,0,0,0,.076.124c.027.042.056.082.085.12a1.7,1.7,0,0,0,.3.3q.046.035.093.066s0,0,0,0c.035.022.069.044.106.062a1.356,1.356,0,0,0,.155.073c.044.016.085.031.129.044l.031.009c.04.011.078.02.118.027,0,0,.005,0,.007,0a.9.9,0,0,0,.122.018.091.091,0,0,0,.022,0,1.268,1.268,0,0,0,.144.007,1.389,1.389,0,0,0,.149-.007c.044,0,.087-.009.131-.016.016,0,.035-.005.053-.009a.911.911,0,0,0,.095-.022,1.057,1.057,0,0,0,.129-.036.353.353,0,0,0,.062-.022.9.9,0,0,0,.116-.045,1.916,1.916,0,0,0,.257-.133c.027-.016.055-.035.08-.053s.053-.036.078-.055.071-.056.105-.085.076-.069.113-.106a1.841,1.841,0,0,0,.359-.5,1.739,1.739,0,0,0,.109-.291c.024-.087.044-.173.06-.255a4.288,4.288,0,0,0,.06-.472c.011-.14.015-.271.02-.393,0-.058,0-.113.007-.167s.005-.089.009-.133a.277.277,0,0,0,0-.038c.006-.044.011-.085.018-.126s.011-.055.018-.08a.469.469,0,0,1,.022-.076c.007-.02.015-.04.024-.06a.238.238,0,0,1,.015-.031c.007-.016.016-.031.026-.047a.381.381,0,0,1,.029-.045.606.606,0,0,1,.073-.082.624.624,0,0,1,.053-.045.93.93,0,0,1,.308-.148.314.314,0,0,1,.046-.013.94.94,0,0,1,.12-.027l.058-.011c.046-.009.1-.015.149-.02s.1-.011.157-.015c.084-.006.171-.009.268-.011,1.241-.018,2.193-.024,2.6,1.074.881,2.365-1.858,9.634-4.512,9.977" transform="translate(-171.225 -99.557)" fill="#a57d63" fill-rule="evenodd"/>
    <path id="Path_76" data-name="Path 76" d="M395.3,511.216c0-.1-.005-.2-.011-.3,0-.055-.005-.109-.009-.164q-.036-.568-.12-1.118c-.006-.035-.011-.069-.016-.1-.022-.138-.047-.273-.075-.408-.02-.1-.04-.191-.064-.286s-.047-.2-.073-.293c-.015-.051-.029-.1-.044-.151a7.115,7.115,0,0,0-.229-.675.205.205,0,0,0-.009-.02c-.035-.089-.071-.175-.111-.259-.02-.046-.042-.091-.064-.136-.058-.118-.12-.233-.186-.34-.022-.038-.044-.075-.067-.111q-.09-.142-.186-.268a17.1,17.1,0,0,0-1.478,2.3c-.084.118-.171.235-.257.349a17.348,17.348,0,0,1-1.726,1.957q-.115.112-.229.219a.335.335,0,0,1-.036.035.354.354,0,0,1-.047.044v0c-.027.026-.055.051-.084.074-.069.067-.142.131-.213.195-.1.089-.2.179-.3.264q-.254.219-.519.426l-.186.146c-.395.3-.8.593-1.223.866q0,4.306-.005,8.609c.071-.033.142-.067.213-.1s.138-.067.208-.1q.62-.309,1.2-.655c.076-.045.153-.091.227-.138q.344-.213.672-.437c.324-.224.637-.457.936-.7.062-.051.124-.1.186-.155a12.411,12.411,0,0,0,1.174-1.114c.062-.065.122-.133.182-.2a10.768,10.768,0,0,0,.834-1.063c.062-.089.122-.178.178-.268s.115-.18.171-.271v0c.051-.082.1-.16.144-.244s.093-.167.137-.251.075-.14.109-.211a.98.98,0,0,0,.044-.089c.035-.069.069-.14.1-.211s.075-.166.111-.249c.115-.268.217-.541.308-.821a10.929,10.929,0,0,0,.444-3.407c0-.053,0-.106,0-.158m-7.57,10.85v0l-.34.158c.115-.051.228-.1.34-.157m-.686.308c-.348.149-.7.291-1.065.426q.543-.2,1.065-.426m-2.17.808q-1.125.358-2.312.626c.79-.177,1.564-.386,2.312-.626m-4.729,1.072-.41.056c-.137.018-.275.035-.413.051l-.171.022c.058-.006.115-.013.171-.02.035,0,.067-.007.1-.013.089-.009.177-.02.264-.033.069-.007.138-.016.206-.028l.253-.034.155-.024.255-.038.06-.011a.594.594,0,0,1-.06.009l-.409.062m-1.443.176c.069-.005.138-.013.207-.02l.044-.005a.351.351,0,0,1-.044,0q-.1.014-.207.022m-1.094.093-.031,0a.226.226,0,0,1-.035,0c-.111.009-.222.015-.333.022q-.1.008-.2.011c.1,0,.2-.009.3-.016l.1-.006c.1-.007.206-.013.309-.022l-.086.006a.151.151,0,0,1-.027,0m-3.043.08q.161.005.322.006.439,0,.879-.006c-.238,0-.475.006-.713,0-.162,0-.326,0-.488,0" transform="translate(-323.597 -437.648)" fill="#e7a046" fill-rule="evenodd"/>
    <path id="Path_77" data-name="Path 77" d="M527.025,165.851c.005-.056.007-.113.009-.169a2.739,2.739,0,0,1-.033.6c.009-.146.018-.289.024-.433" transform="translate(-455.287 -143.136)" fill="#55514e" fill-rule="evenodd"/>
    <path id="Path_78" data-name="Path 78" d="M269.425,45.156c0,.189,0,.38-.007.572s-.011.377-.02.566a.03.03,0,0,1,0,.018,7.068,7.068,0,0,0-.242-1.411c-.013-.051-.027-.1-.042-.155-.026-.095-.055-.191-.084-.288-.02-.066-.04-.133-.062-.2-.178-.559-.393-1.121-.613-1.631-.042-.1-.084-.195-.126-.288a11.805,11.805,0,0,0-.715-1.378c-4.024-6.32-11.7-5.359-17.681-4.4-1.276.2-5.259-.708-7.175-.776-5.532-.193-10.7,1.767-12.871,6.96a17.3,17.3,0,0,0-.761,2.45c-.016.051-.047.124-.062.164l-.144.326c-.715-11.873,9.227-18.511,21.045-18.156a24.4,24.4,0,0,1,12.1,3.2c.2.122.395.248.588.377.289.195.573.4.846.613.177.133.349.273.519.415.269.226.532.462.783.71.053.047.1.1.155.149a14.812,14.812,0,0,1,3.6,5.834c.035.1.065.2.1.3a19.838,19.838,0,0,1,.874,6.036" transform="translate(-197.651 -23.771)" fill="#55514e" fill-rule="evenodd"/>
    <path id="Path_79" data-name="Path 79" d="M462.69,529.746c-.5,1.493-6.443,13.069-7.663,15.515-.113.226-.213.433-.3.621-.053.113-.1.218-.151.317-.127.269-.231.5-.322.684-.023.046-.044.087-.064.129a3.536,3.536,0,0,1-.284.493c-.018.024-.036.047-.055.069s-.036.042-.055.06a.832.832,0,0,1-.177.137.576.576,0,0,1-.058.031l-.049.022-.013.006a.675.675,0,0,1-.064.024l-.075.022c-.016.005-.035.009-.055.015-.045.011-.095.022-.146.031l-.109.02q-.117.019-.257.038l-.373.053-.156.022-.211.033c-.295.047-.591.1-.886.147l-.965.166c-.526.093-1.05.184-1.576.266-.133.022-.264.042-.395.062-.218.035-.439.066-.659.095-.175.024-.348.047-.522.067-.144.016-.28.035-.411.051-.16.02-.311.042-.453.06l-.169.024-.253.036-.184.027-.284.04c-.036.005-.071.011-.106.015a4.8,4.8,0,0,1-1.167.075,1.686,1.686,0,0,1-.2-.036c-.035-.007-.069-.018-.1-.029s-.051-.016-.077-.026-.049-.02-.075-.031a2.4,2.4,0,0,1-.466-.271c-.027-.02-.058-.04-.087-.064-.18-.133-.384-.3-.628-.5A24.986,24.986,0,0,0,439,545.615l.743-.426c.16-.058.593-.149.8-.2.249-.067.508-.142.772-.224.091-.027.184-.056.277-.087.178-.057.359-.118.542-.182l.333-.118c.324-.118.654-.246.986-.379v0l.029-.011c.206-.086.411-.171.619-.262.109-.046.217-.095.326-.144s.217-.1.324-.148.217-.1.324-.153.213-.1.32-.157.213-.106.32-.16.213-.107.317-.164c.253-.131.5-.268.746-.408.082-.045.164-.093.244-.14s.162-.093.24-.142a18.157,18.157,0,0,0,1.676-1.127c.084-.064.167-.127.249-.193.142-.113.279-.227.41-.342,0,0,.006,0,.007-.007q.077-.066.153-.137t.164-.153c.062-.057.12-.113.177-.171.076-.076.151-.155.222-.231l.258-.284c.361-.4.69-.774.992-1.14.126-.149.246-.3.36-.446,0,0,0,0,0-.005.067-.084.131-.167.193-.249v0c.047-.062.093-.122.137-.182.124-.167.24-.333.351-.5.051-.075.1-.148.148-.222.105-.164.2-.326.3-.49.036-.064.073-.129.107-.193l.022-.038c.035-.062.067-.126.1-.189s.08-.153.116-.231a.081.081,0,0,0,.009-.018c.035-.071.069-.142.1-.215s.071-.155.1-.233.069-.166.1-.251.06-.153.087-.231c.073-.2.138-.4.2-.612.016-.053.033-.109.047-.164.062-.224.116-.453.167-.692l.033-.155c.025-.133.049-.269.073-.41.009-.047.016-.1.024-.146.02-.127.038-.257.056-.388.015-.113.027-.227.04-.344.027-.249.049-.508.069-.777.007-.1.015-.207.02-.313.024-.441.04-.9.045-1.4,0-.084,0-.167,0-.251,0-.5,0-1.037-.016-1.607Z" transform="translate(-379.261 -455.605)" fill="#b48a6e" fill-rule="evenodd"/>
    <path id="Path_80" data-name="Path 80" d="M466.448,504.69a3.752,3.752,0,0,1,.424-.087c-.14.022-.28.051-.424.087" transform="translate(-402.974 -435.937)" fill="#b48a6e" fill-rule="evenodd"/>
    <path id="Path_81" data-name="Path 81" d="M473.144,504.74a5.021,5.021,0,0,1-.32.515c-.029.042-.058.084-.089.124a.1.1,0,0,1-.011.015c-.033.045-.065.089-.1.133l-.107.135c-.036.044-.073.089-.111.133-.075.089-.155.178-.238.268-.064.071-.131.14-.2.211-.015.015-.027.029-.042.042q-.117.12-.246.24c-.111.106-.226.211-.344.315q0-1.275,0-2.548c.089-.007.178-.013.268-.013s.155,0,.231.009a.351.351,0,0,1,.062.005c.062.005.122.013.182.024a3.407,3.407,0,0,1,.342.078c.038.011.076.024.115.036a3.5,3.5,0,0,1,.613.279" transform="translate(-407.193 -435.683)" fill="#b48a6e" fill-rule="evenodd"/>
    <path id="Path_82" data-name="Path 82" d="M318.66,451.424c-3.577.963-3.016,1.982-9.884,2.7l-2.69-.042c-5.16-.244-7.4-2.059-9.607-2.7l.06-5.446a42.171,42.171,0,0,0,4.651,2.565c3.726,1.505,3.8.925,5.47,1.429l1.948,0c.761-.244,2.009-.273,2.956-.553a22.814,22.814,0,0,0,2.508-.9c1.809-.77,3.113-1.809,4.545-2.477Z" transform="translate(-256.134 -385.253)" fill="#729ab0" fill-rule="evenodd"/>
    <path id="Path_83" data-name="Path 83" d="M261.625,512.876q0,4.306-.005,8.609l-.34.158c-.115.051-.229.1-.346.151-.348.149-.7.291-1.065.426-.122.046-.242.089-.364.133-.246.085-.492.169-.741.249q-1.125.358-2.312.626c-.395.091-.8.173-1.2.246-.249.046-.5.089-.75.129-.02,0-.04.007-.06.009l-.41.062-.41.057c-.136.018-.275.034-.413.051l-.171.022c-.066.007-.131.016-.2.022a.363.363,0,0,1-.044,0q-.1.014-.208.022c-.208.022-.415.042-.624.058a.355.355,0,0,1-.062.006c-.1.007-.2.016-.295.022l-.086.005a.14.14,0,0,1-.027,0l-.031,0a.242.242,0,0,1-.035,0c-.111.009-.222.015-.333.022q-.1.008-.2.011c-.2.013-.406.02-.608.027s-.422.013-.633.016c-.238,0-.475.005-.713,0-.162,0-.326,0-.488,0,0,0,0,0-.007,0a0,0,0,0,1,0,0,.2.2,0,0,1-.045,0c-.557-.009-1.114-.031-1.669-.069q-.164-.008-.328-.022c-.126-.007-.249-.018-.373-.029-.1-.007-.193-.016-.288-.026-.237-.022-.472-.045-.7-.073-.095-.009-.187-.02-.28-.033-.16-.018-.319-.038-.477-.06-.093-.011-.186-.026-.279-.038q-.42-.06-.835-.131c-.062-.011-.122-.02-.182-.033-.284-.047-.566-.1-.846-.16a27.936,27.936,0,0,1-4.068-1.141q-.47-.172-.923-.36a18.73,18.73,0,0,1-3.706-2.026,11.742,11.742,0,0,1-4.285-5.539c-1.252-3.637-.149-5.4.674-8.371l.77,1.132c.255.435.415.7.7,1.1,3.928,5.522,10.817,8.294,17.692,8.294.14,0,.282,0,.422,0s.28-.005.42-.011.286-.009.43-.016.275-.016.411-.026.28-.018.42-.031.275-.024.411-.038a.133.133,0,0,0,.026,0c.133-.013.268-.028.4-.044.1-.011.2-.022.3-.036.077-.009.151-.02.226-.031.4-.053.794-.118,1.189-.193.1-.018.193-.036.288-.057.318-.062.635-.133.95-.209l.34-.086c.217-.055.433-.115.65-.178.1-.029.2-.058.3-.089s.229-.069.342-.106.2-.065.3-.1.189-.064.284-.1.16-.057.24-.087c.5-.18.987-.377,1.467-.593q.284-.126.562-.262.142-.066.279-.137c.191-.095.382-.195.57-.3q.172-.093.344-.191c.184-.1.366-.209.546-.319.113-.069.226-.138.337-.211.06-.037.12-.077.18-.115" transform="translate(-197.483 -437.07)" fill="#e7a046" fill-rule="evenodd"/>
    <path id="Path_84" data-name="Path 84" d="M358.271,669.668c-.832-4.374-8.282-3.457-7.2,1.6a3.685,3.685,0,0,0,7.2-1.6m-2.843,2.408a1.818,1.818,0,0,1-2.384-.848,1.909,1.909,0,0,1-.091-1.42c.269-.866.44-.673.952-.925,2.333-1.147,3.59,2.312,1.524,3.193" transform="translate(-303.209 -576.121)" fill="#e7a046" fill-rule="evenodd"/>
    <path id="Path_85" data-name="Path 85" d="M298.979,506.8c-.2.173-.406.346-.623.517-.051.038-.1.078-.153.116-.169.131-.344.258-.524.386-.226.158-.459.315-.7.468-.144.091-.289.182-.439.271-.133.08-.266.158-.4.235q-.366.207-.748.4c-.1.051-.2.1-.3.151l-.217.1-.215.1c-.106.049-.211.1-.319.144q-.123.057-.251.109c-.109.047-.22.095-.333.138s-.224.091-.337.133-.215.082-.324.122c-.457.166-.921.313-1.387.439-.1.029-.206.056-.308.08-.253.064-.5.12-.757.171-.1.02-.209.04-.315.058h-.006c-.105.02-.211.036-.317.053l-.047.005q-.161.025-.322.044h0c-.115.015-.229.027-.342.036s-.228.02-.34.027a17.424,17.424,0,0,1-5.264.027c-4.86-.375-10.368-3.622-11.864-6.427,2.951-1.938,4.791,2.546,14.423,2.557.149,0,.3,0,.442,0,.209,0,.415-.007.617-.015a.224.224,0,0,0,.036,0c.115,0,.229-.009.342-.015q.464-.022.9-.06c.093-.007.184-.015.273-.024.513-.049,1-.111,1.458-.186.086-.013.169-.027.253-.042.187-.031.369-.066.548-.1l.238-.049c.184-.038.364-.078.539-.12q.213-.049.415-.1l.226-.06c.3-.08.584-.166.857-.253l.2-.065c.737-.242,1.389-.5,1.975-.746.106-.044.211-.089.313-.133.566-.242,1.072-.466,1.542-.643.042-.016.084-.033.126-.047.08-.031.162-.058.24-.086l.136-.046c.08-.025.158-.049.235-.069.049-.015.1-.027.144-.038.144-.036.284-.065.424-.087q.123-.019.24-.027.006,1.275,0,2.548" transform="translate(-234.837 -435.613)" fill="#a57d63" fill-rule="evenodd"/>
    <path id="Path_86" data-name="Path 86" d="M187.342,386.184c-.666.231-.18.249-.926.375l-6.8.036c-3.038.029-2.321-2.084-1.56-2.581.71-.464,6.682-.235,7.779-.235,1.682.111,1.988.761,1.509,2.4" transform="translate(-153.251 -331.506)" fill="#aa3061" fill-rule="evenodd"/>
    <path id="Path_87" data-name="Path 87" d="M514.506,384.464c0,2.634-.539,2.2-4.006,2.2-1.675,0-4.49.3-5.81-.4L504.5,384.6a2.105,2.105,0,0,1,1.791-.733H510.7c2.071,0,2.485-.284,3.806.6" transform="translate(-435.85 -331.59)" fill="#aa2f61" fill-rule="evenodd"/>
    <path id="Path_88" data-name="Path 88" d="M365.9,680.208c-.511.251-.683.058-.953.925a1.917,1.917,0,0,0,.091,1.421,1.82,1.82,0,0,0,2.386.847c2.065-.881.809-4.34-1.524-3.193" transform="translate(-315.206 -587.447)" fill="#5582c2" fill-rule="evenodd"/>
    <path id="Path_89" data-name="Path 89" d="M552.691,479.147a29.961,29.961,0,0,0,2.6-2.545c4.807-4.826,3.617-4.8,8.2-.213,1.033,1.033,2.071,1.733.529,3.253l-7.63,7.626c-3.484,3.484-3.316,4.051-5.766,1.6l-5.107-5.107c-2.358-2.358-2.134-1.977,1.559-5.678.457-.458.824-.858,1.29-1.3,1.5-1.414,2.769,1.035,4.325,2.363M535.5,467.27c-.051,5.367-.15,11.085.047,16.428.21,5.71,1.267,9.069,4.091,12.412l2.055,2.077a48.253,48.253,0,0,0,7.3,5.114l4.018,2.184c.73.388.759.505,1.529.1,1.023-.543,4.76-2.454,5.2-3.006-1.741-7.09,1.282-13.638,6.715-17.652a16.782,16.782,0,0,1,5-2.377c.493-.138.557-.037.76-.4v-14.88c-1.339-.444-3.177-1.446-4.536-2.05-2.062-.915-13.372-6.3-13.826-6.3-.544-.005-16.1,7.471-18.354,8.354" transform="translate(-462.567 -396.467)" fill="#fefefe" fill-rule="evenodd"/>
    <path id="Path_90" data-name="Path 90" d="M536.13,430.928a15.472,15.472,0,0,0-4.137-5.69c-.511-.428-.77-.728-1.332-1.125-.455-.32-.963-.673-1.474-.981a13.186,13.186,0,0,0-3.568-1.476l.007-19.787c-.005-1.836-1.325-1.747-3.668-2.925-1.019-.513-2-.865-3.02-1.376-1.079-.543-2.228-1.292-3,.04-.339,1.767.821,1.782,3.069,2.863.553.268,3.912,1.64,3.988,2.051V420.97l-3.584-.042v-14.4c.009-2.117-.2-2-1.88-2.77-4.332-1.989-8.591-3.97-12.934-5.945-1.207-.548-5.628-2.931-6.675-2.565l-16.587,7.638-2.8,1.29c-.128.064-.24.12-.342.18-.06.036-.116.071-.169.109-.025.018-.051.038-.075.058l0,0c-.02.017-.038.033-.055.049a.32.32,0,0,0-.036.035.309.309,0,0,0-.035.038.032.032,0,0,0-.011.013.956.956,0,0,0-.064.082c-.018.027-.037.058-.055.089a.393.393,0,0,0-.024.047.315.315,0,0,0-.022.051c-.015.035-.027.071-.04.109-.005.018-.011.038-.016.06a.525.525,0,0,0-.015.056.453.453,0,0,0-.009.047c-.011.055-.02.113-.027.177q-.006.066-.011.136,0,.046-.005.1c-.031.75,0,1.576,0,2.335,0,1.405-.009,2.859-.016,4.328,0,.229,0,.457,0,.686,0,.566-.007,1.134-.009,1.7v.3c0,.75,0,1.5,0,2.242q0,.71.005,1.413c.006.566.011,1.127.02,1.68,0,.3.009.59.015.881s.013.582.02.87c.005.184.009.366.016.546,0,.087.005.175.009.26,0,.133.009.266.015.4.015.4.035.792.06,1.183.007.129.016.26.026.39.029.4.064.806.107,1.2.013.117.025.235.04.351.016.146.035.288.055.431.006.051.013.1.022.155l.022.157c.018.126.038.251.058.377,0,.026.009.053.013.078.018.1.035.2.053.3.022.126.045.251.071.375.011.058.024.12.035.18.044.2.087.406.136.61l.033.131c.027.109.055.218.084.328s.058.218.089.328c.018.062.035.126.055.188.033.113.067.224.1.337s.071.219.107.328q.036.109.077.218c.027.086.058.167.091.251.02.06.044.118.067.177s.044.118.067.175c.049.126.1.249.153.373q.1.227.2.448c.009.022.018.042.029.064q.1.219.207.432a.119.119,0,0,0,.011.022c.076.155.155.306.237.457s.166.306.253.457l.065.115c.069.118.138.235.209.349.085.142.175.284.268.422.045.073.093.144.144.217q.27.409.566.8.109.15.224.295.314.41.653.8.284.333.581.653c.093.1.187.2.282.3q.552.579,1.145,1.125.153.142.311.284.9.805,1.868,1.545c.116.091.235.18.355.269a.935.935,0,0,0,.084.064c.087.066.175.131.262.193q.178.131.355.257a.047.047,0,0,0,.02.015c.373.268.75.528,1.13.785.131.087.262.175.393.258q.6.4,1.212.774c.171.107.344.213.517.317.064.04.127.078.191.117.1.064.208.126.309.186q.344.2.692.408c.18.106.362.209.544.313q1.18.677,2.354,1.314c.278.153.559.3.835.455,3.477,1.884,2.69,1.369,6.431-.49a32.8,32.8,0,0,1,3.042-1.629l1.731,3.154-3.531,1.911c-1.11.63-2.4,1.256-3.6,1.824-.781.371-1.083.744-1.849.384l-5.41-2.745c-3.759-1.944-9.709-5.914-12.483-9.106-.118-.136-.235-.271-.348-.406-.084-.1-.166-.195-.246-.291s-.137-.164-.2-.246q-.257-.311-.5-.621c-.08-.1-.16-.206-.238-.309s-.156-.206-.231-.31-.144-.195-.213-.293a.1.1,0,0,1-.013-.016c-.058-.078-.113-.158-.168-.237s-.091-.131-.135-.2c-.06-.084-.118-.171-.175-.257l-.009-.015c-.08-.12-.156-.24-.233-.36q-.221-.349-.426-.7c-.04-.067-.078-.135-.116-.2-.147-.26-.288-.524-.422-.794-.04-.078-.08-.158-.116-.238-.111-.229-.218-.46-.32-.7-.033-.071-.064-.148-.093-.22a.024.024,0,0,1-.005-.015c-.035-.082-.069-.164-.1-.247s-.058-.142-.085-.215c-.047-.124-.093-.248-.14-.373-.14-.391-.271-.794-.393-1.21-.042-.146-.084-.291-.122-.441s-.078-.3-.116-.45c-.029-.113-.056-.228-.082-.342s-.051-.22-.075-.331c-.04-.182-.076-.366-.115-.553-.018-.1-.038-.2-.057-.306-.024-.133-.049-.269-.071-.406s-.046-.277-.067-.419c-.013-.091-.027-.182-.04-.273s-.027-.188-.04-.284q-.09-.653-.16-1.354-.1-.988-.158-2.077c-.011-.206-.022-.41-.031-.617s-.02-.413-.029-.621a.812.812,0,0,1-.005-.095c-.015-.284-.024-.566-.035-.852-.009-.26-.018-.522-.025-.785-.006-.208-.013-.417-.018-.626-.009-.268-.015-.537-.02-.806-.009-.349-.015-.7-.018-1.052,0-.029,0-.058,0-.087-.006-.279-.009-.559-.011-.839s-.005-.561-.007-.843q-.005-.841-.005-1.682c0-1.582.013-3.171.029-4.753,0-.344.007-.686.011-1.03v0q.005-.669.014-1.334c.007-.786.016-1.571.022-2.35,0-.473.007-.947.009-1.416,0-.144,0-.288,0-.43q0-.625,0-1.241c.087-.43,1.687-.979,2.081-1.156l3.256-1.5,15.863-7.3c2.772-1.236,2.951-1.808,4.252-1.143,1.323.675,2.874,1.336,4.259,1.953,1.187.528,3.438,2.081,4.119.488,1.057-1.553-1.824-2.235-3.577-3.1-.535-.264-1.017-.455-1.594-.734-1.1-.526-2.091-.977-3.18-1.474a3.6,3.6,0,0,0-.675-.251h-.5a2.812,2.812,0,0,0-.646.255l-8.145,3.751c-1.092.488-2.088.941-3.185,1.469-3.114,1.5-6.442,2.947-9.671,4.425l-.735.339q-1.226.565-2.425,1.138l-.1.047c-1.807.868-1.973.557-1.984,2.263v.6q0,.759,0,1.518.005,1.275,0,2.548,0,2.31,0,4.62,0,4.306-.005,8.61V421.4q0,1.253.056,2.45v0a40.042,40.042,0,0,0,.566,5.222c.049.288.1.57.162.85a23.566,23.566,0,0,0,.777,2.85,23.29,23.29,0,0,0,3.664,6.8,35.6,35.6,0,0,0,4.072,4.308c.191.171.38.335.566.491a39.14,39.14,0,0,0,3.322,2.543c1.068.73,2.115,1.371,3.569,2.332,1.958,1.3,5.588,3.095,7.725,4.172,3.133,1.578,2.561,1.391,6.636-.648,2.565-1.281,3.919-2.153,6.119-3.318a16.108,16.108,0,0,1,1.333,1.125,17.569,17.569,0,0,0,4.614,2.756,16.939,16.939,0,0,0,5.4,1.163h1.624a16.842,16.842,0,0,0,5.388-1.163,18.458,18.458,0,0,0,4.621-2.749l1.287-1.169c2.594-3.138,4.019-5.153,4.658-10.082.013-.095.024-.191.033-.286v-2.841a18.093,18.093,0,0,0-1.383-5.28m-31.777,10.639c-.442.553-4.181,2.465-5.2,3.007-.77.41-.8.293-1.529-.1l-4.019-2.184a48.222,48.222,0,0,1-7.3-5.115l-2.055-2.077c-.067-.078-.133-.156-.2-.237-.051-.06-.1-.122-.149-.184l-.013-.016c-.057-.069-.111-.14-.168-.211-.074-.1-.149-.2-.222-.295,0,0,0,0,0,0-.066-.086-.128-.173-.189-.26l-.011-.016c-.065-.091-.127-.182-.189-.273s-.117-.169-.173-.255l-.011-.018s-.006-.007-.007-.011c-.042-.064-.08-.126-.12-.189-.053-.084-.106-.167-.157-.251s-.1-.173-.153-.258a.017.017,0,0,1-.005-.009c-.035-.06-.069-.12-.1-.18q-.1-.169-.186-.344c-.075-.138-.146-.28-.213-.422-.04-.08-.078-.162-.115-.242-.066-.137-.126-.275-.184-.415-.031-.069-.06-.14-.089-.211s-.056-.142-.084-.213c-.111-.286-.215-.575-.309-.874-.005-.015-.009-.031-.015-.046-.024-.075-.047-.149-.069-.224l-.049-.167a.428.428,0,0,1-.013-.044c-.038-.128-.073-.255-.106-.386-.009-.027-.016-.056-.024-.086-.038-.142-.073-.288-.105-.433a.011.011,0,0,1,0-.007c-.007-.033-.016-.065-.024-.1-.018-.077-.035-.155-.049-.233l-.005-.024c-.011-.044-.02-.087-.029-.131-.058-.282-.111-.57-.16-.863-.022-.133-.042-.268-.062-.4s-.036-.247-.053-.375c-.024-.173-.044-.348-.064-.524-.018-.147-.033-.295-.049-.446-.013-.133-.025-.268-.036-.4-.009-.106-.018-.209-.027-.317,0-.031-.005-.064-.007-.1q-.011-.156-.022-.317c-.009-.129-.018-.26-.025-.393s-.017-.3-.024-.45c-.009-.184-.016-.369-.024-.557-.007-.213-.015-.428-.022-.643-.006-.156-.009-.313-.015-.471-.007-.273-.015-.548-.022-.823s-.011-.522-.016-.786c-.007-.39-.015-.783-.02-1.176q-.008-.655-.015-1.316v-.007c-.029-3.746.029-7.554.064-11.2.087-.035.2-.078.324-.133l.148-.064.044-.018.147-.064.2-.086c.056-.027.116-.053.178-.08l.144-.064c.036-.018.075-.035.115-.051s.078-.036.118-.053c.08-.038.162-.075.248-.113l.677-.308.293-.135c.075-.035.149-.067.226-.1s.124-.056.186-.085c.4-.18.814-.375,1.25-.577l.013-.005.3-.138.273-.128.512-.237.222-.105s.005,0,.009,0l.133-.062.324-.151c.253-.118.51-.237.768-.359l.391-.182a.108.108,0,0,0,.022-.009l.273-.129q.554-.259,1.108-.517l.279-.131.1-.047.4-.186c.208-.1.411-.193.613-.286l.277-.129c1.025-.479,2.026-.945,2.952-1.374.12-.055.24-.111.357-.166l.175-.08.344-.158c.513-.237.994-.459,1.432-.657q.148-.068.289-.131l.089-.04.32-.146q.131-.06.257-.115l.362-.16.009,0,.208-.093c.324-.142.592-.255.794-.337l.128-.051.069-.026c.025-.011.051-.02.073-.027a.167.167,0,0,1,.031-.011.4.4,0,0,1,.049-.016c.029-.009.053-.016.071-.02l.02,0,.016,0c.453.005,11.764,5.386,13.826,6.3,1.36.6,3.2,1.607,4.536,2.05v14.88c-.2.364-.268.262-.759.4a16.773,16.773,0,0,0-5,2.377c-5.433,4.014-8.457,10.561-6.715,17.65m17.5,10.293a14.218,14.218,0,1,1,13.02-15.322,14.22,14.22,0,0,1-13.02,15.322" transform="translate(-407.181 -335.46)" fill="#483a4b" fill-rule="evenodd"/>
    <path id="Path_91" data-name="Path 91" d="M742.667,651.655c.006-1.159-.012-2.344,1.294-2.344s1.292,1.191,1.292,2.352c4.545.94,3.387,3.542,1.824,3.457-.536-.029-1.1-.579-1.826-.775l.032,5.033c2.435.769,4.492,2.319,4.325,5.439a5.8,5.8,0,0,1-4.355,5.261c0,.693.279,2.528-1.292,2.529-1.54,0-1.292-1.749-1.292-2.369a6.767,6.767,0,0,1-2.743-.72c-.765-.378-1.622-.754-1.609-1.7a1.275,1.275,0,0,1,1.947-1.091,5.035,5.035,0,0,0,2.4.922l0-6.582a7.456,7.456,0,0,1-2.721-1.648c-2.247-2.237-1.221-6.95,2.72-7.759m.214-4.872a14.218,14.218,0,1,0,15.253,13.025,14.217,14.217,0,0,0-15.253-13.025" transform="translate(-630.436 -558.73)" fill="#feca7c" fill-rule="evenodd"/>
    <path id="Path_92" data-name="Path 92" d="M531.773,415.636c-.467-.228-.9-.468-1.4-.684a5.953,5.953,0,0,0-1.46-.561c-.447.389-.763.919-1.67.592-.759-.273-.889-.915-.717-1.8-.493-.2-.99-.426-1.49-.648a6.424,6.424,0,0,0-1.469-.645c-.682,1.593-2.933.041-4.118-.487-1.386-.617-2.937-1.278-4.259-1.953-1.3-.665-1.48-.092-4.253,1.142l-19.118,8.8c-.393.177-1.994.727-2.08,1.156,0,6.991-.269,14.544.116,21.46.432,7.761,2.258,11.365,6.031,15.708,2.774,3.193,8.724,7.163,12.482,9.107l5.409,2.746c.767.36,1.069-.014,1.85-.384,1.2-.568,2.491-1.194,3.6-1.825l3.53-1.911-1.729-3.154a32.1,32.1,0,0,0-3.042,1.629c-3.741,1.859-2.955,2.374-6.43.49-6.883-3.731-14.581-8.15-17.067-16.032a29.7,29.7,0,0,1-1.1-8.3c-.118-4.458-.029-9.532-.029-14.1,0-.759-.032-1.585,0-2.334.036-.9.339-1.1,1.015-1.44l19.389-8.927c1.046-.366,5.468,2.016,6.674,2.565,4.344,1.975,8.6,3.954,12.935,5.943,1.683.772,1.889.654,1.88,2.77v14.4l3.585.043V420.549c-.077-.411-3.434-1.784-3.988-2.05-2.248-1.081-3.408-1.1-3.069-2.863" transform="translate(-423.013 -353.487)" fill="#729ab0" fill-rule="evenodd"/>
    <path id="Path_93" data-name="Path 93" d="M607.014,576.443c-.59-.435-5.35-5.2-5.589-5.639l2.031-2.056c.724.246,1.889,1.738,2.512,2.318,1.3,1.214,2.357-.321,2.992-.954.83-.829,1.563-1.562,2.392-2.392a31.444,31.444,0,0,1,2.448-2.4l2.131,2.126Zm-.042-8.088c-1.557-1.328-2.828-3.777-4.325-2.363-.466.441-.833.841-1.29,1.3-3.694,3.7-3.917,3.321-1.559,5.679l5.107,5.107c2.45,2.45,2.282,1.884,5.766-1.6l7.63-7.627c1.542-1.519.5-2.22-.529-3.253-4.582-4.582-3.392-4.613-8.2.214a29.948,29.948,0,0,1-2.6,2.545" transform="translate(-516.848 -485.674)" fill="#483a4b" fill-rule="evenodd"/>
    <path id="Path_94" data-name="Path 94" d="M799.722,683.669l0-5.2c2.646.987,2.041,4.333,0,5.2m-2.594-12.964.009,3.811c-.817-.357-1.355-.723-1.3-1.865a2.1,2.1,0,0,1,1.286-1.945m.007-2.71c-3.941.809-4.967,5.522-2.72,7.759a7.461,7.461,0,0,0,2.721,1.648l0,6.582a5.032,5.032,0,0,1-2.4-.922,1.275,1.275,0,0,0-1.947,1.091c-.013.951.844,1.326,1.609,1.7a6.773,6.773,0,0,0,2.743.72c0,.62-.248,2.37,1.292,2.368,1.571,0,1.292-1.836,1.292-2.529a5.8,5.8,0,0,0,4.355-5.261c.167-3.119-1.891-4.669-4.325-5.439l-.032-5.033c.723.2,1.29.746,1.826.775,1.564.085,2.722-2.517-1.824-3.457,0-1.161.014-2.352-1.292-2.352s-1.288,1.185-1.295,2.344" transform="translate(-684.904 -575.071)" fill="#483a4b" fill-rule="evenodd"/>
    <path id="Path_95" data-name="Path 95" d="M636.037,587.4l-2.131-2.126a31.489,31.489,0,0,0-2.448,2.4c-.829.83-1.562,1.563-2.392,2.392-.635.634-1.687,2.168-2.992.954-.623-.58-1.788-2.072-2.512-2.317l-2.031,2.056c.239.437,5,5.2,5.589,5.639Z" transform="translate(-536.954 -505.631)" fill="#88a80d" fill-rule="evenodd"/>
    <path id="Path_96" data-name="Path 96" d="M843.761,765.064c2.042-.863,2.648-4.209,0-5.2Z" transform="translate(-728.943 -656.466)" fill="#feca7c" fill-rule="evenodd"/>
    <path id="Path_97" data-name="Path 97" d="M760.236,434.041c-.172.89-.042,1.531.717,1.8.907.327,1.223-.2,1.67-.592a1.325,1.325,0,0,0-.695-1.821,1.113,1.113,0,0,0-.957-.02c-.463.175-.457.31-.736.629" transform="translate(-656.726 -374.349)" fill="#483a4b" fill-rule="evenodd"/>
    <path id="Path_98" data-name="Path 98" d="M816.509,702.789a2.1,2.1,0,0,0-1.286,1.945c-.059,1.142.478,1.508,1.3,1.865Z" transform="translate(-704.284 -607.154)" fill="#feca7c" fill-rule="evenodd"/>
    <path id="Path_99" data-name="Path 99" d="M96.546,670.769H33.4a6.653,6.653,0,0,1-6.644-6.645v-13.2l.036.015,10.95,3.872L49.371,658l7.743,1.274c2.965.333,8.111,1.017,11,1.017,3.329,6.294,11.875,3.538,12.82,0a74.48,74.48,0,0,0,7.876-.635,23.291,23.291,0,0,0,3.664,6.8,35.582,35.582,0,0,0,4.072,4.308" transform="translate(-23.112 -562.346)" fill="#aa3061"/>
    <path id="Path_100" data-name="Path 100" d="M543.53,796.762V799.8a39.161,39.161,0,0,1-3.322-2.543c-.186-.157-.375-.32-.566-.492Z" transform="translate(-466.208 -688.34)" fill="#483a4b"/>
  </g>
</svg>
