<svg id="Group_150" data-name="Group 150" xmlns="http://www.w3.org/2000/svg" xmlns:xlink="http://www.w3.org/1999/xlink" width="129.642" height="129.637" viewBox="0 0 129.642 129.637">
  <defs>
    <clipPath id="clip-path">
      <rect id="Rectangle_756" data-name="Rectangle 756" width="129.642" height="129.637" fill="none"/>
    </clipPath>
  </defs>
  <g id="Group_149" data-name="Group 149" clip-path="url(#clip-path)">
    <path id="Path_188" data-name="Path 188" d="M129.639,84.567c0-2.4-6.233-10.907-6.836-13.166,3,0,6.836.721,6.836-2.279,0-2.42-2.348-2.285-4.809-2.279H103.307c-.256-3.074-4.165-6.33-7.6-6.33H94.444c-3.439,0-7.34,3.248-7.6,6.33l-24.51.049c-2.481.51-2.712,4.374.7,4.522,1.359.059,2.932-.014,4.319-.014L61.42,81.928c-1.19,1.966-.9,1.767-.9,4.666-4.284-1-4.045,1.036-7.525-1.591-1.822-1.377-3.543-2.744-5.388-3.98v-6.33c2.06-.479,5.855-4.62,7.143-6.529a21.84,21.84,0,0,0,3.744-10.182c2.848-.236,6.33-4.2,6.33-7.342,0-4.2-.961-3.872-.634-5.674,1.514-8.335.435-15.823-4.719-22.649a20.1,20.1,0,0,0-1.794-2.255A34.183,34.183,0,0,0,53.428,16.2c-4.506-3.254-3.506-1.172-3.726-3.854C49.117,5.184,43.545,0,37.727,0c-4.443,0-7.75.912-10.7,4.242A15.714,15.714,0,0,0,24.589,8.13a13.931,13.931,0,0,0-.788,5.8c-8.54,4.518-15.193,13.648-15.193,23.8A25.149,25.149,0,0,0,9.2,44.754c.5,2.409-2.42,5.637,1.394,10.488a8.017,8.017,0,0,0,4.6,2.739c0,5.371,3.277,10.462,6.645,13.865a13.432,13.432,0,0,0,3.99,2.846c0,1.209.211,5.383-.12,6.212-.2.506-4.284,3.415-5.235,4.134-3.754,2.834-3.453.571-8.26,1.615A15.1,15.1,0,0,0,7.6,88.374a15.308,15.308,0,0,0-3.62,2.964A11.777,11.777,0,0,0,1.41,95.092,13.721,13.721,0,0,0,0,100.266v21.268a8.56,8.56,0,0,0,8.1,8.1H65.325a8.3,8.3,0,0,0,5.517-2.332c1.036-.973,2.586-3.352,2.586-5.264V100.52A14.241,14.241,0,0,0,72.163,95.2c6.521,0,10.127-3.65,10.127-10.129,0-2.338-5.672-10.992-7.09-13.672H86.848c.161,1.934.951,2.082,1.522,3.289.624,1.314.25,31.5.25,33.678-3.334.278-6.584,4.185-6.584,8.609-4.282,2.267-4.3,4.232-4.3,8.356,0,2.3,1.92,4.3,3.8,4.3h27.092c1.948,0,3.8-2.178,3.8-4.3,0-2.934.278-3.8-1.406-6.19a7.311,7.311,0,0,0-2.9-2.166c0-4.423-3.248-8.331-6.582-8.609,0-1.9-.28-32.484.13-33.544.175-.455,1.5-1.682,1.643-3.423h11.645L111.2,78.032c-2.649,4.408-4.423,6.478-2.69,11.454,2.738,7.86,15.161,6.426,18.157,3.508,3.2-3.12,2.968-4.654,2.968-8.427M47.927,86.775a11.278,11.278,0,0,0,2.714,1.843c-.2.756-4.778,5.463-5.318,5.824l-5.064-5.57a36.945,36.945,0,0,1,5.064-3.8,9.052,9.052,0,0,1,2.6,1.7M36.737,4.349c4-.114,8.333,3.61,8.333,7.551-3.569-.3-5.459-2.052-12.739-.839-1.489.248-2.716.735-3.972.839.095-4.179,4.191-7.431,8.378-7.551M14.4,30.854A23.749,23.749,0,0,1,47.183,17.637c6.905,3.447,12.6,10.891,13.071,18.578a25.135,25.135,0,0,1,.256,2.755c-.053,1.016-.248,1.629-.248,3.061-1.032-.546-1.652-.544-2.1-1.2-1.156-1.7-.55-4.739-8.892-6.806A52.441,52.441,0,0,1,41.7,31.986c-4.92-2.09-.542-8.215-12.177-5.254a20.271,20.271,0,0,0-11.691,7.553,13.943,13.943,0,0,0-2.635,6.986,7.2,7.2,0,0,0-2.027.76c0-4.943-.1-7.533,1.231-11.177M20.546,62a26.23,26.23,0,0,1-1.012-4.557c-.935-4.4-3.87-2.621-5.765-5.377-1.554-2.263-.981-5.205,2.655-6.523,5.507-2,.776-7.805,9.574-12.709a23,23,0,0,1,8.691-2.448c1.347,2.807,1.757,4.112,5.572,5.824,2.535,1.138,6.342,1.635,9.148,2.5,6.1,1.879,2.962,3.106,5.84,5.806,1.213,1.138,6.231,1.735,5.04,6.133-1.083,4.006-4.27,2.261-5.948,5.465-.532,1.012-.7,3.384-1.058,4.766C49.321,76.094,26.732,78.5,20.546,62m4.847,24.922c3.195-2.4,2.218-2.409,5.282-.108a12.445,12.445,0,0,1,2.5,2.062c-.288,1.077-1.684,2.07-2.47,2.848a10.93,10.93,0,0,0-1.221,1.31,4.362,4.362,0,0,1-1.373,1.412c-1.217-.813-1.587-1.711-2.592-2.726a20.787,20.787,0,0,1-2.726-2.844c.857-.575,1.709-1.282,2.6-1.954M9.867,125.341c-3.594.006-5.562-1.534-5.562-5.073,0-4.784-.567-18.978.79-22.5C6.95,92.945,10.842,90.9,15.953,90.9L12.158,99c-.618,1.388-1.162,2.655-1.779,4.045-.4.89-1.77,3.257-1.77,4.307,0,2.446,1.046,3.433,2.389,5.209,1.123,1.485,1.95,2.781,3.074,4.268l6.184,8.5q-5.193,0-10.389.008m15.707-.008c-.244-.912-11.33-15.827-11.85-16.522-.89-1.193-.374-1.861.709-3.988.62-1.217,1.168-2.56,1.776-3.793.575-1.164,1.034-3.078,2.023-3.8,0,5.883,5.276,16.859,8.555,22.082.736,1.17,4.169,5.32,4.356,6.025Zm8.863-3.545c-1.528-1.022-4.77-6.45-5.971-8.463-4.941-8.278-5.806-17.534-6.182-18.377.983.66,1.276,1.412,2.468,2.6,5.065,5.042,6.064-.678,9.686-3.1Zm1.869-36.305c-6.452-5.329-5.92-2.527-5.92-8.51,3.21.266,1.377.758,8.1.758,1.993,0,2.954-.626,4.557-.758v4.3c-.947.252-5.148,3.766-6.33,4.557-.169-.146-.118-.11-.41-.351m2.688,36.305V94.442a13.154,13.154,0,0,1,2.785,2.787c4.408,5.812,7.665-1.14,9.369-2.281-.534,6.407-4.445,16.15-7.846,21.272-.953,1.434-3.027,4.709-4.307,5.568m3.291,3.545,4.254-5.873c3.419-5.121,8.66-16.268,8.66-22.233H55.7a53.246,53.246,0,0,0,2.314,5.282l2.076,4.508a1.66,1.66,0,0,0,.421.591c-1.359,2.028-12.423,16.835-12.66,17.725Zm26.84-4.557c0,3.116-2.31,4.569-5.562,4.565q-5.069-.006-10.137-.008a6.642,6.642,0,0,1,1.367-2.178c.563-.813.912-1.282,1.491-2.052,1.055-1.4,1.995-2.74,2.968-4.124,1.156-1.648,5.568-6.927,5.568-8.611,0-2.56-1.438-4.867-2.535-7.086-1.521-3.074-3.043-7.047-4.808-10.385,6.519,0,4.075,1.446,8.018,3.376,2.757,1.351,3.63,4.918,3.63,8.02Zm0-30.131c-3.693,0-4.154-3.714-4.305-4.051H77.733c-.412,4.951-5.367,4.051-8.609,4.051m6.836-8.609H66.592l4.557-8.356c.735.538,4.7,7.854,4.811,8.356m16.158-16c4.425-3.963,9.631,2.485,5.942,6.2-2.351,2.363-7.161.983-7.161-2.858a3.928,3.928,0,0,1,1.219-3.338m5.111,11.441v30.383h-4.3V77.479a6.5,6.5,0,0,0,4.3,0m10.635,47.854H82.291v-2.279c0-1.511,1.022-2.027,2.533-2.027h20.508c2.98,0,2.533,1.806,2.533,4.305m-4.305-8.863H86.594a4.094,4.094,0,0,1,3.8-4.051h8.863a4.082,4.082,0,0,1,4.3,4.051m12.926-38.726c.475-.821,1.918-3.624,2.519-4.065a28.106,28.106,0,0,0,2.2,4.13c.841,1.5,1.564,2.728,2.357,4.226h-9.369a30.438,30.438,0,0,1,2.291-4.291m7.537,11.586a3.766,3.766,0,0,1-2.992,1.314c-3.429,0-8.2.876-8.608-4.051h12.912c-.681,1.422-.008,1.434-1.312,2.738" fill="#483a4b" fill-rule="evenodd"/>
    <path id="Path_189" data-name="Path 189" d="M766.689,580.6c-.681,1.422-.008,1.434-1.312,2.738a3.766,3.766,0,0,1-2.992,1.314c-3.429,0-8.2.876-8.609-4.051Z" transform="translate(-641.356 -494.011)" fill="#e7a046" fill-rule="evenodd"/>
    <path id="Path_190" data-name="Path 190" d="M577.326,815.79H551.752v-2.279c0-1.511,1.022-2.027,2.533-2.027h20.508c2.98,0,2.533,1.806,2.533,4.305" transform="translate(-469.461 -690.457)" fill="#e7a046" fill-rule="evenodd"/>
    <path id="Path_191" data-name="Path 191" d="M597.57,757.815H580.6a4.094,4.094,0,0,1,3.8-4.051h8.863a4.082,4.082,0,0,1,4.3,4.051" transform="translate(-494.011 -641.345)" fill="#e7a046" fill-rule="evenodd"/>
    <path id="Path_192" data-name="Path 192" d="M627.363,519.492v30.383h-4.3V519.492a6.5,6.5,0,0,0,4.3,0" transform="translate(-530.134 -442.013)" fill="#e7a046" fill-rule="evenodd"/>
    <path id="Path_193" data-name="Path 193" d="M616.632,441.884c-2.352,2.363-7.161.983-7.161-2.858a3.928,3.928,0,0,1,1.219-3.338c4.425-3.963,9.631,2.486,5.942,6.2" transform="translate(-518.572 -369.649)" fill="#e7a046" fill-rule="evenodd"/>
    <path id="Path_194" data-name="Path 194" d="M447.523,580.6c-.412,4.951-5.367,4.051-8.609,4.051-3.693,0-4.154-3.714-4.305-4.051Z" transform="translate(-369.79 -494.011)" fill="#e7a046" fill-rule="evenodd"/>
    <path id="Path_195" data-name="Path 195" d="M44.146,643.9q-5.194,0-10.389.008c-3.594.006-5.562-1.534-5.562-5.073,0-4.784-.567-18.978.79-22.5,1.855-4.819,5.747-6.867,10.858-6.867l-3.8,8.106c-.618,1.389-1.162,2.655-1.778,4.045-.4.89-1.77,3.257-1.77,4.307,0,2.446,1.046,3.433,2.389,5.209,1.122,1.485,1.95,2.781,3.074,4.268Z" transform="translate(-23.89 -518.562)" fill="#4d4d4d" fill-rule="evenodd"/>
    <path id="Path_196" data-name="Path 196" d="M106.844,680.006h-5.57c-.244-.912-11.33-15.827-11.85-16.522-.89-1.193-.374-1.861.709-3.988.62-1.217,1.168-2.56,1.776-3.793.575-1.164,1.034-3.078,2.023-3.8,0,5.883,5.276,16.859,8.555,22.082.737,1.17,4.169,5.32,4.356,6.025" transform="translate(-75.7 -554.673)" fill="#4d4d4d" fill-rule="evenodd"/>
    <path id="Path_197" data-name="Path 197" d="M373.916,620.853v18.484c0,3.116-2.31,4.569-5.562,4.565q-5.069-.006-10.137-.008a6.642,6.642,0,0,1,1.367-2.178c.563-.813.912-1.282,1.491-2.052,1.056-1.4,2-2.74,2.968-4.124,1.156-1.648,5.568-6.927,5.568-8.61,0-2.56-1.438-4.867-2.535-7.086-1.52-3.074-3.043-7.047-4.807-10.385,6.519,0,4.075,1.446,8.018,3.376,2.757,1.351,3.63,4.918,3.63,8.02" transform="translate(-304.791 -518.561)" fill="#4d4d4d" fill-rule="evenodd"/>
    <path id="Path_198" data-name="Path 198" d="M301.746,662.281c-1.359,2.029-12.423,16.835-12.66,17.725h-5.572l4.254-5.873c3.419-5.121,8.66-16.268,8.66-22.233h.506a53.194,53.194,0,0,0,2.314,5.282l2.076,4.508a1.655,1.655,0,0,0,.421.591" transform="translate(-241.23 -554.673)" fill="#4d4d4d" fill-rule="evenodd"/>
    <path id="Path_199" data-name="Path 199" d="M280.321,573.956c-.2.756-4.778,5.463-5.318,5.824l-5.063-5.57a36.933,36.933,0,0,1,5.063-3.8,9.044,9.044,0,0,1,2.6,1.7,11.277,11.277,0,0,0,2.714,1.843" transform="translate(-229.68 -485.338)" fill="#fff" fill-rule="evenodd"/>
    <path id="Path_200" data-name="Path 200" d="M273.6,633.733c-.534,6.407-4.445,16.15-7.846,21.272-.953,1.434-3.027,4.709-4.307,5.568V633.227a13.158,13.158,0,0,1,2.785,2.787c4.408,5.812,7.665-1.14,9.369-2.281" transform="translate(-222.455 -538.785)" fill="#fff" fill-rule="evenodd"/>
    <path id="Path_201" data-name="Path 201" d="M161.557,633.228v27.346c-1.528-1.022-4.77-6.45-5.971-8.463-4.941-8.278-5.806-17.534-6.182-18.377.983.66,1.276,1.412,2.468,2.6,5.066,5.042,6.064-.677,9.686-3.1" transform="translate(-127.12 -538.786)" fill="#fff" fill-rule="evenodd"/>
    <path id="Path_202" data-name="Path 202" d="M163.179,574.378c-.288,1.077-1.684,2.07-2.47,2.848a10.93,10.93,0,0,0-1.221,1.31,4.362,4.362,0,0,1-1.373,1.412c-1.217-.813-1.587-1.711-2.592-2.726a20.786,20.786,0,0,1-2.726-2.844c.857-.575,1.709-1.282,2.6-1.954,3.194-2.4,2.218-2.409,5.282-.108a12.464,12.464,0,0,1,2.5,2.062" transform="translate(-130.009 -485.506)" fill="#fff" fill-rule="evenodd"/>
    <path id="Path_203" data-name="Path 203" d="M216.328,516.1v4.3c-.947.252-5.148,3.766-6.33,4.557-.169-.146-.118-.11-.41-.351-6.452-5.329-5.92-2.527-5.92-8.51,3.21.266,1.377.758,8.1.758,1.993,0,2.954-.626,4.557-.758" transform="translate(-173.283 -439.125)" fill="#f8c484" fill-rule="evenodd"/>
    <path id="Path_204" data-name="Path 204" d="M206.852,36.693c-3.569-.3-5.459-2.052-12.739-.839-1.489.248-2.716.735-3.972.839.095-4.179,4.191-7.431,8.378-7.551,4-.114,8.333,3.61,8.333,7.551" transform="translate(-161.783 -24.794)" fill="#1a1a1a" fill-rule="evenodd"/>
    <path id="Path_205" data-name="Path 205" d="M135.611,125.514c-.053,1.016-.248,1.629-.248,3.061-1.032-.546-1.652-.544-2.1-1.2-1.156-1.7-.549-4.738-8.892-6.806a52.442,52.442,0,0,1-7.578-2.042c-4.92-2.09-.542-8.215-12.177-5.254a20.27,20.27,0,0,0-11.691,7.553,13.942,13.942,0,0,0-2.635,6.986,7.2,7.2,0,0,0-2.027.76c0-4.943-.1-7.533,1.231-11.177a23.749,23.749,0,0,1,32.786-13.217c6.9,3.447,12.6,10.891,13.071,18.578a25.139,25.139,0,0,1,.256,2.755" transform="translate(-75.101 -86.544)" fill="#1a1a1a" fill-rule="evenodd"/>
    <path id="Path_206" data-name="Path 206" d="M134.212,223.978c-1.083,4.006-4.27,2.261-5.948,5.465-.532,1.012-.7,3.384-1.058,4.766-3.961,15.218-26.55,17.623-32.737,1.121a26.244,26.244,0,0,1-1.012-4.557c-.935-4.4-3.87-2.621-5.765-5.377-1.554-2.263-.981-5.205,2.655-6.523,5.507-2,.776-7.805,9.574-12.709a23,23,0,0,1,8.691-2.448c1.347,2.807,1.757,4.112,5.572,5.824,2.535,1.138,6.342,1.635,9.148,2.5,6.1,1.879,2.962,3.106,5.839,5.806,1.213,1.138,6.231,1.735,5.04,6.133" transform="translate(-73.924 -173.333)" fill="#f8c484" fill-rule="evenodd"/>
  </g>
</svg>
