<svg id="Group_138" data-name="Group 138" xmlns="http://www.w3.org/2000/svg" xmlns:xlink="http://www.w3.org/1999/xlink" width="93.887" height="110.943" viewBox="0 0 93.887 110.943">
  <defs>
    <clipPath id="clip-path">
      <rect id="Rectangle_747" data-name="Rectangle 747" width="93.887" height="110.943" fill="none"/>
    </clipPath>
  </defs>
  <g id="Group_137" data-name="Group 137" clip-path="url(#clip-path)">
    <path id="Path_54" data-name="Path 54" d="M39.827,585.829H32.161a6.773,6.773,0,0,1-6.721-6,6.937,6.937,0,0,1-.043-.763v-4.728a15.042,15.042,0,0,1,9.613-14c.063.406.143.962.293,1.712.513,2.569,4.087,20.454,4.524,23.783" transform="translate(-21.692 -478.591)" fill="#f8c484"/>
    <path id="Path_55" data-name="Path 55" d="M117.773,552.759h-2.779a14.988,14.988,0,0,0-2.21.163l-.056-.283h4.981c.02.041.043.08.063.12" transform="translate(-96.283 -472.018)"/>
    <path id="Path_56" data-name="Path 56" d="M180.3,552.759h-7.255l-.039-.078,7.232-.043c.02.041.043.08.061.12" transform="translate(-147.77 -472.018)"/>
    <path id="Path_57" data-name="Path 57" d="M131.138,528.066v.12c-.446.013-.928,0-1.438,0l-15.867,0a18.781,18.781,0,0,1,2.1-.119Z" transform="translate(-97.227 -451.03)"/>
    <path id="Path_58" data-name="Path 58" d="M92.044,87.651A18.706,18.706,0,0,0,75.177,77.036H60.356c-2.644-.545-1.893-2.949-1.893-8.327,1.914-.446,4.3-2.429,5.848-3.466.58.389,1.158.915,1.743,1.289,12.04,7.694,26-6.98,15.928-18.961a12.631,12.631,0,0,0-1.376-1.223,3.95,3.95,0,0,0-1.784-1.032,8.582,8.582,0,0,0,1.517-5.632,9.731,9.731,0,0,0-.745-3.168,11.015,11.015,0,0,1,.324-3.533C81.661,20.42,81.1,7.136,67.9,2.089,55.769-2.551,48,2,47.635,2c-.33,0-8.212-4.515-20.115.028-9.5,3.627-12.809,11.215-12.809,21.2a59.415,59.415,0,0,0,.713,10.334c.86,5.832-.5,1.493-.5,7.21a8.438,8.438,0,0,0,2.649,5.8c2.2,2.2,3.5,2.064,6.015,2.649,0,7.683,4.774,15.291,10.826,18.414,3.107,1.6,2.6.269,2.6,5.628,0,3.381-1.236,3.848-3.111,3.9-.446.013-.928,0-1.438,0l-15.867,0A18.741,18.741,0,0,0,0,95.747v4.728a10.463,10.463,0,0,0,10.469,10.469H83.421a10.48,10.48,0,0,0,10.467-10.469V95.747a18.616,18.616,0,0,0-1.843-8.1M73.409,65.243c-3.609,0-4.337-.789-6.715-2.382,2.858-4.268,4.981-7.106,4.981-13.646,4.5-.374,3.557-2.06,5.56-1.028,8.483,4.366,4.8,17.057-3.826,17.057M71.675,45.75V34.7a5.525,5.525,0,0,1,0,11.047m-48.083,0a5.577,5.577,0,0,1-5.38-5.434,5.635,5.635,0,0,1,5.38-5.613Zm4.068,8.277c-1.191-4.683-.867-14.524-.813-19.98.017-1.706.022-2.319-1.428-2.694-.059-.015-.119-.03-.18-.043-2.582-.534-6.2,1.406-6.629,1.443,0-2.147-.433-3.581-.433-5.848,0-7.488-.171-13.527,5.356-18.9,1.3-1.267,4.346-2.564,6.31-3.22,5.256-1.754,10.506-2.093,15.66,0,4.2,1.7.823.682,6.373-.706s10.359-.708,15.595,1.48c3.149,1.315,5.174,2.716,6.934,5.63,2.532,4.192,2.481,8.4,2.845,12.751.109,1.312-.593,7.292-.593,8.82-1.955-.456-1.628-1.3-4.982-1.3,0-4.137.3-6.18-2.621-9.722-2.9-3.516-8.8-4.944-13.4-3.913a14.178,14.178,0,0,0-3.335,1.215l-2.957,1.591c0-2.734.676-5.849-1.949-5.849-2.138,0-1.517,4.628-1.517,5.849a20.541,20.541,0,0,1-2.668-1.449A15.9,15.9,0,0,0,40.3,18,14.472,14.472,0,0,0,26.862,21.08c-1.226,1.182-2.619,2.938-2.619,4.744,0,.452.493.945,1,1.171a1.277,1.277,0,0,0,.519.128c2.162,0,.984-1.686,4.059-4.172,3.374-2.727,8.181-2.6,11.9-.739L45.9,24.524v2.6c-4.6,1.073-4.305,9.53,1.734,9.53s6.345-8.455,1.732-9.53v-2.6c1.452-.387,9.192-7.293,16.438-1.276,1.69,1.4,2.621,3.425,2.621,6.475V47.916c0,6.421-1.786,10.082-5.791,14.133-9.563,9.676-31.255,6.634-34.975-8.022M49.15,31.671a1.517,1.517,0,1,1-3.033,0,1.517,1.517,0,1,1,3.033,0M55,70.008v3.683a15.025,15.025,0,0,1-6.932,2.166,11.159,11.159,0,0,1-4.958-.673c-1.024-.346-2.121-1.086-2.84-1.276v-3.9a43.431,43.431,0,0,0,7.366,1.086l3.781-.335A19.35,19.35,0,0,0,55,70.008M39.621,77.374a16.963,16.963,0,0,0,16.026-.217,4.972,4.972,0,0,0,2.816,2.816c-.141,1.7-3.816,7.449-4.763,8.879-.48.724-.908,1.282-1.456,2.012-1.043,1.388-3.7,4.817-4.826,5.569a17.085,17.085,0,0,1-3.316-3.4c-2.394-2.847-7.734-10.295-7.947-12.847a5.558,5.558,0,0,0,3.466-2.814M10.469,107.239a6.773,6.773,0,0,1-6.721-6,6.94,6.94,0,0,1-.043-.763V95.747a15.042,15.042,0,0,1,9.613-14c.063.406.143.961.293,1.712.513,2.57,4.087,20.454,4.524,23.783Zm11.158,0c-.076-.984-.367-1.893-.543-2.883-.237-1.328-.395-2.188-.65-3.464L16.5,80.9l-.056-.283h4.982c.02.041.043.08.063.121,2.321,4.4,4.463,8.931,6.723,13.453,1.108,2.214,2.2,4.713,3.435,6.745,1.171,1.921,2.138,4.248,3.186,6.3Zm16.9,0-13.248-26.5-.039-.078,7.232-.043c.02.041.043.08.061.121.943,1.81,1.5,3.627,3.01,6.123l3.89,5.641a39.629,39.629,0,0,0,2.951,3.546L45.414,99.3a19.1,19.1,0,0,0,1.54,1.5l8.522,6.441Zm37.7,0H62.329a62.107,62.107,0,0,1-5.989-3.485c-.611-.409-1.069-.684-1.684-1.132-1.254-.911-3.916-2.727-4.639-3.807.485-.726,1.163-1.206,1.732-1.949A79.786,79.786,0,0,0,56.644,90.5c1.5-2.262,4.591-7.156,5.256-9.757H75.177c.352,0,.7.013,1.047.037Zm13.959-6.764a6.771,6.771,0,0,1-6.762,6.764H79.69v-25.8a15.072,15.072,0,0,1,9.431,8.77,14.82,14.82,0,0,1,1.032,4.63c.02.3.03.606.03.911Z" transform="translate(0 0)" fill="#483a4b"/>
    <path id="Path_59" data-name="Path 59" d="M131.442,579.961H118.235c-.076-.984-.367-1.893-.543-2.882-.237-1.328-.395-2.188-.65-3.464l-3.933-19.987a15,15,0,0,1,2.21-.163H118.1c2.321,4.4,4.463,8.931,6.723,13.453,1.108,2.214,2.2,4.713,3.435,6.745,1.171,1.921,2.138,4.248,3.186,6.3" transform="translate(-96.608 -472.723)" fill="#f2f2f2"/>
    <path id="Path_60" data-name="Path 60" d="M203.473,579.961H186.524l-13.248-26.5h7.255c.943,1.81,1.5,3.627,3.01,6.123l3.89,5.641a39.654,39.654,0,0,0,2.951,3.546l3.029,3.251a19.136,19.136,0,0,0,1.54,1.495Z" transform="translate(-147.998 -472.723)" fill="#729ab0"/>
    <path id="Path_61" data-name="Path 61" d="M270.139,531.708c-.141,1.7-3.816,7.449-4.763,8.879-.48.724-.908,1.282-1.456,2.012-1.043,1.387-3.7,4.817-4.826,5.569a17.083,17.083,0,0,1-3.316-3.4c-2.394-2.847-7.734-10.295-7.947-12.848a5.558,5.558,0,0,0,3.466-2.814,16.963,16.963,0,0,0,16.026-.217,4.972,4.972,0,0,0,2.816,2.816" transform="translate(-211.677 -451.735)" fill="#f8c484"/>
    <path id="Path_62" data-name="Path 62" d="M290.765,479.887v3.683a15.023,15.023,0,0,1-6.932,2.166,11.16,11.16,0,0,1-4.957-.672c-1.025-.346-2.121-1.086-2.84-1.276v-3.9a43.448,43.448,0,0,0,7.366,1.086l3.781-.335a19.353,19.353,0,0,0,3.583-.75" transform="translate(-235.766 -409.879)" fill="#729ab0"/>
    <path id="Path_63" data-name="Path 63" d="M319.159,207.961a1.517,1.517,0,1,1-3.033,0,1.517,1.517,0,1,1,3.033,0" transform="translate(-270.008 -176.29)" fill="#ed1c24"/>
    <path id="Path_64" data-name="Path 64" d="M491.32,248.931V237.884a5.525,5.525,0,0,1,0,11.047" transform="translate(-419.645 -203.181)" fill="#f8c484"/>
    <path id="Path_65" data-name="Path 65" d="M463.888,345.432c-3.609,0-4.337-.789-6.715-2.382,2.858-4.268,4.981-7.106,4.981-13.646,4.5-.374,3.557-2.06,5.559-1.028,8.483,4.367,4.8,17.057-3.825,17.057" transform="translate(-390.479 -280.189)" fill="#333"/>
    <path id="Path_66" data-name="Path 66" d="M130.209,237.884v11.047a5.578,5.578,0,0,1-5.38-5.434,5.635,5.635,0,0,1,5.38-5.613" transform="translate(-106.617 -203.181)" fill="#f8c484"/>
    <path id="Path_67" data-name="Path 67" d="M216.2,151.479v18.194c0,6.421-1.786,10.082-5.791,14.133-9.563,9.676-31.255,6.634-34.974-8.022-1.191-4.683-.867-14.524-.813-19.98.017-1.706.022-2.319-1.428-2.694-.059-.015-.118-.03-.18-.043v-4.317a1.276,1.276,0,0,0,.519.128c2.162,0,.984-1.686,4.059-4.172,3.373-2.727,8.181-2.6,11.9-.739l4.187,2.312v2.6c-4.6,1.073-4.305,9.53,1.734,9.53s6.345-8.455,1.732-9.53v-2.6c1.452-.387,9.192-7.294,16.438-1.276,1.69,1.4,2.621,3.425,2.621,6.475" transform="translate(-147.771 -121.757)" fill="#f8c484"/>
    <path id="Path_68" data-name="Path 68" d="M183.077,52.289c-1.954-.456-1.628-1.3-4.981-1.3,0-4.137.3-6.18-2.621-9.722-2.9-3.516-8.8-4.945-13.4-3.913a14.174,14.174,0,0,0-3.335,1.215l-2.957,1.591c0-2.734.676-5.848-1.949-5.848-2.138,0-1.517,4.628-1.517,5.848a20.521,20.521,0,0,1-2.668-1.449,15.9,15.9,0,0,0-2.933-1.182,14.472,14.472,0,0,0-13.438,3.085c-1.226,1.182-2.62,2.938-2.62,4.744,0,.452.493.945,1,1.171v4.317c-2.582-.534-6.2,1.406-6.628,1.443,0-2.147-.434-3.581-.434-5.848,0-7.488-.17-13.527,5.356-18.9,1.3-1.267,4.346-2.564,6.31-3.22,5.256-1.754,10.506-2.093,15.66,0,4.2,1.7.822.682,6.373-.706s10.359-.708,15.595,1.48c3.149,1.315,5.174,2.716,6.934,5.63,2.533,4.192,2.481,8.4,2.846,12.751.109,1.311-.593,7.292-.593,8.82" transform="translate(-106.42 -19.535)" fill="#333"/>
    <path id="Path_69" data-name="Path 69" d="M556.749,572.537v4.728a6.771,6.771,0,0,1-6.762,6.764h-3.731v-25.8a15.073,15.073,0,0,1,9.431,8.77,14.818,14.818,0,0,1,1.032,4.629c.02.3.03.606.03.911" transform="translate(-466.566 -476.79)" fill="#f8c484"/>
    <path id="Path_70" data-name="Path 70" d="M369.064,553.5v26.46H355.17a62.117,62.117,0,0,1-5.989-3.484c-.611-.41-1.069-.684-1.684-1.132-1.254-.911-3.916-2.727-4.639-3.807.485-.726,1.163-1.206,1.732-1.949a79.8,79.8,0,0,0,4.894-6.367c1.5-2.262,4.591-7.156,5.256-9.757h13.277c.352,0,.7.013,1.047.037" transform="translate(-292.841 -472.723)" fill="#f2f2f2"/>
  </g>
</svg>
