<svg id="Group_146" data-name="Group 146" xmlns="http://www.w3.org/2000/svg" xmlns:xlink="http://www.w3.org/1999/xlink" width="119.123" height="131.505" viewBox="0 0 119.123 131.505">
  <defs>
    <clipPath id="clip-path">
      <rect id="Rectangle_754" data-name="Rectangle 754" width="119.123" height="131.505" fill="none"/>
    </clipPath>
  </defs>
  <g id="Group_145" data-name="Group 145" clip-path="url(#clip-path)">
    <path id="Path_147" data-name="Path 147" d="M165.3,277.226c-.013.126-.024.262-.035.4.011-.143.024-.278.037-.4Zm4.128,22.924c.2.273.4.541.6.8q-.308-.393-.6-.8m39.891-22.907c.071.009.136.017.2.022-.06-.007-.125-.013-.2-.022" transform="translate(-140.725 -236.059)" fill="#483a4b" fill-rule="evenodd"/>
    <path id="Path_148" data-name="Path 148" d="M193.3,431.6c.2.273.4.541.6.8q-.308-.393-.6-.8" transform="translate(-164.595 -367.507)" fill-rule="evenodd"/>
    <path id="Path_149" data-name="Path 149" d="M191.742,59.474c-6.576,0-10.48-1.98-15-4.776a58.638,58.638,0,0,1-8.419-6.427c-3.783-3.65-4.146-1.462-5.431.5-3.716,5.678-18.373,10.7-23.93,10.7-.29-11.581.17-16.594,5.923-24.23,4.371-5.8,12.5-9.7,20.467-9.7a27.048,27.048,0,0,1,12.165,2.928,27.912,27.912,0,0,1,8.305,6.773c5.742,7.622,6.211,12.669,5.921,24.23" transform="translate(-118.269 -21.749)" fill="#9f805a" fill-rule="evenodd"/>
    <path id="Path_150" data-name="Path 150" d="M209.529,222.361c-.018.2-.038.39-.059.583q-.1.871-.238,1.711c-.031.187-.066.372-.1.555-.125.649-.273,1.284-.453,1.913-.051.18-.1.357-.159.537q-.168.533-.366,1.061c-.068.176-.136.352-.207.526l-.11.262c-.075.174-.152.35-.233.522s-.165.348-.251.52a20.314,20.314,0,0,1-1.369,2.325c-.117.172-.238.344-.361.517q-.28.385-.584.773c-.079.1-.159.2-.238.3s-.16.2-.242.295c-.163.194-.326.385-.491.572-.11.125-.222.247-.333.368-.267.291-.542.574-.819.847a22.241,22.241,0,0,1-21.61,5.681c-.273-.073-.544-.15-.813-.233a23.276,23.276,0,0,1-4.927-2.164c-.282-.165-.561-.337-.835-.513q-.709-.456-1.383-.967c-.205-.154-.409-.312-.61-.475a22.477,22.477,0,0,1-2.182-2.019q-.511-.541-.989-1.12c-.106-.13-.213-.26-.317-.392-.207-.262-.407-.53-.6-.8a22.362,22.362,0,0,1-3.915-9.711,81.6,81.6,0,0,1-.33-11.315c.005-.1.009-.207.013-.308.007-.156.013-.3.022-.449.005-.1.011-.189.016-.278v0c.009-.159.02-.311.031-.456s.022-.278.035-.4h0c1.893-.575,3.633-1.077,5.282-1.578.489-.148.969-.3,1.444-.445.3-.1.6-.192.9-.291.128-.04.255-.082.381-.126.191-.062.377-.125.564-.191.374-.128.746-.258,1.114-.394.211-.077.421-.156.63-.236.251-.1.5-.192.749-.293.183-.073.365-.147.548-.224.275-.114.548-.231.823-.354.181-.081.365-.163.548-.247q.822-.376,1.651-.806.552-.288,1.114-.6c.187-.1.374-.212.563-.322q.566-.327,1.14-.689t1.165-.755c.145-.1.284-.194.418-.288.112-.077.218-.154.321-.229s.2-.148.3-.22c.077-.057.15-.114.222-.17s.139-.11.205-.165l.1-.081.187-.158a24.076,24.076,0,0,0,2.323-2.492c.06-.059.123-.117.189-.176.033-.029.066-.057.1-.086a16.608,16.608,0,0,1,2.2,1.717c.048.04.1.081.141.117l.068.055.064.053q.736.591,1.5,1.176a62.569,62.569,0,0,0,6.048,4.153q.423.253.854.5c.429.244.863.482,1.3.709q.437.231.879.447c.11.055.222.108.332.161.194.093.388.185.584.275q.879.407,1.779.76l4.892,1.449c.152.027.286.048.4.062.071.009.136.015.2.022l.114.013c.037,0,.07.007.1.013a.854.854,0,0,1,.552.236.351.351,0,0,1,.037.037,2.138,2.138,0,0,1,.2.24c0,4.262.1,7.886-.2,11.165" transform="translate(-139.94 -169.452)" fill="#fed9a9" fill-rule="evenodd"/>
    <path id="Path_151" data-name="Path 151" d="M174.092,691.639c0,1.713.027,3.443-.016,5.154v.018H113.737v-.018l-.018-7.768c.051-1.16.211-1.129.848-1.743,2.51-2.415,1.568-1.775,8.6-1.775l46.689-.011c2.334-.02,2.105.533,3.412,1.779,1.216,1.158.826,1.645.824,4.364" transform="translate(-96.832 -583.645)" fill="#9f805a" fill-rule="evenodd"/>
    <path id="Path_152" data-name="Path 152" d="M257,510.067c-1.237,9.153-11.539,12.64-18.871,9.2a11.021,11.021,0,0,1-4.306-3.472,15.271,15.271,0,0,1-2.29-5.262c-.583-2.611,1.338-1.251,1.367-6.272.945.086,3.723,1.29,5.15,1.634,7.481,1.8,11.345.234,17.484-1.715.022,4.885,1.748,3.8,1.466,5.885" transform="translate(-197.057 -429.312)" fill="#fed9a9" fill-rule="evenodd"/>
    <path id="Path_153" data-name="Path 153" d="M227.761,569.549l-37.719.005V555.172c0-1.317,1.376-1.425,2.594-1.429.83,2.045.929,3.181,2.05,5.037,5.777,9.56,19.095,9.322,25.148,4.025,4.793-4.2,4.419-7.07,5.572-9.122l2.329.574Z" transform="translate(-161.821 -471.463)" fill="#fed944" fill-rule="evenodd"/>
    <path id="Path_154" data-name="Path 154" d="M441.071,387.584a25.2,25.2,0,0,1-3.118-1.33,32.181,32.181,0,0,0-3.787-1.169c-.235-3.868.628-4.941-3.8-4.917-3.824.02-6.785-.661-7.446,1.519-4.17-.837-3.8-2.05-3.8-6.227.68-.645,1.215-.938,2.028-1.671a25.861,25.861,0,0,0,7.919-11.653c1.068-3.17.753-3.441,1.2-5.593l.339-.909c-.159,13.666,7.358,14.412,9.639,22.189a27.881,27.881,0,0,1,.823,9.762" transform="translate(-356.876 -302.823)" fill="#9f805a" fill-rule="evenodd"/>
    <path id="Path_155" data-name="Path 155" d="M87.8,394.492c-1.215-.735-.337-1.5-2.814-1.537-9.626-.152-8.7-.231-8.741,4.971-2.561.645-6.085,2.261-6.5,2.3-.839-18.56,9.144-13.723,10.458-29.565l.508,1.374c2.772,12.032,10.407,15.354,10.709,16.449,0,4.725.308,4.6-3.617,6.008" transform="translate(-59.345 -315.619)" fill="#9f805a" fill-rule="evenodd"/>
    <path id="Path_156" data-name="Path 156" d="M533.562,601.534v0a6.7,6.7,0,0,1-6.634,5.837h-3c-.046-2.479-.013-5.028,0-7.514.018-3.489-.869-3.532-2.58-5.2-.962-.936-1.215-.74-1.213-2.563l.015-11.68a17.08,17.08,0,0,1,11.369,8.787c1.722,3.338,2.065,7.88,2.047,12.329" transform="translate(-442.894 -494.228)" fill="#fed944" fill-rule="evenodd"/>
    <path id="Path_157" data-name="Path 157" d="M94.341,101.784a22.543,22.543,0,0,0-5.26-12.922c-.742-.9-1.288-.762-1.235-2.3a23.7,23.7,0,0,0,.256-3.318c0-20.143-10.608-14.791-10.608-30.177,0-2.1,3.77-1.5,3.77-7.779A8.557,8.557,0,0,0,80.226,40.9a7.964,7.964,0,0,0-2.968-2.69c0-10.6.515-18.25-6.566-26.913L64.228,5.266C53.653-2.36,37.4-1.645,27.689,7.028c-6.748,6.028-10.8,13.175-10.784,22.929q.005,4.243,0,8.487c-3.84,1.026-5.178,8.259-2.164,12.067,1.336,1.687,1.808.878,2.274,2.211.791,2.261-1.275,8.422-2.84,10.811-1.792,2.735-3.8,3.992-5.289,6.971-2.345,4.685-2.354,8.23-2.354,13.441,0,3.507,1.114,2.538-1.123,4.769C1.766,92.346.449,96.9.013,101.784c0,.049-.009.1-.013.148v4.527a10.362,10.362,0,0,0,10.352,10.352H84.034a10.363,10.363,0,0,0,10.352-10.352v-4.2q-.019-.236-.044-.473M83.372,75a27.879,27.879,0,0,1,.823,9.762,25.178,25.178,0,0,1-3.118-1.33,32.2,32.2,0,0,0-3.787-1.169c-.234-3.868.628-4.941-3.8-4.917-3.824.02-6.785-.661-7.446,1.519-4.17-.837-3.8-2.05-3.8-6.227.68-.645,1.215-.938,2.028-1.671a25.862,25.862,0,0,0,7.919-11.652c1.068-3.17.753-3.441,1.2-5.594l.339-.909C73.574,66.476,81.091,67.222,83.372,75m-9.89,6.121V98.086l-.231,0-3.541,0V81.117h3.541ZM41.365,72.775q-.41-.11-.813-.233a23.264,23.264,0,0,1-4.927-2.164q-.423-.247-.835-.513-.709-.456-1.383-.967c-.205-.154-.409-.311-.61-.475A22.462,22.462,0,0,1,30.613,66.4q-.511-.541-.989-1.119c-.106-.13-.212-.26-.317-.392-.207-.262-.407-.529-.6-.8a22.361,22.361,0,0,1-3.915-9.71,81.6,81.6,0,0,1-.33-11.315c.005-.1.009-.207.013-.308.007-.156.013-.3.022-.449.005-.1.011-.189.016-.279v0c.009-.159.02-.311.031-.456s.022-.279.035-.4h0c1.893-.575,3.633-1.077,5.282-1.577.489-.148.969-.295,1.444-.445.3-.1.6-.192.9-.291.128-.04.255-.082.381-.126.191-.062.377-.125.564-.191.374-.128.746-.258,1.114-.394.211-.077.421-.156.63-.236.251-.1.5-.192.749-.293.183-.073.365-.148.548-.224.275-.114.548-.231.823-.354.181-.081.365-.163.548-.247q.822-.377,1.651-.806.552-.289,1.114-.6c.187-.1.374-.213.563-.323q.566-.33,1.14-.689c.385-.242.773-.493,1.165-.757q.217-.146.418-.286c.112-.077.218-.154.321-.229s.2-.148.295-.22c.077-.057.15-.114.222-.17l.205-.165.1-.081c.064-.053.126-.106.187-.158a24.062,24.062,0,0,0,2.323-2.492c.06-.061.123-.119.189-.176.033-.029.066-.057.1-.086a16.628,16.628,0,0,1,2.2,1.717c.048.04.1.081.141.117.024.018.046.037.068.055l.064.051q.737.591,1.5,1.178a62.56,62.56,0,0,0,6.048,4.153q.423.253.854.5c.429.244.863.482,1.3.709q.437.231.879.447c.11.055.222.108.332.161.194.094.388.185.584.275.586.267,1.18.522,1.779.759l4.892,1.451c.152.027.286.048.4.062.071.009.136.015.2.022l.114.013c.037,0,.07.007.1.013a.854.854,0,0,1,.552.236.354.354,0,0,1,.037.037,2.147,2.147,0,0,1,.2.24c0,4.262.1,7.885-.2,11.165-.018.2-.038.39-.059.583q-.1.871-.238,1.711c-.031.185-.064.37-.1.555-.125.649-.273,1.284-.452,1.913-.051.18-.1.357-.159.537q-.167.533-.366,1.061c-.066.176-.136.352-.207.526-.037.088-.073.176-.11.262-.075.174-.152.35-.233.522s-.165.348-.251.52a20.3,20.3,0,0,1-1.369,2.325c-.117.172-.238.345-.361.517q-.278.385-.583.773c-.079.1-.159.2-.24.3s-.159.2-.242.3c-.161.194-.326.385-.491.572-.11.125-.222.247-.334.368-.267.291-.542.573-.819.846a22.241,22.241,0,0,1-21.61,5.681m18.578,7.979c-1.237,9.153-11.539,12.64-18.871,9.2a11.022,11.022,0,0,1-4.306-3.472,15.272,15.272,0,0,1-2.29-5.262c-.583-2.611,1.338-1.251,1.367-6.271.945.086,3.723,1.29,5.15,1.634,7.481,1.8,11.345.234,17.484-1.715.022,4.885,1.748,3.8,1.466,5.885M32.865,87.317c5.777,9.56,19.095,9.322,25.148,4.025,4.793-4.2,4.419-7.07,5.572-9.122l2.329.573.026,15.293-37.719.005V83.709c0-1.317,1.376-1.425,2.594-1.429.83,2.045.929,3.181,2.05,5.037M77.337,45.046v.471c0,2.438-1.255,3.765-3.772,3.452l0-7.393c2.552-.359,3.774,1.035,3.774,3.47M26.614,13.494c4.371-5.8,12.5-9.7,20.467-9.7A27.046,27.046,0,0,1,59.246,6.721a27.913,27.913,0,0,1,8.305,6.773c5.742,7.622,6.211,12.669,5.921,24.23-6.576,0-10.48-1.98-15-4.776a58.638,58.638,0,0,1-8.419-6.427c-3.783-3.65-4.146-1.462-5.431.5-3.716,5.678-18.373,10.7-23.93,10.7-.29-11.581.17-16.594,5.923-24.23M16.982,45.516v-.471c0-2.719,1.074-3.532,3.776-3.553l-.024,7.547c-2.636-.009-3.752-.865-3.752-3.523m3.875,9.525.508,1.374c2.772,12.032,10.407,15.354,10.709,16.449,0,4.725.308,4.6-3.617,6.008-1.215-.735-.337-1.5-2.814-1.537-9.626-.152-8.7-.231-8.741,4.971-2.561.645-6.085,2.261-6.5,2.3-.839-18.56,9.144-13.723,10.458-29.565M24.448,98.09H20.678V81.117h3.771ZM13.131,105.4c.015,2.561.049,5.194-.013,7.75H10.352a6.7,6.7,0,0,1-6.568-5.425l0-4.445A17.053,17.053,0,0,1,16.905,86.236l.011,11.394c.038,4.348-3.82,2.224-3.785,7.767m64.113,7.75v.018H16.905v-.018l-.018-7.768c.051-1.16.211-1.129.848-1.742,2.51-2.415,1.568-1.775,8.6-1.775l46.689-.011c2.334-.02,2.105.533,3.412,1.779,1.216,1.158.826,1.645.824,4.364,0,1.713.027,3.443-.016,5.154m13.424-5.837a6.7,6.7,0,0,1-6.634,5.837h-3c-.046-2.479-.013-5.028,0-7.514.018-3.488-.868-3.532-2.58-5.2-.962-.936-1.215-.74-1.213-2.563l.015-11.68a17.08,17.08,0,0,1,11.369,8.787c1.722,3.338,2.065,7.88,2.046,12.329Z" transform="translate(0 0)" fill="#483a4b" fill-rule="evenodd"/>
    <path id="Path_158" data-name="Path 158" d="M38.59,592.122c.038,4.348-3.82,2.224-3.785,7.767.015,2.561.049,5.194-.013,7.75H32.026a6.7,6.7,0,0,1-6.568-5.425l0-4.445a17.053,17.053,0,0,1,13.125-17.041Z" transform="translate(-21.674 -494.492)" fill="#fed944" fill-rule="evenodd"/>
    <rect id="Rectangle_751" data-name="Rectangle 751" width="3.771" height="16.973" transform="translate(20.678 81.117)" fill="#e0e0e2"/>
    <path id="Path_159" data-name="Path 159" d="M473.208,546.259v16.966l-.231,0-3.542,0V546.255h3.542Z" transform="translate(-399.726 -465.138)" fill="#e0e0e2" fill-rule="evenodd"/>
    <path id="Path_160" data-name="Path 160" d="M118.136,279.422l-.024,7.547c-2.637-.009-3.752-.865-3.752-3.523v-.471c0-2.719,1.074-3.532,3.776-3.552" transform="translate(-97.378 -237.929)" fill="#fed9a9" fill-rule="evenodd"/>
    <path id="Path_161" data-name="Path 161" d="M499.157,283.126v.471c0,2.439-1.255,3.765-3.772,3.452l0-7.393c2.552-.359,3.774,1.035,3.774,3.47" transform="translate(-421.82 -238.08)" fill="#fed9a9" fill-rule="evenodd"/>
    <rect id="Rectangle_752" data-name="Rectangle 752" width="60.338" height="0.018" transform="translate(16.905 113.147)"/>
    <rect id="Rectangle_753" data-name="Rectangle 753" width="60.338" height="0.018" transform="translate(16.905 113.147)"/>
    <path id="Path_162" data-name="Path 162" d="M635.352,685.428v.473q-.019-.236-.044-.473Z" transform="translate(-540.967 -583.644)"/>
    <path id="Path_163" data-name="Path 163" d="M501.172,594.767c-.479,1.692-.135,3-2.162,3.094-2.124.1-2.08-1.383-2.4-3.121-6.729-1.564-8.476-9.328-3.9-8.526,2.249.394,1.1,3.369,4.5,4.243,2.5.642,6.333-.09,6.029-2.738-.441-3.843-7.985-1.779-11.26-6.254a6.64,6.64,0,0,1-.4-7.018c1.233-2.307,2.391-2.579,5.028-3.748.292-1.645.29-3.068,2.17-3.118,2.049-.055,1.985,1.374,2.366,3.118,2.7,1.042,3.589,1.483,4.913,3.421,1.911,2.8.306,5.5-2.114,4.247-1.584-.821-1.275-3.522-4.932-3.575-2.547-.037-5.182,2.165-3.425,4.22,1.938,2.267,8.639.944,11.2,5.8,2.684,5.086-1.093,9.066-5.622,9.954m-20.559-9.394c1.485,9.17,9.758,17.213,20.918,15.6,9-1.3,17.267-9.951,15.585-20.865-1.409-9.139-9.848-17.253-20.861-15.647-8.947,1.3-17.427,9.886-15.642,20.91" transform="translate(-409.039 -480.468)" fill="#fec238" fill-rule="evenodd"/>
    <path id="Path_164" data-name="Path 164" d="M453.506,539.561c-.669,1.268-3.694,2.915-5.29,3.682a24.814,24.814,0,1,1-5.684-46.621c3.546.746,10.83,3.989,11.67,6.246,1.886.9,4.621,5.194,5.824,7.774a25.02,25.02,0,0,1,2.2,11.045,24.658,24.658,0,0,1-2.7,10.5c-1.238,2.443-4.165,6.527-6.024,7.377M408.232,519.35c0,2.908-.057,6.242.867,8.917,1.928,5.587,1.607,4.959,4.443,9.533,1.861,3,5.858,6.355,8.969,8.269a32.084,32.084,0,0,0,7.413,3.069,28.82,28.82,0,0,0,15.085,0c2.894-.939,2.09-.418,5.076-1.913,6.012-3.01,11.227-7.828,13.889-14.065,3.23-7.568,3.7-14.194,1.014-22.114-1.2-3.554-4.756-9.3-7.738-11.6-2.379-1.834-3.235-3.213-7.322-5.024a29.9,29.9,0,0,0-22.161-1.2c-.885.3-1.465.665-2.431,1.063-3.237,1.337-4.191,2.438-6.485,4l-3.563,3.426a36.865,36.865,0,0,0-5.227,8.75c-.293.81-.5,1.734-.81,2.684a20.856,20.856,0,0,0-1.019,6.2" transform="translate(-347.61 -418.638)" fill="#483a4b" fill-rule="evenodd"/>
    <path id="Path_165" data-name="Path 165" d="M455.925,560.333c-1.785-11.024,6.694-19.606,15.642-20.91,11.013-1.605,19.451,6.508,20.86,15.647,1.683,10.914-6.581,19.566-15.585,20.865-11.16,1.611-19.433-6.432-20.918-15.6m40.753.7c2.018-11.813-6.286-23.642-19.054-25.853-13.235-2.292-24.162,7.829-25.944,18.995-2.179,13.648,7.853,24.3,19.079,26.008,12.236,1.861,23.715-6.246,25.92-19.149" transform="translate(-384.351 -455.428)" fill="#483a4b" fill-rule="evenodd"/>
    <path id="Path_166" data-name="Path 166" d="M485.005,549.741c-2.2,12.9-13.683,21.01-25.92,19.149-11.226-1.707-21.258-12.359-19.079-26.008,1.783-11.166,12.709-21.286,25.945-18.995,12.768,2.211,21.072,14.04,19.054,25.853m-6.431,15.32,2.629-3.532c6-8.345,6.137-20.491.621-29.339a38.9,38.9,0,0,1-2.554-3.823c-.84-2.257-8.124-5.5-11.67-6.246a24.814,24.814,0,1,0,5.684,46.621c1.6-.766,4.621-2.413,5.29-3.681" transform="translate(-372.678 -444.137)" fill="#fcdf75" fill-rule="evenodd"/>
    <path id="Path_167" data-name="Path 167" d="M557.29,613.8c4.528-.888,8.306-4.868,5.622-9.954-2.564-4.858-9.265-3.536-11.2-5.8-1.758-2.055.878-4.257,3.425-4.22,3.657.053,3.348,2.754,4.932,3.575,2.42,1.254,4.025-1.45,2.114-4.247-1.324-1.938-2.217-2.379-4.914-3.421-.381-1.744-.317-3.173-2.366-3.118-1.88.05-1.878,1.473-2.17,3.118-2.637,1.17-3.795,1.442-5.028,3.748a6.64,6.64,0,0,0,.4,7.018c3.276,4.475,10.819,2.411,11.26,6.254.3,2.648-3.53,3.38-6.029,2.738-3.4-.873-2.253-3.848-4.5-4.243-4.573-.8-2.825,6.963,3.9,8.526.317,1.739.274,3.221,2.4,3.122,2.027-.1,1.683-1.4,2.162-3.094" transform="translate(-465.157 -499.502)" fill="#483a4b" fill-rule="evenodd"/>
    <path id="Path_168" data-name="Path 168" d="M713.119,603.914c1.859-.85,4.786-4.934,6.024-7.377a24.661,24.661,0,0,0,2.7-10.5,25.024,25.024,0,0,0-2.2-11.045c-1.2-2.58-3.938-6.874-5.824-7.774a38.95,38.95,0,0,0,2.554,3.823c5.516,8.847,5.375,20.993-.621,29.339Z" transform="translate(-607.223 -482.99)" fill="#ffd064" fill-rule="evenodd"/>
  </g>
</svg>
