<svg id="Group_144" data-name="Group 144" xmlns="http://www.w3.org/2000/svg" xmlns:xlink="http://www.w3.org/1999/xlink" width="99.309" height="124.215" viewBox="0 0 99.309 124.215">
  <defs>
    <clipPath id="clip-path">
      <rect id="Rectangle_750" data-name="Rectangle 750" width="99.309" height="124.215" fill="none"/>
    </clipPath>
  </defs>
  <g id="Group_143" data-name="Group 143" clip-path="url(#clip-path)">
    <path id="Path_117" data-name="Path 117" d="M27.282,785.735c.026.182.061.36.1.535a4.238,4.238,0,0,0-.1-.535" transform="translate(-23.751 -684.035)" fill="#483a4b" fill-rule="evenodd"/>
    <path id="Path_118" data-name="Path 118" d="M207.969,18.975H173c1.758-7.544,8.979-4.785,13.8-5.408a1.621,1.621,0,0,0,1.469-1.687h4.155c.052,4.821,13.212-2.906,15.541,7.1" transform="translate(-150.61 -10.342)" fill="#dbdbdb"/>
    <path id="Path_119" data-name="Path 119" d="M77.578,80.36c-1.553-2.908-3.128-3.8-3.628-4.574a86.073,86.073,0,0,1-4.317-9.5,30.323,30.323,0,0,1-.965-4.43L67.229,41.282c-.395-2.908-.384-6.721-.774-10.235-.471-4.262-.165-6.995-2.4-11.409a5.493,5.493,0,0,1-.864-1.941c2.992-.8,3.874-8.545-2.374-9.064-.622-2.665-1-3.916-2.859-5.776A8.575,8.575,0,0,0,51.963,0H43.544a1.641,1.641,0,0,0-1.727,1.51v.028c.052,4.821,13.212-2.906,15.541,7.1H22.392c1.758-7.544,8.979-4.785,13.8-5.408a1.621,1.621,0,0,0,1.469-1.687A1.561,1.561,0,0,0,35.99,0h-8.2c-3.3,0-6.493,2.733-7.762,5.188a18.039,18.039,0,0,0-1.087,3.445c-6.25.52-5.369,8.266-2.374,9.064-.071.855-1.063,2.005-1.649,3.748A29.643,29.643,0,0,0,13.7,25.838a48.6,48.6,0,0,0-.381,5.013l-.793,10.216c-.227,1.664-.189,3.632-.273,5.337L11.475,56.64c-.651,4.326.329,3.406-1.385,9.622a39.977,39.977,0,0,1-3.382,7.625c-.3.589-.519,1.23-.826,1.765-.857,1.5-5.72,4.044-5.72,13.7,0,.391-.005.769-.014,1.129L0,100.778a9.778,9.778,0,0,0,8.739,9.729H77.864c1.311,0,1.727-1.089,1.727-2.374V89.355a17.755,17.755,0,0,0-2.012-9M19.155,12.085H60.6a1.512,1.512,0,1,1,0,3.022H19.155A1.336,1.336,0,0,1,17.644,13.6a1.335,1.335,0,0,1,1.512-1.51M10.233,74.391c4.872-9.743,4.061-11.452,4.832-21.284.086-1.084.223-3.164.362-4.172.1-.741.021-1.366.057-2.1.152-3.043.84-9.158.859-12.092l1.037-9.97c.947-3.651,2.371-5.064,2.638-6.212H59.732a21.513,21.513,0,0,0,1.443,2.875A15.913,15.913,0,0,1,62.326,24.6a85.413,85.413,0,0,1,1.082,9.925,14.244,14.244,0,0,0,.085,2.073c.4,2.638.539,10.178.831,12.336.138,1.018.223,2.91.341,3.976l.249,4.066A35.843,35.843,0,0,0,68,71.372c.656,1.311,2.71,4.9,2.738,6.113-1.062.246-7.809,3.429-9.62,4.193-1.739.734-2.078,1.517-2.042-1.164l.012-14.043c.014-1.638-.13-3.017-1.732-3.017-2.279,0-1.727,2.686-1.727,4.965L49.99,66.506c-.694-.23-1.28-.528-1.914-.677V60.217c1.73-.4,4.629-2.9,5.992-4.368l1.564-1.891c0,2.954-.485,5.18,1.727,5.18A1.762,1.762,0,0,0,59.086,57.2V31.942c0-4.532-2.76-7.985-6.692-7.985H27.357a6.934,6.934,0,0,0-6.021,4.123c-.954,2.393-.67,6.184-.67,9.473l.016,43.406c.009,2.319-.1,1.47-4.458-.329-1.725-.712-5.8-2.816-7.213-3.145a7.58,7.58,0,0,1,1.223-3.095M41.615,86.78c-.047,2.954-3.375,2.754-3.479.215-.047-1.166.012-2.5.012-3.682,0-3.547.5-4.295-2.346-5.207-2.953-.946-6.711-4.319-7.151-7.743l3.443-1.112a6.826,6.826,0,0,0,2.719,4.231c5.98,4.508,12.524-.5,12.833-4.2l3.443,1.11c-.236,2.987-4,6.706-7.139,7.712-3.363,1.075-2.238,2.514-2.334,8.675M41.17,58.706c-3.5,0-5.093.049-8.351-1.576a16.148,16.148,0,0,1-4.331-3.223,15.622,15.622,0,0,1-4.369-10.524V30.863c0-2.308,1.9-3.67,4.317-3.67H51.315a4.365,4.365,0,0,1,2.98.906,3.378,3.378,0,0,1,1.337,2.764V43.382c0,8.216-7.5,15.323-14.462,15.323m3.282,9.973a4.881,4.881,0,0,1-9.1.158c-.561-1.488-.23-5.337-.23-7.324,1.742.835,7.708.857,9.5,0,0,1.728.2,6.015-.172,7.166M25.681,55.85a22.275,22.275,0,0,0,1.739,1.714,16.732,16.732,0,0,0,4.253,2.653v5.611c-.586.137-1.185.433-1.751.623-.684.229-1.332.44-1.947.644-1.328.438-2.471,1-3.857,1.323V53.959Zm50.456,51.421H64.266V99.284c0-.942,2.805-2.331,2.805-3.884a1.641,1.641,0,0,0-1.51-1.727c-1.179,0-4.749,3.569-4.749,4.749v8.849H18.939V98.421c0-1.3-3.8-4.749-4.532-4.749-1.219,0-1.727.786-1.727,1.943,0,1.112,2.806,2.831,2.806,3.668V107.1h-5.7a6.332,6.332,0,0,1-6.151-4.865c-.042-.175-.076-.353-.1-.535a6.219,6.219,0,0,1-.067-.921V95.041c.166-2.487-.994-8.446,1.818-13.337.047-.083.1-.166.145-.248.381-.629.812-.923.992-1.6l3.242,1.508c1.1.494,2.174.892,3.308,1.439,1.979.958,5.692,2.882,7.48,2.882a3.651,3.651,0,0,0,2.85-1.469c.724-.966.835-1.841.823-3.493-.021-2.949,0-5.9,0-8.853l1.289-.248a15.637,15.637,0,0,0,6.176,8.108c1.029.674,2.064,1.082,3.112,1.637,0,5.762-1.049,8.193,3.453,10.576,0,1.124-.123,7.762.082,8.552a1.665,1.665,0,0,0,3.24.166,9.988,9.988,0,0,0,.132-2.89q0-2.915,0-5.828c1.382-.731,2.71-1.245,3.3-3.609.32-1.29.156-5.149.156-6.967,2.745-1.451,3.289-1.4,5.7-3.8a14.617,14.617,0,0,0,3.582-5.916l1.287.249c.009,2.844.023,5.725.007,8.6-.019,3.105.771,5.18,4.317,5.18.778,0,9.537-4.087,11.631-4.991.939-.405.8-.758,1.751-.838.272,1.017,2.807,3.048,2.807,7.987Z" transform="translate(0 0.001)" fill="#483a4b"/>
    <path id="Path_120" data-name="Path 120" d="M217.856,213.774v12.519c0,8.216-7.5,15.323-14.462,15.323-3.5,0-5.093.049-8.351-1.576a16.15,16.15,0,0,1-4.331-3.223,15.622,15.622,0,0,1-4.369-10.524V213.774c0-2.308,1.9-3.67,4.317-3.67h22.879a4.365,4.365,0,0,1,2.98.906,3.378,3.378,0,0,1,1.337,2.764" transform="translate(-162.223 -182.91)" fill="#997147"/>
    <path id="Path_121" data-name="Path 121" d="M98.76,569.6v19.426H86.888v-7.987c0-.942,2.805-2.331,2.805-3.884a1.641,1.641,0,0,0-1.51-1.727c-1.179,0-4.749,3.569-4.749,4.749v8.849H41.562v-8.849c0-1.3-3.8-4.749-4.532-4.749-1.219,0-1.727.786-1.727,1.943,0,1.112,2.806,2.831,2.806,3.668v7.816h-5.7a6.332,6.332,0,0,1-6.151-4.865c-.042-.175-.076-.353-.1-.535a6.216,6.216,0,0,1-.067-.921V576.8c.166-2.487-.994-8.446,1.818-13.337.047-.083.1-.166.145-.248.381-.628.812-.923.992-1.6l3.242,1.508c1.1.493,2.174.892,3.308,1.439,1.979.958,5.692,2.882,7.48,2.882a3.651,3.651,0,0,0,2.85-1.469c.724-.966.835-1.841.823-3.493-.021-2.949,0-5.9,0-8.853l1.289-.248a15.638,15.638,0,0,0,6.176,8.108c1.029.674,2.064,1.082,3.112,1.636,0,5.762-1.049,8.193,3.453,10.576,0,1.124-.123,7.762.082,8.552a1.665,1.665,0,0,0,3.24.166,9.987,9.987,0,0,0,.132-2.89q0-2.915,0-5.827c1.382-.731,2.71-1.245,3.3-3.609.32-1.29.156-5.149.156-6.967,2.745-1.451,3.289-1.4,5.7-3.8a14.616,14.616,0,0,0,3.582-5.916l1.287.249c.009,2.844.023,5.725.007,8.6-.019,3.105.771,5.18,4.317,5.18.778,0,9.537-4.087,11.631-4.991.939-.405.8-.759,1.751-.838.272,1.017,2.807,3.048,2.807,7.987" transform="translate(-22.623 -481.754)" fill="#dbdbdb"/>
    <path id="Path_122" data-name="Path 122" d="M179.266,96.4h-41.44a1.511,1.511,0,1,1,0-3.022h41.44a1.512,1.512,0,1,1,0,3.022" transform="translate(-118.67 -81.292)" fill="#f7931e"/>
    <path id="Path_123" data-name="Path 123" d="M380.722,422.071v4.316c-2.279,0-1.727,2.686-1.727,4.965l-5.642-1.914c-.694-.23-1.28-.528-1.914-.677V423.15c1.73-.4,4.629-2.9,5.992-4.368L379,416.891c0,2.954-.485,5.18,1.727,5.18" transform="translate(-323.363 -362.931)" fill="#898989"/>
    <path id="Path_124" data-name="Path 124" d="M243.794,536.178c-.236,2.987-4,6.706-7.139,7.712-3.363,1.075-2.238,2.515-2.334,8.675-.047,2.954-3.375,2.754-3.479.215-.047-1.166.012-2.5.012-3.682,0-3.547.5-4.295-2.347-5.208-2.953-.946-6.711-4.319-7.151-7.743l3.443-1.112a6.827,6.827,0,0,0,2.719,4.231c5.98,4.508,12.524-.5,12.833-4.2Z" transform="translate(-192.706 -465.784)" fill="#f7931e"/>
    <path id="Path_125" data-name="Path 125" d="M280.06,482.42a4.881,4.881,0,0,1-9.1.158c-.561-1.488-.23-5.337-.23-7.324,1.742.835,7.708.857,9.5,0,0,1.728.2,6.015-.171,7.166" transform="translate(-235.608 -413.74)" fill="#997147"/>
    <path id="Path_126" data-name="Path 126" d="M193.9,423.15v5.611c-.585.137-1.185.433-1.751.624-.684.229-1.332.44-1.947.644-1.328.438-2.471,1-3.857,1.323V416.891l1.562,1.891a22.23,22.23,0,0,0,1.739,1.714,16.728,16.728,0,0,0,4.253,2.653" transform="translate(-162.223 -362.931)" fill="#898989"/>
    <path id="Path_127" data-name="Path 127" d="M131.346,202.33c-1.062.246-7.809,3.429-9.62,4.193-1.739.734-2.078,1.517-2.042-1.164l.012-14.043c.014-1.638-.13-3.017-1.732-3.017v-4.316a1.762,1.762,0,0,0,1.727-1.943V156.787c0-4.532-2.76-7.985-6.692-7.985H87.963a6.934,6.934,0,0,0-6.021,4.123c-.954,2.393-.67,6.184-.67,9.473l.016,43.406c.009,2.319-.1,1.47-4.458-.329-1.725-.712-5.8-2.816-7.213-3.145a7.578,7.578,0,0,1,1.223-3.095c4.872-9.743,4.061-11.452,4.832-21.284.087-1.084.223-3.164.362-4.172.1-.741.021-1.366.057-2.1.152-3.043.84-9.158.859-12.092l1.037-9.97c.947-3.651,2.371-5.064,2.638-6.212h39.714a21.526,21.526,0,0,0,1.443,2.875,15.9,15.9,0,0,1,1.152,3.166,85.411,85.411,0,0,1,1.082,9.925,14.261,14.261,0,0,0,.085,2.073c.4,2.638.539,10.178.831,12.336.139,1.018.223,2.909.341,3.976l.249,4.066a35.843,35.843,0,0,0,3.088,14.395c.656,1.311,2.71,4.9,2.738,6.113" transform="translate(-60.605 -124.844)" fill="#dbdbdb"/>
    <path id="Path_128" data-name="Path 128" d="M100.438,853.785v.055H68.561a9.925,9.925,0,0,1-1.046-.055Z" transform="translate(-58.776 -743.277)"/>
    <path id="Path_129" data-name="Path 129" d="M389.811,498.223a1.555,1.555,0,0,0-.115-.618c-.027-.138-.013-.22-.04-.358l-.435-1.426a9.776,9.776,0,0,0-1.567-2.687,7.566,7.566,0,0,0-.9-.966c-.01-.008-.024-.021-.036-.029l-.72-.609a20.424,20.424,0,0,0-2.515-1.541l-2.6-1.525c-.178-.115-.324-.18-.507-.291s-.283-.167-.466-.264l-2.551-1.5c-.112-.066-.155-.078-.262-.138l-11.82-6.727c-.016-.006-.034-.011-.049-.018l-.5-.17a.321.321,0,0,1-.066-.026l-.081-.026a8.5,8.5,0,0,0-1.868-.356h-1.611a10.546,10.546,0,0,0-2.407.473l-.675.256c-.191.084-.3.134-.5.236l-2.373,1.348c-.112.065-.157.078-.262.138l-11.8,6.883c-1.468.906-3.04,1.685-4.493,2.619a12.321,12.321,0,0,0-1.719,1.272l-.743.788a8.955,8.955,0,0,0-2.184,4.531c-.045.364-.121.241-.13.667-.011.531-.065.879-.065,1.465v20.874c0,.557.061.916.065,1.4a9.948,9.948,0,0,0,.591,2.4,11.135,11.135,0,0,0,1.337,2.384l.354.443a10.556,10.556,0,0,0,1.538,1.455l4.647,2.8a5.31,5.31,0,0,1,.457.275c.112.065.155.078.262.138l.711.419c1.128.6,2.2,1.316,3.313,1.938l4.714,2.732c.338.2.643.384.962.567l2.808,1.646c.183.105.3.151.473.259l2.216,1.173c.065.026.076.026.147.053a.453.453,0,0,1,.049.018c.016,0,.032.011.049.018s.032.013.049.018l.348.117.05.018a8.551,8.551,0,0,0,2.1.406h1.669a8.5,8.5,0,0,0,1.968-.371l.5-.17c.016,0,.032-.013.049-.018a20.453,20.453,0,0,0,2.849-1.473l17.92-10.533,2.18-2.273a8.581,8.581,0,0,0,1.548-3.705c.045-.364.121-.241.129-.667.011-.531.065-.879.065-1.465V499.62c0-.558-.061-.916-.065-1.4m-2.129,23.268a10.5,10.5,0,0,1-.531,2.129l-.439.892a8.1,8.1,0,0,1-2.687,2.763l-8.684,5.076-.042.026-5.966,3.474-.041.024-3.283,1.9a12.137,12.137,0,0,1-2.1.955l-.1.034c-.163.055.034.006-.149.05a7.365,7.365,0,0,1-3.074.13,9.734,9.734,0,0,1-2.909-1.146l-.924-.537-.126-.074c-.074-.042-.128-.071-.21-.121-.186-.11-.272-.159-.466-.266l-1.6-.926-.042-.026-1.34-.787c-.186-.1-.238-.139-.416-.249l-5.589-3.252c-.2-.108-.243-.134-.419-.246-1.009-.638-2.051-1.18-3.071-1.782l-.042-.024-.29-.175a3.564,3.564,0,0,0-.421-.243c-.614-.309-3.135-1.792-3.663-2.188l-.9-.761a7.264,7.264,0,0,1-2.072-4.044,2.733,2.733,0,0,1-.123-.609V498.623a9.865,9.865,0,0,1,.743-2.582,8.412,8.412,0,0,1,1.385-2.006,12.814,12.814,0,0,1,2.831-1.955l15.915-9.28a12.322,12.322,0,0,1,2.642-1.347l.358-.108a7.043,7.043,0,0,1,3.48-.1c.12.026.18.019.29.042.285.058,0,0,.253.079.087.029.163.049.257.076a4.159,4.159,0,0,1,.489.175l2.625,1.431c.2.108.274.157.463.267.167.1.275.143.431.235s.256.163.41.256.246.146.422.241c.12.065.1.055.212.121l13.055,7.621c.081.045.138.068.219.113l.669.395c.29.188.553.3.838.492a7.84,7.84,0,0,1,3.186,3.66,9.845,9.845,0,0,1,.55,2.177Z" transform="translate(-290.567 -416.954)" fill="#483a4b" fill-rule="evenodd"/>
    <path id="Path_130" data-name="Path 130" d="M401.885,510.767a7.84,7.84,0,0,0-3.185-3.66c-.285-.193-.549-.3-.839-.492l-.669-.4c-.081-.045-.138-.068-.219-.113l-13.055-7.621c-.113-.066-.092-.057-.212-.121-.176-.1-.275-.154-.422-.241s-.254-.163-.41-.256-.264-.136-.431-.235c-.189-.11-.262-.159-.463-.267l-2.626-1.431a4.181,4.181,0,0,0-.489-.175c-.094-.028-.17-.047-.257-.076-.251-.083.032-.021-.253-.079-.11-.023-.17-.016-.29-.042a7.043,7.043,0,0,0-3.48.1l-.358.108a12.308,12.308,0,0,0-2.642,1.347l-15.915,9.28a12.812,12.812,0,0,0-2.831,1.955,8.409,8.409,0,0,0-1.386,2.006,9.864,9.864,0,0,0-.743,2.582v22.869a2.74,2.74,0,0,0,.123.609,7.264,7.264,0,0,0,2.072,4.044l.9.761c.528.4,3.049,1.879,3.663,2.188a3.564,3.564,0,0,1,.421.243l.29.175.042.024c1.02.6,2.062,1.144,3.071,1.782.176.112.22.138.419.246l5.589,3.252c.178.11.23.149.416.249l1.34.787.042.026,1.6.926c.194.107.28.155.466.265.083.05.136.079.21.121l.126.075.924.537a9.739,9.739,0,0,0,2.909,1.146,7.366,7.366,0,0,0,3.074-.13c.183-.044-.014,0,.149-.05l.1-.034a12.141,12.141,0,0,0,2.1-.955l3.283-1.9.04-.024,5.967-3.474.042-.026,8.684-5.076a8.1,8.1,0,0,0,2.687-2.763l.439-.892a10.506,10.506,0,0,0,.531-2.129V512.945a9.844,9.844,0,0,0-.55-2.177m-1.377,23.516a7.144,7.144,0,0,1-.41,2.849c-.058.139-.133.287-.186.411a5.185,5.185,0,0,1-1.7,2.086c-.806.557-2.68,1.64-3.585,2.133l-15.555,9.042a4.523,4.523,0,0,1-1.962.563,5.954,5.954,0,0,1-3.877-1.042l-4.786-2.792c-.167-.1-.24-.16-.411-.254l-3.2-1.855-.21-.123c-.011-.006-.029-.016-.04-.024l-4.165-2.418c-.178-.091-.241-.151-.413-.251l-4.374-2.54c-.254-.162-.518-.3-.771-.494a5.334,5.334,0,0,1-1.209-1.316,3.351,3.351,0,0,1-.46-.8l-.4-1.193c-.078-.262-.034.021-.074-.259l-.075-21.464.1-1.9a6.836,6.836,0,0,1,.939-2.185,5.537,5.537,0,0,1,1.222-1.3c1.373-.982,3.726-2.106,5.227-3.084l.8-.465c.167-.1.219-.11.385-.214l6.847-3.988c.154-.094.222-.142.369-.23l5.646-3.262a5.735,5.735,0,0,1,4.663-.06c.139.057.066.023.188.078.3.139.531.306.808.456.173.092.244.151.413.251.138.081.264.138.388.209.162.094.249.162.41.256s.24.121.385.214l1.594.932a3.635,3.635,0,0,1,.426.238l5.21,3.033c.172.1.235.16.413.253l9.176,5.382a5.507,5.507,0,0,1,1.222,1.3,5.873,5.873,0,0,1,.665,1.261c.032.087.052.167.081.253a7.712,7.712,0,0,1,.291,2.5Z" transform="translate(-305.32 -431.275)" fill="#5e8195" fill-rule="evenodd"/>
    <path id="Path_131" data-name="Path 131" d="M413.182,525.365c-.029-.086-.049-.165-.081-.253a5.875,5.875,0,0,0-.665-1.261,5.505,5.505,0,0,0-1.222-1.3l-9.176-5.382c-.178-.092-.241-.152-.413-.253l-5.21-3.033a3.636,3.636,0,0,0-.426-.238l-1.594-.932c-.146-.092-.23-.121-.385-.214s-.248-.162-.41-.256c-.125-.071-.251-.128-.388-.209-.168-.1-.24-.159-.413-.251-.277-.151-.505-.317-.808-.456-.121-.055-.048-.021-.188-.078a5.735,5.735,0,0,0-4.663.06l-5.646,3.262c-.147.087-.215.136-.369.23l-6.847,3.988c-.167.1-.219.11-.385.214l-.8.464c-1.5.978-3.854,2.1-5.227,3.084a5.537,5.537,0,0,0-1.222,1.3,6.835,6.835,0,0,0-.939,2.185l-.1,1.9.075,21.464c.04.28,0,0,.074.259l.4,1.193a3.358,3.358,0,0,0,.46.8,5.337,5.337,0,0,0,1.209,1.316c.253.191.516.332.771.494l4.374,2.54c.172.1.235.16.413.251l4.165,2.418c.011.008.029.018.041.024l.21.123,3.2,1.855c.172.094.244.154.411.254l4.786,2.792a5.955,5.955,0,0,0,3.877,1.042,4.522,4.522,0,0,0,1.962-.563l15.555-9.042c.9-.494,2.779-1.577,3.585-2.133a5.183,5.183,0,0,0,1.7-2.086c.053-.125.128-.272.186-.411a7.144,7.144,0,0,0,.41-2.849V527.865a7.711,7.711,0,0,0-.291-2.5m-1.9,23.309-.225.971-.039.094c-.6,1.46-1.832,1.942-3.087,2.7-.149.091-.243.128-.385.214l-2.776,1.612c-.112.065-.2.134-.325.206l-2.483,1.441c-.948.615-3.054,1.753-4.162,2.418l-3.522,2.062c-.126.074-.225.12-.343.188l-2.483,1.441a3.083,3.083,0,0,1-1.708.552,4.483,4.483,0,0,1-2.74-.916c-.068-.039-.089-.052-.168-.1l-.125-.074c-.013-.006-.029-.016-.042-.024l-1.046-.615c-.136-.088-.2-.108-.343-.189l-9.736-5.688c-.155-.1-.225-.118-.387-.21-.134-.076-.206-.123-.338-.193-1.264-.67-3.487-2.031-4.994-2.919l-.042-.024a3.623,3.623,0,0,1-1.855-2.334c-.05-.22-.121-.269-.121-.476v-22.07a4.36,4.36,0,0,1,.6-1.6,3.19,3.19,0,0,1,1.13-1.063l7.723-4.51c.97-.513,1.85-1.112,2.826-1.627a3.867,3.867,0,0,0,.329-.2l7.4-4.306a3.667,3.667,0,0,1,.777-.351c1.583-.437,2.43.24,3.676.9l9.5,5.528c.173.092.167.105.327.2l7.433,4.335a3.676,3.676,0,0,1,1.523,1.8,2.793,2.793,0,0,1,.244.885Z" transform="translate(-318.286 -444.668)" fill="#483a4b" fill-rule="evenodd"/>
    <path id="Path_132" data-name="Path 132" d="M425.8,540.382a3.675,3.675,0,0,0-1.523-1.8l-7.433-4.335c-.16-.1-.154-.112-.327-.2l-9.495-5.528c-1.246-.665-2.093-1.342-3.676-.9a3.663,3.663,0,0,0-.777.351l-7.4,4.306c-.157.1-.16.113-.329.2-.976.515-1.857,1.114-2.826,1.627l-7.723,4.51a3.192,3.192,0,0,0-1.13,1.064,4.36,4.36,0,0,0-.6,1.6v22.07c0,.207.071.256.121.476a3.624,3.624,0,0,0,1.855,2.334l.042.024c1.507.887,3.729,2.248,4.994,2.918.133.07.2.117.338.193.162.092.232.115.387.21l9.736,5.688c.144.081.207.1.343.189l1.046.615a.476.476,0,0,0,.042.024l.125.074c.079.047.1.06.168.1a4.483,4.483,0,0,0,2.74.916,3.082,3.082,0,0,0,1.708-.552l2.483-1.441c.118-.068.217-.113.343-.188l3.522-2.062c1.107-.665,3.213-1.8,4.162-2.418L419.2,569c.126-.071.214-.141.325-.206l2.776-1.612c.142-.086.236-.123.385-.214,1.254-.754,2.488-1.237,3.087-2.7l.039-.094.225-.971V541.268a2.791,2.791,0,0,0-.244-.885m-14.447-1.573H418a1.033,1.033,0,0,1,.864,1.064c0,1.517-1.973.961-2.865,1.057-.385.041-.264.3-.261.736l-.013,8.828a1.107,1.107,0,0,1-1.539.7c-.851-.458-.575-1.442-.575-2.75l0-6.782c0-.38.1-.668-.2-.732-.33-.068-1.494.024-1.933.005-.725-.034-.994-.584-.994-1.2a1.049,1.049,0,0,1,.864-.931m-11.235.931a1.049,1.049,0,0,1,.865-.931h6.648c1.038,0,1.256,1.954,0,2.122l-5.314,0a17.973,17.973,0,0,0-.066,2.792c0,.662,2.548-.485,3.059.929a.8.8,0,0,1-.035.9c-.316.631-.971.568-1.428.566-1.554,0-1.6-.163-1.6.392l.006,3.265c0,.571.078.8-.2,1.128a1.1,1.1,0,0,1-1.926-.529Zm-12.63,14.625h2.525a1.079,1.079,0,0,1,.144,2.072c-.146.063.142.055-.144.055h-2.525c-.186,0,0,.039-.325-.141a1.057,1.057,0,0,1-.539-.923c0-.5.411-1.064.865-1.064m.066,4.121h2.392a1.113,1.113,0,0,1,.652.346,1.081,1.081,0,0,1-.638,1.8,3.245,3.245,0,0,1-.612.053c-.991,0-2.177.183-2.593-.6a1.085,1.085,0,0,1-.133-.533,1.068,1.068,0,0,1,.931-1.063m3.166,5.759-.272.327a1.315,1.315,0,0,1-.9.23c-.775,0-2.116.131-2.53-.262a1.1,1.1,0,0,1-.4-.934.938.938,0,0,1,.24-.559,1.312,1.312,0,0,1,.547-.384c.146-.063-.142-.055.144-.055h2.392c.285,0,1.35.725.774,1.637m4.28-9.082v12.962a1.073,1.073,0,0,1-.714.749c-.4.139-.241.17-.751-.016a.728.728,0,0,1-.333-.2.918.918,0,0,1-.329-.735v-12.7c0-.829,1.3-1.162,1.849-.586l.222.376c.063.147.057-.143.057.144m1-3.856c-.788,0-1.031-.738-1.276-1.119l-1.484-2.438c-.112-.209-.167-.327-.285-.513l-1.473-2.449c-.107-.181-.2-.3-.308-.491-.131-.22-.108-.3-.295-.437v6.449a1.105,1.105,0,1,1-2.193-.267V540a1.174,1.174,0,0,1,.246-.817,1,1,0,0,1,.685-.379c.662,0,.809-.026,1.261.733.052.087.092.16.146.254l.123.209c.007.013.016.029.024.042.112.191.167.269.28.452s.206.321.3.494l.842,1.419c.222.325.4.649.6,1l1.713,2.808c0-.01.019.024.031.036l0-6.251a1.094,1.094,0,0,1,2-.73,1.92,1.92,0,0,1,.2.932v9.573c0,.769-.2,1.53-1.13,1.53m3.746,13.4-.047-.018-.133-.068-.044-.024-.037-.028a.8.8,0,0,1-.264-.335c-.189-.361-.163-.131-.163-.567a1.206,1.206,0,0,1,1.063-1.063h6.316a1.145,1.145,0,0,1,.719.343,1.309,1.309,0,0,1,.345.654c0,.588.02.141-.094.437a1.077,1.077,0,0,1-1.169.759c-1.17,0-5.989.1-6.493-.091m.375-5.295a1.1,1.1,0,0,1,.931-.931h6.515a1.092,1.092,0,0,1,.531,1.928,1.83,1.83,0,0,1-1.13.267h-5.317a2.017,2.017,0,0,1-1.052-.212,1.114,1.114,0,0,1-.478-1.052m7.665,9.46a1.141,1.141,0,0,1-.418.113h-6.117a1.14,1.14,0,0,1-.418-.113,1.059,1.059,0,0,1-.712-1.149,1.036,1.036,0,0,1,.712-.884,1.138,1.138,0,0,1,.418-.113h6.117a1.112,1.112,0,0,1,.418,2.146m.779-12.384H397.922a1.078,1.078,0,0,1-.066-2.127h10.769a.968.968,0,0,1,.652.345,1.188,1.188,0,0,1,.278.652c0,.6.023.152-.078.388,0,0-.065.155-.079.186a1.026,1.026,0,0,1-.84.555m7.9,12.153a1.557,1.557,0,0,1-.785.345h-4.055a1.188,1.188,0,0,1-.753-.311.987.987,0,0,1-.377-.952,1.182,1.182,0,0,1,1.13-1h4.055a1.557,1.557,0,0,1,.785.345,1.069,1.069,0,0,1,0,1.57m3.271-3.843h-8.976a1.121,1.121,0,0,1-1.19-.605,1.052,1.052,0,0,1,.165-1.217,1.173,1.173,0,0,1,.759-.371h9.44a1.1,1.1,0,1,1-.2,2.193m1.811-4.37a.812.812,0,0,1-.468.2c-.631.115-7.818.053-9.055.053a1.786,1.786,0,0,1-1.042-.222,1.011,1.011,0,0,1-.487-1.042,1.093,1.093,0,0,1,.931-.931h9.639a1.083,1.083,0,0,1,.483,1.946" transform="translate(-333.049 -459.2)" fill="#729ab0" fill-rule="evenodd"/>
    <path id="Path_133" data-name="Path 133" d="M438.255,616.326V625.9c0,.769-.2,1.53-1.13,1.53-.788,0-1.031-.738-1.276-1.118l-1.484-2.438c-.112-.209-.167-.327-.285-.513l-1.473-2.449c-.107-.181-.2-.3-.308-.49-.131-.22-.108-.3-.295-.437v6.449a1.105,1.105,0,1,1-2.193-.267V616.127a1.174,1.174,0,0,1,.246-.818,1,1,0,0,1,.685-.379c.662,0,.809-.026,1.261.733.052.087.092.16.146.254l.123.209c.006.013.016.029.024.042.112.191.167.269.28.452s.206.32.3.494l.842,1.42c.222.325.4.649.6,1l1.713,2.808c0-.01.019.024.031.036l0-6.251a1.094,1.094,0,0,1,2-.73,1.919,1.919,0,0,1,.2.932" transform="translate(-374.18 -535.322)" fill="#483a4b" fill-rule="evenodd"/>
    <path id="Path_134" data-name="Path 134" d="M525.661,617.181l-5.314,0a17.987,17.987,0,0,0-.066,2.792c0,.662,2.548-.486,3.059.929a.8.8,0,0,1-.036.9c-.316.631-.971.568-1.428.567-1.554,0-1.6-.164-1.6.392l.006,3.265c0,.571.078.8-.2,1.128a1.1,1.1,0,0,1-1.926-.529V615.99a1.049,1.049,0,0,1,.864-.931h6.648c1.038,0,1.256,1.954,0,2.122" transform="translate(-451.088 -535.45)" fill="#483a4b" fill-rule="evenodd"/>
    <path id="Path_135" data-name="Path 135" d="M606.655,616.122c0,1.517-1.973.961-2.865,1.057-.385.041-.264.3-.261.737l-.013,8.828a1.107,1.107,0,0,1-1.539.7c-.851-.458-.575-1.442-.575-2.75l0-6.782c0-.38.1-.668-.2-.732-.33-.068-1.494.024-1.933,0-.725-.034-.994-.584-.994-1.2a1.049,1.049,0,0,1,.865-.931h6.648a1.033,1.033,0,0,1,.864,1.063" transform="translate(-520.841 -535.45)" fill="#483a4b" fill-rule="evenodd"/>
    <path id="Path_136" data-name="Path 136" d="M464.3,735.969v12.962a1.073,1.073,0,0,1-.714.749c-.4.139-.241.17-.751-.016a.728.728,0,0,1-.333-.2.918.918,0,0,1-.329-.735v-12.7c0-.829,1.3-1.162,1.849-.586l.222.375c.063.147.057-.142.057.144" transform="translate(-402.357 -640.007)" fill="#483a4b" fill-rule="evenodd"/>
    <path id="Path_137" data-name="Path 137" d="M506.5,736.626s-.065.155-.079.186a1.026,1.026,0,0,1-.84.555H494.949a1.078,1.078,0,0,1-.066-2.127h10.769a.968.968,0,0,1,.652.345,1.189,1.189,0,0,1,.278.652c0,.6.023.152-.078.388" transform="translate(-430.076 -640.076)" fill="#483a4b" fill-rule="evenodd"/>
    <path id="Path_138" data-name="Path 138" d="M609.331,769.026a.812.812,0,0,1-.468.2c-.631.115-7.818.053-9.055.053a1.786,1.786,0,0,1-1.042-.222,1.011,1.011,0,0,1-.487-1.042,1.093,1.093,0,0,1,.931-.931h9.639a1.083,1.083,0,0,1,.482,1.946" transform="translate(-520.842 -667.794)" fill="#483a4b" fill-rule="evenodd"/>
    <path id="Path_139" data-name="Path 139" d="M600.469,801.126h-8.976a1.121,1.121,0,0,1-1.19-.605,1.052,1.052,0,0,1,.165-1.217,1.173,1.173,0,0,1,.759-.371h9.44a1.1,1.1,0,1,1-.2,2.193" transform="translate(-513.791 -695.524)" fill="#483a4b" fill-rule="evenodd"/>
    <path id="Path_140" data-name="Path 140" d="M525.818,832.918a1.139,1.139,0,0,1-.418.113h-6.117a1.139,1.139,0,0,1-.418-.113,1.059,1.059,0,0,1-.712-1.149,1.036,1.036,0,0,1,.712-.884,1.139,1.139,0,0,1,.418-.113H525.4a1.112,1.112,0,0,1,.418,2.146" transform="translate(-451.088 -723.242)" fill="#483a4b" fill-rule="evenodd"/>
    <path id="Path_141" data-name="Path 141" d="M518.279,800.366a1.077,1.077,0,0,1-1.169.759c-1.17,0-5.989.1-6.492-.091l-.047-.018-.133-.068-.044-.024-.037-.028a.8.8,0,0,1-.264-.335c-.189-.361-.163-.131-.163-.567a1.206,1.206,0,0,1,1.064-1.063h6.316a1.145,1.145,0,0,1,.719.343,1.31,1.31,0,0,1,.345.654c0,.588.02.141-.094.437" transform="translate(-443.927 -695.524)" fill="#483a4b" fill-rule="evenodd"/>
    <path id="Path_142" data-name="Path 142" d="M526.131,769.008a1.83,1.83,0,0,1-1.13.267h-5.317a2.017,2.017,0,0,1-1.052-.212,1.114,1.114,0,0,1-.477-1.052,1.1,1.1,0,0,1,.931-.931H525.6a1.092,1.092,0,0,1,.531,1.928" transform="translate(-451.088 -667.794)" fill="#483a4b" fill-rule="evenodd"/>
    <path id="Path_143" data-name="Path 143" d="M604.248,832.687a1.556,1.556,0,0,1-.785.345h-4.055a1.19,1.19,0,0,1-.753-.311.987.987,0,0,1-.377-.952,1.182,1.182,0,0,1,1.13-1h4.055a1.556,1.556,0,0,1,.785.345,1.069,1.069,0,0,1,0,1.57" transform="translate(-520.841 -723.242)" fill="#483a4b" fill-rule="evenodd"/>
    <path id="Path_144" data-name="Path 144" d="M417.231,769.222a3.244,3.244,0,0,1-.612.053c-.991,0-2.177.183-2.593-.6a1.087,1.087,0,0,1-.133-.533,1.068,1.068,0,0,1,.931-1.063h2.392a1.112,1.112,0,0,1,.652.346,1.081,1.081,0,0,1-.638,1.8" transform="translate(-360.321 -667.794)" fill="#483a4b" fill-rule="evenodd"/>
    <path id="Path_145" data-name="Path 145" d="M417.99,800.567l-.272.327a1.315,1.315,0,0,1-.9.23c-.775,0-2.116.131-2.53-.262a1.1,1.1,0,0,1-.395-.934.938.938,0,0,1,.24-.558,1.312,1.312,0,0,1,.547-.384c.146-.063-.142-.055.144-.055h2.392c.285,0,1.35.725.774,1.636" transform="translate(-360.321 -695.522)" fill="#483a4b" fill-rule="evenodd"/>
    <path id="Path_146" data-name="Path 146" d="M417.427,737.313c-.146.063.142.055-.144.055h-2.525c-.186,0,0,.039-.325-.141a1.056,1.056,0,0,1-.539-.923c0-.5.411-1.063.864-1.063h2.525a1.079,1.079,0,0,1,.144,2.072" transform="translate(-360.321 -640.076)" fill="#483a4b" fill-rule="evenodd"/>
  </g>
</svg>
